<?xml version="1.0" encoding="utf-8"?>
<!-- Generator: Adobe Illustrator 24.0.0, SVG Export Plug-In . SVG Version: 6.00 Build 0)  -->
<svg version="1.1" id="图层_1" xmlns="http://www.w3.org/2000/svg" xmlns:xlink="http://www.w3.org/1999/xlink" x="0px" y="0px"
	 viewBox="0 0 1350 1080" style="enable-background:new 0 0 1350 1080;" xml:space="preserve">
<style type="text/css">
	.st0{fill:#777777;}
</style>
<g>
	<g>
		<g>
			<path class="st0" d="M3.3,362.1c-0.2,0-0.4-0.1-0.5-0.3c-0.1-0.2,0-0.6,0.2-0.7l189.9-107.4L3.4,350.3c-0.3,0.1-0.6,0-0.7-0.2
				c-0.1-0.2,0-0.6,0.2-0.7l168.2-93.7L3.4,341.1c-0.3,0.1-0.6,0-0.7-0.2c-0.1-0.2,0-0.6,0.2-0.7l150.8-83.4L3.4,333.4
				c-0.3,0.1-0.6,0-0.7-0.2c-0.1-0.2,0-0.6,0.2-0.7l137.9-76.8l-137.4,70c-0.3,0.1-0.6,0-0.7-0.2c-0.1-0.2,0-0.6,0.2-0.7l125.4-70.6
				L3.4,317.8c-0.3,0.1-0.6,0-0.7-0.2s0-0.6,0.2-0.7l110.2-61.5L3.4,311.3c-0.3,0.1-0.6,0-0.7-0.2c-0.1-0.1-0.1-0.3,0-0.4
				c-0.1-0.2,0-0.5,0.2-0.6l98.6-55.2l-98.1,50c-0.3,0.1-0.6,0-0.7-0.2c-0.1-0.2,0-0.6,0.2-0.7l87.3-48.8L3.4,299.4
				c-0.3,0.1-0.6,0-0.7-0.2c-0.1-0.2-0.1-0.5,0.2-0.7l80.6-50L3.4,289.3c-0.2,0.1-0.5,0-0.7-0.2c-0.1-0.2-0.1-0.5,0.2-0.7l62-41.6
				L3.4,278.1c-0.3,0.1-0.6,0-0.7-0.2c-0.1-0.3,0-0.6,0.2-0.7l26.2-14.1L3.4,276.2c-0.2,0.1-0.5,0-0.7-0.2s-0.1-0.5,0.1-0.7
				l41.5-29.1L3.4,267.1c-0.2,0.1-0.5,0.1-0.6-0.1c-0.2-0.2-0.1-0.5,0-0.7l20.5-22.1L3.5,254.3c-0.2,0.1-0.4,0.1-0.5,0
				c-0.2-0.1-0.2-0.3-0.2-0.5l0.5-10.6c-0.2,0-0.4-0.1-0.5-0.3c-0.1-0.3,0-0.6,0.2-0.7l0.6-0.3c0.2-0.1,0.4-0.1,0.5,0
				c0.2,0.1,0.2,0.3,0.2,0.5L3.7,253l21.6-11c0.2-0.1,0.5-0.1,0.6,0.1c0.2,0.2,0.1,0.5,0,0.7L5.4,264.9l45-22.9
				c0.2-0.1,0.5,0,0.7,0.2c0.1,0.2,0.1,0.5-0.1,0.7L9.4,272l58.9-30c0.3-0.1,0.6,0,0.7,0.2c0.1,0.3,0,0.6-0.2,0.7L42.7,257l29.5-15
				c0.2-0.1,0.5,0,0.7,0.2c0.1,0.2,0.1,0.5-0.2,0.7l-62,41.6L94,242.1c0.2-0.1,0.6,0,0.7,0.2s0.1,0.5-0.2,0.7l-80.6,50l99.9-50.9
				c0.3-0.1,0.6,0,0.7,0.2s0,0.6-0.2,0.7L27,291.8l97.5-49.7c0.3-0.1,0.6,0,0.7,0.2c0.1,0.2,0,0.6-0.2,0.7l-98.6,55.2L136.6,242
				c0.2-0.1,0.4-0.1,0.5,0l0,0c0.3-0.1,0.6,0,0.7,0.2c0.1,0.2,0,0.6-0.2,0.7L27.4,304.4L149.9,242c0.3-0.1,0.6,0,0.7,0.2
				c0.1,0.2,0,0.6-0.2,0.7L25,313.5L165.4,242c0.3-0.1,0.6,0,0.7,0.2c0.1,0.2,0,0.6-0.2,0.7L28,319.7L180.5,242
				c0.3-0.1,0.6,0,0.7,0.2c0.1,0.2,0,0.6-0.2,0.7L30.2,326.3L195.6,242c0.3-0.1,0.6,0,0.7,0.2c0.1,0.2,0,0.6-0.2,0.7L27.9,336.6
				L213.6,242c0.3-0.1,0.6,0,0.7,0.2c0.1,0.2,0,0.6-0.2,0.7L24.2,350.4L236.9,242c0.3-0.1,0.6,0,0.7,0.2c0.1,0.3,0,0.6-0.2,0.7
				L56,340.7L249.6,242c0.3-0.1,0.6,0,0.7,0.2c0.1,0.3,0,0.6-0.2,0.7L68.3,341l194.3-99c0.3-0.1,0.6,0,0.7,0.2
				c0.1,0.3,0,0.6-0.2,0.7L89.3,335.5L272.8,242c0.3-0.1,0.6,0,0.7,0.2s0,0.6-0.2,0.7L83.4,350.2L295.7,242c0.3-0.1,0.6,0,0.7,0.2
				c0.1,0.3,0,0.6-0.2,0.7L110.3,344.2L311,242c0.3-0.1,0.6,0,0.7,0.2c0.1,0.3,0,0.6-0.2,0.7l-62.8,32.5l65.5-33.4
				c0.3-0.1,0.6,0,0.7,0.2c0.1,0.3,0,0.6-0.2,0.7l-186,101.4L329.5,242c0.3-0.1,0.6,0,0.7,0.2c0.1,0.3,0,0.6-0.2,0.7l-183.6,99.4
				l197-100.4c0.3-0.1,0.6,0,0.7,0.2c0.1,0.3,0,0.6-0.2,0.7l0,0L211.2,312l137.5-70c0.3-0.1,0.6,0,0.7,0.2s0,0.6-0.2,0.7l-189.9,107
				L371.1,242c0.3-0.1,0.6,0,0.7,0.2s0,0.6-0.2,0.7L181.9,349.2L392.3,242c0.3-0.1,0.6,0,0.7,0.2c0.1,0.3,0,0.6-0.2,0.7L207.6,343.6
				L407.1,242c0.3-0.1,0.6,0,0.7,0.2c0.1,0.3,0,0.6-0.2,0.7L225.7,341l194.4-99c0.3-0.1,0.6,0,0.7,0.2s0,0.6-0.2,0.7L231.5,347.8
				L439.2,242l0,0l0,0c0.3-0.1,0.6,0,0.7,0.2c0,0.1,0,0.1,0.1,0.2l0.8-0.4c0.3-0.1,0.6,0,0.7,0.2c0.1,0.3,0,0.6-0.2,0.7l-181.5,97.8
				L453.5,242c0.3-0.1,0.6,0,0.7,0.2c0.1,0.3,0,0.6-0.2,0.7l-165.4,87.5L462.1,242c0.3-0.1,0.6,0,0.7,0.2s0,0.6-0.2,0.7L272.8,349.5
				l211-107.5l0,0l0,0c0.3-0.1,0.6,0,0.7,0.2c0.1,0.3,0,0.6-0.2,0.7l0,0l-31.4,16.2l33.5-17.1l0,0l0,0c0.3-0.1,0.6,0,0.7,0.2
				c0.1,0.3,0,0.6-0.2,0.7l-153.8,80.8L493.5,242c0.3-0.1,0.6,0,0.7,0.2c0.1,0.3,0,0.6-0.2,0.7L307.3,345l202.2-103
				c0.3-0.1,0.6,0,0.7,0.2c0.1,0.3,0,0.6-0.2,0.7l-173.1,92.2L519.6,242c0.3-0.1,0.6,0,0.7,0.2c0.1,0.3,0,0.6-0.2,0.7l-167.8,88.9
				L528.6,242c0.3-0.1,0.6,0,0.7,0.2c0.1,0.3,0,0.6-0.2,0.7l-187.6,103l204-104c0.3-0.1,0.6,0,0.7,0.2c0.1,0.2,0,0.6-0.2,0.7
				l-189.9,107L567.9,242c0.3-0.1,0.6,0,0.7,0.2c0.1,0.3,0,0.6-0.2,0.7l-151.2,79.3L574.8,242c0.3-0.1,0.6,0,0.7,0.2
				c0.1,0.3,0,0.6-0.2,0.7L389.9,343.8L589.7,242c0.3-0.1,0.6,0,0.7,0.2c0.1,0.3,0,0.6-0.2,0.7l-151.3,79.4L596.5,242
				c0.3-0.1,0.6,0,0.7,0.2c0.1,0.3,0,0.6-0.2,0.7l-177.9,95.3L607.9,242c0.3-0.1,0.6,0,0.7,0.2c0.1,0.3,0,0.6-0.2,0.7l-164.9,87.2
				l173-88.1c0.3-0.1,0.6,0,0.7,0.2c0.1,0.3,0,0.6-0.2,0.7L429.3,346l204.1-104c0.1-0.1,0.2-0.1,0.4,0c0.2,0,0.4,0,0.5,0.1l0.2-0.1
				c0.3-0.1,0.6,0,0.7,0.2c0.1,0.2,0,0.6-0.2,0.7L445.2,349.4L655.9,242c0.3-0.1,0.6,0,0.7,0.2c0.1,0.3,0,0.6-0.2,0.7l-118.8,61.8
				L660.7,242c0.3-0.1,0.6,0,0.7,0.2c0.1,0.3,0,0.6-0.2,0.7l-166.6,88.2L669.5,242c0.3-0.1,0.6,0,0.7,0.2c0.1,0.3,0,0.6-0.2,0.7
				l-125.7,65.5L674.5,242c0.3-0.1,0.6,0,0.7,0.2c0.1,0.2,0,0.6-0.2,0.7L485.2,351l214-109c0.3-0.1,0.6,0,0.7,0.2
				c0.1,0.3,0,0.6-0.2,0.7L514.4,343.7L714.1,242c0.3-0.1,0.6,0,0.7,0.2c0.1,0.2,0,0.6-0.2,0.7L524.8,349.8L736.4,242
				c0.3-0.1,0.6,0,0.7,0.2c0.1,0.3,0,0.6-0.2,0.7l-167.2,88.5L745.3,242c0.3-0.1,0.6,0,0.7,0.2c0.1,0.2,0,0.6-0.2,0.7L555.9,350.1
				L768.1,242c0.3-0.1,0.6,0,0.7,0.2c0.1,0.2,0,0.6-0.2,0.7l-189.8,108L792.6,242c0.3-0.1,0.6,0,0.7,0.2c0.1,0.3,0,0.6-0.2,0.7
				l-184.4,100l198.2-101c0.3-0.1,0.6,0,0.7,0.2c0.1,0.2,0,0.6-0.2,0.7L617.9,348.6L827.1,242c0.3-0.1,0.6,0,0.7,0.2
				c0.1,0.3,0,0.6-0.2,0.7l-178.1,95.4l189-96.3c0.2-0.1,0.5-0.1,0.6,0.1l0.2-0.1c0.3-0.1,0.6,0,0.7,0.2c0.1,0.3,0,0.6-0.2,0.7
				L693,319.8L845.8,242c0.3-0.1,0.6,0,0.7,0.2c0.1,0.3,0,0.6-0.2,0.7l-182,98.2L858.8,242c0.3-0.1,0.6,0,0.7,0.2
				c0.1,0.2,0,0.6-0.2,0.7L669.9,348.4l209-106.4c0.3-0.1,0.6,0,0.7,0.2c0.1,0.3,0,0.6-0.2,0.7l-165.7,87.6L887.5,242
				c0.3-0.1,0.6,0,0.7,0.2c0.1,0.2,0,0.6-0.2,0.7L698.2,349.4L909,242c0.3-0.1,0.6,0,0.7,0.2c0.1,0.3,0,0.6-0.2,0.7l-131.3,68.5
				L914.4,242c0.3-0.1,0.6,0,0.7,0.2l0,0l0.5-0.2c0.3-0.1,0.6,0,0.7,0.2c0.1,0.3,0,0.6-0.2,0.7l-183.3,99.2L929.3,242
				c0.3-0.1,0.6,0,0.7,0.2c0.1,0.3,0,0.6-0.2,0.7l-188.4,104L947.3,242c0.3-0.1,0.6,0,0.7,0.2c0.1,0.3,0,0.6-0.2,0.7l-144.7,75.7
				L953.6,242c0.3-0.1,0.6,0,0.7,0.2c0.1,0.3,0,0.6-0.2,0.7L782.7,334l184.5-94c0.3-0.1,0.6,0,0.7,0.2s0,0.6-0.2,0.7L729.9,362
				c-0.3,0.1-0.6,0-0.7-0.2c-0.1-0.3,0-0.6,0.2-0.7L900.8,270l-180.5,92c-0.3,0.1-0.6,0-0.7-0.2c-0.1-0.3,0-0.6,0.2-0.7l0,0
				l144.6-75.7L714,362c-0.3,0.1-0.6,0-0.7-0.2c-0.1-0.3,0-0.6,0.2-0.7l188.4-104L695.9,362c-0.3,0.1-0.6,0-0.7-0.2
				c-0.1-0.3,0-0.6,0.2-0.7l183.3-99.2L682.3,362l0,0l0,0c-0.3,0.1-0.6,0-0.7-0.2l0,0l-0.5,0.2c-0.3,0.1-0.6,0-0.7-0.2
				c-0.1-0.3,0-0.6,0.2-0.7l0,0l131.3-68.5L675.7,362c-0.3,0.1-0.6,0-0.7-0.2c-0.1-0.2,0-0.6,0.2-0.7l189.7-106.5L654.2,362
				c-0.3,0.1-0.6,0-0.7-0.2c-0.1-0.3,0-0.6,0.2-0.7l165.6-87.6L645.5,362c-0.3,0.1-0.6,0-0.7-0.2c-0.1-0.2,0-0.6,0.2-0.7
				l189.4-105.5L625.5,362c-0.3,0.1-0.6,0-0.7-0.2c-0.1-0.3,0-0.6,0.2-0.7l182-98.2L612.5,362c-0.3,0.1-0.6,0-0.7-0.2
				c-0.1-0.3,0-0.6,0.2-0.7l146.8-76.9L606,362c-0.2,0.1-0.5,0.1-0.6-0.1l-0.2,0.1c-0.3,0.1-0.6,0-0.7-0.2c-0.1-0.3,0-0.6,0.2-0.7
				l178.1-95.4L593.7,362c-0.3,0.1-0.6,0-0.7-0.2c-0.1-0.2,0-0.6,0.2-0.7l189.5-105.7L573.5,362c-0.3,0.1-0.6,0-0.7-0.2
				c-0.1-0.3,0-0.6,0.2-0.7l184.4-100L559.2,362c-0.3,0.1-0.6,0-0.7-0.2c-0.1-0.2,0-0.6,0.2-0.7l189.8-108L534.7,362
				c-0.3,0.1-0.6,0-0.7-0.2c-0.1-0.2,0-0.6,0.2-0.7L724.1,254L512,362c-0.3,0.1-0.6,0-0.7-0.2c-0.1-0.3,0-0.6,0.2-0.7l167.2-88.5
				L503.1,362c-0.3,0.1-0.6,0-0.7-0.2s0-0.6,0.2-0.7l189.8-106.9L480.8,362c-0.3,0.1-0.6,0-0.7-0.2c-0.1-0.3,0-0.6,0.2-0.7
				l185.3-100.8L465.9,362c-0.3,0.1-0.6,0-0.7-0.2s0-0.6,0.2-0.7L655.2,253l-214,109c-0.3,0.1-0.6,0-0.7-0.2c-0.1-0.3,0-0.6,0.2-0.7
				l125.7-65.4L436.1,362c-0.3,0.1-0.6,0-0.7-0.2c-0.1-0.3,0-0.6,0.2-0.7l166.6-88.2L427.3,362c-0.3,0.1-0.6,0-0.7-0.2
				c-0.1-0.3,0-0.6,0.2-0.7l118.8-61.8l-123,62.7c-0.3,0.1-0.6,0-0.7-0.2s0-0.6,0.2-0.7l189.8-106.5L401.1,362
				c-0.2,0.1-0.4,0.1-0.6-0.1l-0.2,0.1c-0.1,0.1-0.2,0.1-0.4,0c-0.2,0.1-0.5,0-0.6-0.3s0-0.6,0.2-0.7l187.6-103.1L383.1,362
				c-0.3,0.1-0.6,0-0.7-0.2c-0.1-0.3,0-0.6,0.2-0.7l164.9-87.2l-173,88.1c-0.3,0.1-0.6,0-0.7-0.2c-0.1-0.3,0-0.6,0.2-0.7l177.9-95.3
				L363.2,362c-0.3,0.1-0.6,0-0.7-0.2c-0.1-0.3,0-0.6,0.2-0.7l151.2-79.3L356.3,362c-0.3,0.1-0.6,0-0.7-0.2c-0.1-0.3,0-0.6,0.2-0.7
				l185.4-100.9L341.4,362c-0.3,0.1-0.6,0-0.7-0.2c-0.1-0.3,0-0.6,0.2-0.7l151.2-79.3L334.6,362c-0.3,0.1-0.6,0-0.7-0.2
				s0-0.6,0.2-0.7l189.9-107L312.2,362c-0.3,0.1-0.6,0-0.7-0.2c-0.1-0.3,0-0.6,0.2-0.7l187.6-103l-204,104c-0.3,0.1-0.6,0-0.7-0.2
				c-0.1-0.3,0-0.6,0.2-0.7l167.8-88.9L286.3,362c-0.3,0.1-0.6,0-0.7-0.2c-0.1-0.3,0-0.6,0.2-0.7l173.1-92.2L276.2,362
				c-0.3,0.1-0.6,0-0.7-0.2c-0.1-0.3,0-0.6,0.2-0.7L462.4,259L260.2,362c-0.3,0.1-0.6,0-0.7-0.2c-0.1-0.3,0-0.6,0.2-0.7l0,0
				l153.7-80.8L253.1,362c-0.3,0.1-0.6,0-0.7-0.2c-0.1-0.3,0-0.6,0.2-0.7l0,0l31.4-16.2L250.4,362c-0.3,0.1-0.6,0-0.7-0.2
				s0-0.6,0.2-0.7l189.8-106.6L228.7,362c-0.3,0.1-0.6,0-0.7-0.2c-0.1-0.3,0-0.6,0.2-0.7l0,0l165.4-87.5L220.1,362
				c-0.3,0.1-0.6,0-0.7-0.2c-0.1-0.3,0-0.6,0.2-0.7l181.5-97.8L207.4,362l0,0l0,0c-0.3,0.1-0.6,0-0.7-0.2c0-0.1,0-0.1-0.1-0.2
				l-0.8,0.4c-0.3,0.1-0.6,0-0.7-0.2c-0.1-0.2,0-0.6,0.2-0.7l189.1-104.9L186.7,362c-0.3,0.1-0.6,0-0.7-0.2c-0.1-0.3,0-0.6,0.2-0.7
				l182-98.1l-194.4,99c-0.3,0.1-0.6,0-0.7-0.2c-0.1-0.3,0-0.6,0.2-0.7l185.2-100.7L159,362c-0.3,0.1-0.6,0-0.7-0.2
				c-0.1-0.2,0-0.6,0.2-0.7l189.7-106.3L137.7,362c-0.3,0.1-0.6,0-0.7-0.2c-0.1-0.2,0-0.6,0.2-0.7l189.9-107L115.4,362
				c-0.3,0.1-0.6,0-0.7-0.2c-0.1-0.3,0-0.6,0.2-0.7l132.7-69.2L109.9,362c-0.3,0.1-0.6,0-0.7-0.2c-0.1-0.3,0-0.6,0.2-0.7L293,261.7
				L96,362.1c-0.3,0.1-0.6,0-0.7-0.2c-0.1-0.3,0-0.6,0.2-0.7l185.9-101.4L80.8,362.1c-0.3,0.1-0.6,0-0.7-0.2c-0.1-0.3,0-0.6,0.2-0.7
				l62.9-32.5l-65.5,33.4c-0.3,0.1-0.6,0-0.7-0.2c-0.1-0.3,0-0.6,0.2-0.7l185.9-101.3L62.4,362.1c-0.3,0.1-0.6,0-0.7-0.2
				s0-0.6,0.2-0.7l189.9-107.3L39.4,362.1c-0.3,0.1-0.6,0-0.7-0.2c-0.1-0.3,0-0.6,0.2-0.7l173.8-92.6L29.2,362.1
				c-0.3,0.1-0.6,0-0.7-0.2c-0.1-0.3,0-0.6,0.2-0.7l181.8-98.1l-194.3,99c-0.3,0.1-0.6,0-0.7-0.2c-0.1-0.3,0-0.6,0.2-0.7l181.4-97.8
				L3.5,362.1C3.5,362.1,3.4,362.1,3.3,362.1z"/>
		</g>
		<g>
			<path class="st0" d="M743,362.1c-0.2,0-0.4-0.1-0.5-0.3c-0.1-0.3,0-0.6,0.2-0.7l315.6-168.2l-78,39.7c-0.3,0.1-0.6,0-0.7-0.2
				c-0.1-0.3,0-0.6,0.2-0.7l53.7-28.2l-50.3,25.6c-0.3,0.1-0.6,0-0.7-0.2c-0.1-0.2-0.1-0.6,0.2-0.7l110.9-65.3l-104.7,53.4
				c-0.3,0.1-0.6,0-0.7-0.2c-0.1-0.2,0-0.6,0.2-0.7l102.5-59.1l-101.3,51.6c-0.3,0.1-0.6,0-0.7-0.2c-0.1-0.2-0.1-0.5,0.2-0.7
				l108.1-66.5l-107.6,54.8c-0.3,0.1-0.6,0-0.7-0.2c-0.1-0.2,0-0.6,0.2-0.7l102.6-59.5l-102.1,52c-0.3,0.1-0.6,0-0.7-0.2
				c-0.1-0.3,0-0.6,0.2-0.7l59.6-31.5l-59.1,30.1c-0.3,0.1-0.6,0-0.7-0.2c-0.1-0.3,0-0.6,0.2-0.7l119.1-60.7c0.3-0.1,0.6,0,0.7,0.2
				c0.1,0.3,0,0.6-0.2,0.7l-59.6,31.5l59.1-30.1c0.3-0.1,0.6,0,0.7,0.2s0,0.6-0.2,0.7l-102.6,59.5l102.1-52c0.2-0.1,0.6,0,0.7,0.2
				s0.1,0.5-0.2,0.7l-108.1,66.5l107.6-54.8c0.3-0.1,0.6,0,0.7,0.2s0,0.6-0.2,0.7l-102.5,59.1l102-52c0.3-0.1,0.6,0,0.7,0.2
				s0.1,0.6-0.2,0.7l-110.9,65.3l110.4-56.2c0.3-0.1,0.6,0,0.7,0.2c0.1,0.3,0,0.6-0.2,0.7l-53.6,28.2l53.2-27.1
				c0.3-0.1,0.6,0,0.7,0.2c0.1,0.3,0,0.6-0.2,0.7L793.1,335.5l315.1-160.6c0.3-0.1,0.6,0,0.7,0.2c0.1,0.3,0,0.6-0.2,0.7L809.3,335.3
				L1108.2,183c0.3-0.1,0.6,0,0.7,0.2c0.1,0.3,0,0.6-0.2,0.7L872,307.2l236.2-120.4c0.3-0.1,0.6,0,0.7,0.2c0.1,0.3,0,0.6-0.2,0.7
				L832.1,335l276.2-140.7c0.3-0.1,0.6,0,0.7,0.2c0.1,0.3,0,0.6-0.2,0.7L835.6,344l272.6-138.9c0.3-0.1,0.6,0,0.7,0.2
				c0.1,0.3,0,0.6-0.2,0.7L853.9,346l254.3-129.6c0.3-0.1,0.6,0,0.7,0.2c0.1,0.3,0,0.6-0.2,0.7L881.1,339.7L1108.2,224
				c0.3-0.1,0.6,0,0.7,0.2c0.1,0.3,0,0.6-0.2,0.7l-214,115.2l213.6-108.8c0.3-0.1,0.6,0,0.7,0.2c0.1,0.3,0,0.6-0.2,0.7l-200.6,108
				l200.1-102c0.3-0.1,0.6,0,0.7,0.2c0.1,0.3,0,0.6-0.2,0.7l-42.8,22.1l42.4-21.6c0.3-0.1,0.6,0,0.7,0.2s0,0.6-0.2,0.7L915.1,348.4
				l193.1-98.4c0.3-0.1,0.6,0,0.7,0.2s0,0.6-0.2,0.7l-175.2,98l174.7-89c0.3-0.1,0.6,0,0.7,0.2c0.1,0.3,0,0.6-0.2,0.7l-156.4,86.6
				l155.6-79.3c0.3-0.1,0.6,0,0.7,0.2c0.1,0.3,0,0.6-0.2,0.7l-121.7,64.7l120.9-61.6c0.3-0.1,0.6,0,0.7,0.2s0,0.6-0.2,0.7
				l-134.5,74.6l132.9-67.7c0.3-0.1,0.6,0,0.7,0.2c0.1,0.3,0,0.6-0.2,0.7l-107,57.3l105.6-53.8c0.3-0.1,0.6,0,0.7,0.2
				c0.1,0.3,0,0.6-0.2,0.7l-43.9,22.9l43-21.9c0.3-0.1,0.6,0,0.7,0.2s0,0.6-0.2,0.7l-112,63.9l108.5-55.3c0.3-0.1,0.6,0,0.7,0.2
				c0.1,0.3,0,0.6-0.2,0.7l-0.2,0.1c0,0,0,0.1,0.1,0.1c0.1,0.2,0,0.6-0.2,0.7l-93.6,53.4l89.4-45.5c0.2-0.1,0.5,0,0.7,0.2
				c0.1,0.2,0.1,0.5-0.2,0.7l-78.2,49.6l68-34.7c0.2-0.1,0.6,0,0.7,0.2s0.1,0.5-0.2,0.7l-51,31.5l39.7-20.2c0.3-0.1,0.6,0,0.7,0.2
				s0,0.6-0.2,0.7l-21.2,11.9l14.5-7.4c0.2-0.1,0.6,0,0.7,0.2s0.1,0.6-0.2,0.7l-12.1,7.3c0.2,0,0.4,0.1,0.5,0.3
				c0.1,0.3,0,0.6-0.2,0.7l-12,6.1c-0.3,0.1-0.6,0-0.7-0.2s-0.1-0.6,0.2-0.7l11.4-6.8l-23.8,12.1c-0.3,0.1-0.6,0-0.7-0.2
				s0-0.6,0.2-0.7l21.2-11.9l-28.7,14.6c-0.3,0.1-0.6,0-0.7-0.2s-0.1-0.5,0.2-0.7l51-31.5l-66.6,33.9c-0.2,0.1-0.5,0-0.7-0.2
				s-0.1-0.5,0.2-0.7l78.2-49.6L989.5,362c-0.3,0.1-0.6,0-0.7-0.2c-0.1-0.2,0-0.6,0.2-0.7l93.6-53.4L976.1,362
				c-0.3,0.1-0.6,0-0.7-0.2v-0.1l-0.7,0.3c-0.3,0.1-0.6,0-0.7-0.2c-0.1-0.2,0-0.6,0.2-0.7l112-63.9L958.9,362
				c-0.3,0.1-0.6,0-0.7-0.2c-0.1-0.3,0-0.6,0.2-0.7l43.9-22.9L955.7,362c-0.3,0.1-0.6,0-0.7-0.2s0-0.6,0.2-0.7l107-57.3L947.9,362
				c-0.3,0.1-0.6,0-0.7-0.2c-0.1-0.2,0-0.6,0.2-0.7l134.5-74.6L933.7,362c-0.3,0.1-0.6,0-0.7-0.2c-0.1-0.3,0-0.6,0.2-0.7l121.7-64.7
				L926.1,362c-0.3,0.1-0.6,0-0.7-0.2c-0.1-0.3,0-0.6,0.2-0.7l156.4-86.6L910.2,362c-0.3,0.1-0.6,0-0.7-0.2c-0.1-0.2,0-0.6,0.2-0.7
				l175.2-98L890.7,362c-0.3,0.1-0.6,0-0.7-0.2c-0.1-0.2,0-0.6,0.2-0.7l193.6-107.9L870.3,362c-0.3,0.1-0.6,0-0.7-0.2
				c-0.1-0.3,0-0.6,0.2-0.7l42.9-22.1l-45.2,23c-0.3,0.1-0.6,0-0.7-0.2c-0.1-0.3,0-0.6,0.2-0.7l200.6-108L853.9,362
				c-0.3,0.1-0.6,0-0.7-0.2c-0.1-0.3,0-0.6,0.2-0.7l214-115.2L839.6,362c-0.3,0.1-0.6,0-0.7-0.2s0-0.6,0.2-0.7l227.6-122.4
				L824.8,362c-0.3,0.1-0.6,0-0.7-0.2c-0.1-0.3,0-0.6,0.2-0.7l254.8-140L802.5,362c-0.3,0.1-0.6,0-0.7-0.2c-0.1-0.3,0-0.6,0.2-0.7
				l273.1-148.8L781.3,362c-0.3,0.1-0.6,0-0.7-0.2c-0.1-0.3,0-0.6,0.2-0.7l276.6-147.3L766.6,362c-0.3,0.1-0.6,0-0.7-0.2
				c-0.1-0.3,0-0.6,0.2-0.7l236.7-123.2L759.2,362c-0.3,0.1-0.6,0-0.7-0.2c-0.1-0.3,0-0.6,0.2-0.7l299.4-159.5L743.2,362
				C743.2,362.1,743.1,362.1,743,362.1z"/>
		</g>
		<g>
			<path class="st0" d="M555.8,657.7c-0.2,0-0.4-0.1-0.5-0.3c-0.1-0.3,0-0.6,0.2-0.7l291.8-160L556.1,645.2c-0.3,0.1-0.6,0-0.7-0.2
				c-0.1-0.3,0-0.6,0.2-0.7l267.1-145.1L556,635.1c-0.3,0.1-0.6,0-0.7-0.2c-0.1-0.3,0-0.6,0.2-0.7l249.4-135.9L556,625.1
				c-0.3,0.1-0.6,0-0.7-0.2c-0.1-0.3,0-0.6,0.2-0.7l231.6-126.5L556,615.5c-0.3,0.1-0.6,0-0.7-0.2c-0.1-0.3,0-0.6,0.2-0.7l0,0
				l141.8-73.7l-141.4,72c-0.3,0.1-0.6,0-0.7-0.2c-0.1-0.3,0-0.6,0.2-0.7l197.8-105.5L556,607c-0.3,0.1-0.6,0-0.7-0.2
				c-0.1-0.3,0-0.6,0.2-0.7l130-67.6l-129.6,66c-0.3,0.1-0.6,0-0.7-0.2c-0.1-0.2,0-0.6,0.2-0.7l197.1-110.5L542.2,600.4
				c-0.3,0.1-0.6,0-0.7-0.2c-0.1-0.3,0-0.6,0.2-0.7l67.2-34.7L539,600.4c-0.3,0.1-0.6,0-0.7-0.2c-0.1-0.3,0-0.6,0.2-0.7l189.3-105.4
				L519.2,600.4c-0.3,0.1-0.6,0-0.7-0.2c-0.1-0.3,0-0.6,0.2-0.7l171.1-91l-180.3,91.9c-0.3,0.1-0.6,0-0.7-0.2
				c-0.1-0.3,0-0.6,0.2-0.7l0,0l131.1-68.4l-136,69.3c-0.3,0.1-0.6,0-0.7-0.2s0-0.6,0.2-0.7l189.9-107.6l-213,108.5
				c-0.3,0.1-0.6,0-0.7-0.2c-0.1-0.3,0-0.6,0.2-0.7l187.3-102.7L464,600.4c-0.3,0.1-0.6,0-0.7-0.2s0-0.6,0.2-0.7l189.9-107
				l-211.9,108c-0.3,0.1-0.6,0-0.7-0.2c-0.1-0.3,0-0.6,0.2-0.7l186.6-102l-202,102.9c-0.3,0.1-0.6,0-0.7-0.2c-0.1-0.3,0-0.6,0.2-0.7
				L601.7,505l-187.1,95.3c-0.3,0.1-0.6,0-0.7-0.2c-0.1-0.3,0-0.6,0.2-0.7l186.5-101.9L398.7,600.4c-0.3,0.1-0.6,0-0.7-0.2
				s0-0.6,0.2-0.7l189.8-108L374.4,600.4c-0.3,0.1-0.6,0-0.7-0.2c-0.1-0.3,0-0.6,0.2-0.7l188.6-104.2L356.2,600.4l0,0l0,0
				c-0.3,0.1-0.6,0-0.7-0.2c-0.1-0.3,0-0.6,0.2-0.7l10.4-5.3l-12.3,6.3c-0.3,0.1-0.6,0-0.7-0.2c-0.1-0.3,0-0.6,0.2-0.7l148.4-77.8
				l-154.6,78.7c-0.3,0.1-0.6,0-0.7-0.2c-0.1-0.3,0-0.6,0.2-0.7l189.3-105.4L327.4,600.4c-0.3,0.1-0.6,0-0.7-0.2
				c-0.1-0.3,0-0.6,0.2-0.7l177.6-95.1l-188.4,96c-0.3,0.1-0.6,0-0.7-0.2s0-0.6,0.2-0.7l189.9-107.9L291.9,600.4
				c-0.3,0.1-0.6,0-0.7-0.2c-0.1-0.3,0-0.6,0.2-0.7l157.4-82.9l-164.4,83.8c-0.3,0.1-0.6,0-0.7-0.2c-0.1-0.3,0-0.6,0.2-0.7l0,0
				l106.2-55.1l-109.9,56c-0.3,0.1-0.6,0-0.7-0.2c-0.1-0.3,0-0.6,0.2-0.7l177.2-94.9l-188,95.8c-0.3,0.1-0.6,0-0.7-0.2
				c-0.1-0.3,0-0.6,0.2-0.7l179.8-96.6l-191.4,97.5c-0.3,0.1-0.6,0-0.7-0.2c-0.1-0.3,0-0.6,0.2-0.7L445,495.1L238.4,600.4
				c-0.3,0.1-0.6,0-0.7-0.2c-0.1-0.3,0-0.6,0.2-0.7L418,502.7l-191.8,97.7c-0.3,0.1-0.6,0-0.7-0.2c-0.1-0.2,0-0.6,0.2-0.7
				l189.9-107.6L202.7,600.4c-0.3,0.1-0.6,0-0.7-0.2c-0.1-0.3,0-0.6,0.2-0.7l187.7-103.2L185.7,600.4c-0.3,0.1-0.6,0-0.7-0.2
				c-0.1-0.3,0-0.6,0.2-0.7l181.3-97.7l-193.6,98.6l0,0l0,0c-0.3,0.1-0.6,0-0.7-0.2c0-0.1,0-0.1-0.1-0.2l-0.8,0.4
				c-0.3,0.1-0.6,0-0.7-0.2c-0.1-0.3,0-0.6,0.2-0.7L356.9,498L156,600.4c-0.3,0.1-0.6,0-0.7-0.2c-0.1-0.2,0-0.6,0.2-0.7L345.3,493
				L134.4,600.4c-0.3,0.1-0.6,0-0.7-0.2c-0.1-0.2,0-0.6,0.2-0.7l189.9-107.7L122.6,594.4c-0.3,0.1-0.6,0-0.7-0.2
				c-0.1-0.2,0-0.6,0.2-0.7l179.2-101.3l-178.8,91.1c-0.3,0.1-0.6,0-0.7-0.2c-0.1-0.3,0-0.6,0.2-0.7l149.7-80.7l-149.3,76
				c-0.3,0.1-0.6,0-0.7-0.2c-0.1-0.3,0-0.6,0.2-0.7l115.8-61l-115.4,58.8c-0.3,0.1-0.6,0-0.7-0.2c-0.1-0.3,0-0.6,0.2-0.7l142.7-79.5
				l-142.2,72.5c-0.3,0.1-0.6,0-0.7-0.2s0-0.6,0.2-0.7l130.6-75.4l-130.1,66.3c-0.3,0.1-0.6,0-0.7-0.2c-0.1-0.2,0-0.6,0.2-0.7
				L235,490.3l-112.7,57.4c-0.3,0.1-0.6,0-0.7-0.2c-0.1-0.2,0-0.6,0.2-0.7l97.9-57.2l-97.4,49.6c-0.2,0.1-0.6,0-0.7-0.2
				c-0.1-0.2-0.1-0.6,0.2-0.7l83.1-51l-82.6,42.1c-0.3,0.1-0.6,0-0.7-0.2c-0.1-0.3,0-0.6,0.2-0.7l38.6-20.5l-38.1,19.4
				c-0.3,0.1-0.6,0-0.7-0.2c-0.1-0.2,0-0.6,0.2-0.7l60.6-34.3l-60.1,30.6c-0.2,0.1-0.5,0-0.7-0.2c-0.1-0.2-0.1-0.5,0.2-0.7
				l55.3-36.1l-54.8,27.9c-0.2,0.1-0.5,0-0.7-0.2c-0.1-0.2-0.1-0.5,0.1-0.7l35.7-29.3l-35.1,17.9c-0.3,0.1-0.6,0-0.7-0.2
				c-0.1-0.2-0.1-0.4,0-0.6c-0.1-0.2-0.1-0.4,0-0.6l13.6-17.6l-13,6.6c-0.2,0.1-0.4,0.1-0.5,0c-0.2-0.1-0.2-0.3-0.2-0.5l0.5-6.8
				c-0.2,0-0.4-0.1-0.5-0.3c-0.1-0.3,0-0.6,0.2-0.7l0.6-0.3c0.2-0.1,0.4-0.1,0.5,0c0.2,0.1,0.2,0.3,0.2,0.5l-0.5,6.8l14.3-7.3
				c0.2-0.1,0.5-0.1,0.6,0.1c0.2,0.2,0.2,0.5,0,0.6l-13.6,17.6l36.1-18.4c0.3-0.1,0.6,0,0.7,0.2l0,0l0.5-0.3c0.2-0.1,0.5,0,0.7,0.2
				c0.1,0.2,0.1,0.5-0.1,0.7L126,510.4l59.1-30.1c0.2-0.1,0.5,0,0.7,0.2c0.1,0.2,0.1,0.5-0.2,0.7l-55.3,36.1l72.6-37
				c0.3-0.1,0.6,0,0.7,0.2c0.1,0.2,0,0.6-0.2,0.7l-60.6,34.3l69.1-35.2c0.3-0.1,0.6,0,0.7,0.2c0.1,0.3,0,0.6-0.2,0.7l-38.6,20.5
				l42.1-21.5c0.2-0.1,0.6,0,0.7,0.2s0.1,0.6-0.2,0.7l-83.1,51l101.9-51.9c0.3-0.1,0.6,0,0.7,0.2c0.1,0.2,0,0.6-0.2,0.7l-97.9,57.2
				l114-58.1c0.3-0.1,0.6,0,0.7,0.2s0,0.6-0.2,0.7l-113.2,65.5l130.4-66.4c0.3-0.1,0.6,0,0.7,0.2s0,0.6-0.2,0.7l-130.6,75.4
				l149.9-76.4c0.3-0.1,0.6,0,0.7,0.2s0,0.6-0.2,0.7l-142.7,79.5l157.7-80.4c0.3-0.1,0.6,0,0.7,0.2c0.1,0.3,0,0.6-0.2,0.7l-115.8,61
				l121.6-61.9c0.3-0.1,0.6,0,0.7,0.2c0.1,0.3,0,0.6-0.2,0.7L162,562l160.2-81.6c0.3-0.1,0.6,0,0.7,0.2s0,0.6-0.2,0.7L143.5,582.6
				l200.6-102.2c0.3-0.1,0.6,0,0.7,0.2s0,0.6-0.2,0.7L154.7,588.9l213.1-108.6c0.3-0.1,0.6,0,0.7,0.2s0,0.6-0.2,0.7L178.5,587.8
				l210.9-107.4c0.3-0.1,0.6,0,0.7,0.2c0.1,0.3,0,0.6-0.2,0.7L203.7,582.8l201.1-102.5l0,0l0,0c0.3-0.1,0.6,0,0.7,0.2
				c0,0.1,0,0.1,0.1,0.2l0.8-0.4c0.3-0.1,0.6,0,0.7,0.2c0.1,0.3,0,0.6-0.2,0.7L225.5,579l193.6-98.6c0.3-0.1,0.6,0,0.7,0.2
				c0.1,0.3,0,0.6-0.2,0.7L231.8,584.4L436,480.3c0.3-0.1,0.6,0,0.7,0.2s0,0.6-0.2,0.7L246.7,588.8l212.9-108.5
				c0.3-0.1,0.6,0,0.7,0.2s0,0.6-0.2,0.7L280,578l191.8-97.7c0.3-0.1,0.6,0,0.7,0.2s0,0.6-0.2,0.7L283.6,585.6l206.6-105.3
				c0.3-0.1,0.6,0,0.7,0.2c0.1,0.3,0,0.6-0.2,0.7l-179.8,96.6l191.4-97.5c0.3-0.1,0.6,0,0.7,0.2c0.1,0.3,0,0.6-0.2,0.7l-177.3,94.9
				l188-95.8l0,0l0,0c0.3-0.1,0.6,0,0.7,0.2c0.1,0.3,0,0.6-0.2,0.7l-106.1,55.1l109.9-56c0.3-0.1,0.6,0,0.7,0.2
				c0.1,0.3,0,0.6-0.2,0.7l0,0l-157.4,82.9l164.4-83.8c0.3-0.1,0.6,0,0.7,0.2c0.1,0.2,0,0.6-0.2,0.7L335.9,589.1l213.6-108.8
				c0.3-0.1,0.6,0,0.7,0.2s0,0.6-0.2,0.7l-177.6,95.1l188.4-96c0.3-0.1,0.6,0,0.7,0.2c0.1,0.2,0,0.6-0.2,0.7L371.9,586.6
				l208.6-106.3c0.3-0.1,0.6,0,0.7,0.2c0.1,0.3,0,0.6-0.2,0.7L432.6,559l154.6-78.8c0.3-0.1,0.6,0,0.7,0.2c0.1,0.3,0,0.6-0.2,0.7
				l-10.3,5.3l12.2-6.2c0.3-0.1,0.6,0,0.7,0.2c0.1,0.2,0,0.6-0.2,0.7L401.4,585.5l206.3-105.1c0.3-0.1,0.6,0,0.7,0.2
				c0.1,0.2,0,0.6-0.2,0.7l-189.8,108l213.7-108.9c0.3-0.1,0.6,0,0.7,0.2c0.1,0.3,0,0.6-0.2,0.7L446.1,583.2l201.8-102.9
				c0.3-0.1,0.6,0,0.7,0.2c0.1,0.3,0,0.6-0.2,0.7l-176.6,94.4l187.1-95.3c0.3-0.1,0.6,0,0.7,0.2c0.1,0.3,0,0.6-0.2,0.7l-186.6,102
				l202-102.9c0.3-0.1,0.6,0,0.7,0.2c0.1,0.2,0,0.6-0.2,0.7l-189.9,107l211.9-108c0.3-0.1,0.6,0,0.7,0.2c0.1,0.3,0,0.6-0.2,0.7
				L510.5,584l203.4-103.7c0.3-0.1,0.6,0,0.7,0.2c0.1,0.2,0,0.6-0.2,0.7L524.5,588.9l213-108.5c0.3-0.1,0.6,0,0.7,0.2
				c0.1,0.3,0,0.6-0.2,0.7l-131.2,68.4l136.1-69.4c0.3-0.1,0.6,0,0.7,0.2c0.1,0.3,0,0.6-0.2,0.7l-171.1,91l180.3-91.9
				c0.3-0.1,0.6,0,0.7,0.2c0.1,0.2,0,0.6-0.2,0.7L563.7,586.6l208.6-106.3c0.3-0.1,0.6,0,0.7,0.2c0.1,0.3,0,0.6-0.2,0.7l-67.2,34.7
				l69.9-35.6c0.3-0.1,0.6,0,0.7,0.2c0.1,0.2,0,0.6-0.2,0.7L578.9,591.7l218.6-111.4c0.3-0.1,0.6,0,0.7,0.2c0.1,0.3,0,0.6-0.2,0.7
				l-130,67.6l134.5-68.5c0.3-0.1,0.6,0,0.7,0.2s0,0.6-0.2,0.7L605.1,586.7l208.8-106.4c0.3-0.1,0.6,0,0.7,0.2
				c0.1,0.3,0,0.6-0.2,0.7l0,0l-141.8,73.7L819,480.3c0.3-0.1,0.6,0,0.7,0.2c0.1,0.3,0,0.6-0.2,0.7L587.9,607.7l250-127.4
				c0.3-0.1,0.6,0,0.7,0.2c0.1,0.3,0,0.6-0.2,0.7L589.1,617l268.3-136.7c0.3-0.1,0.6,0,0.7,0.2c0.1,0.3,0,0.6-0.2,0.7L590.8,626.3
				l286.5-146c0.3-0.1,0.6,0,0.7,0.2c0.1,0.3,0,0.6-0.2,0.7L586,641.2l315.9-160.9c0.3-0.1,0.6,0,0.7,0.2c0.1,0.3,0,0.6-0.2,0.7
				l-165.5,87.6l173.6-88.5c0.3-0.1,0.6,0,0.7,0.2c0.1,0.3,0,0.6-0.2,0.7l0,0l-89.5,46.3l92.8-47.3c0.3-0.1,0.6,0,0.7,0.2
				c0.1,0.3,0,0.6-0.2,0.7l-164.9,87.2l173-88.1l0,0l0,0c0.3-0.1,0.6,0,0.7,0.2c0.1,0.3,0,0.6-0.2,0.7l0,0l-103.5,53.7l107-54.5
				c0.3-0.1,0.6,0,0.7,0.2c0.1,0.3,0,0.6-0.2,0.7l-181.1,97.5l193.2-98.4c0.3-0.1,0.6,0,0.7,0.2c0.1,0.3,0,0.6-0.2,0.7l-117.1,60.9
				l121.3-61.8c0.3-0.1,0.6,0,0.7,0.2c0.1,0.2,0,0.6-0.2,0.7L754.9,587.5l210.4-107.2c0.3-0.1,0.6,0,0.7,0.2c0.1,0.2,0,0.6-0.2,0.7
				l-190,107.6l212.9-108.5c0.3-0.1,0.6,0,0.7,0.2c0.1,0.3,0,0.6-0.2,0.7l-172.7,91.9l182.2-92.8c0.3-0.1,0.6,0,0.7,0.2
				c0.1,0.2,0,0.6-0.2,0.7l-189.9,108L1023,480.3c0.3-0.1,0.6,0,0.7,0.2c0.1,0.3,0,0.6-0.2,0.7l-155,81.5l161.8-82.4
				c0.3-0.1,0.6,0,0.7,0.2c0.1,0.3,0,0.6-0.2,0.7l0,0l-143.5,75.1l149.3-76c0.3-0.1,0.6,0,0.7,0.2c0.1,0.3,0,0.6-0.2,0.7L854.2,580
				l195.8-99.7c0.3-0.1,0.6,0,0.7,0.2c0.1,0.3,0,0.6-0.2,0.7l-178.1,95.4l189.1-96.4c0.3-0.1,0.6,0,0.7,0.2c0.1,0.3,0,0.6-0.2,0.7
				l-85.5,44.3l88.7-45.2c0.3-0.1,0.6,0,0.7,0.2s0,0.6-0.2,0.7L875.6,588.6l212.5-108.3c0.3-0.1,0.6,0,0.7,0.2
				c0.1,0.3,0,0.6-0.2,0.7l-171.7,91.3l180.9-92.2c0.3-0.1,0.6,0,0.7,0.2c0.1,0.3,0,0.6-0.2,0.7l-119.1,61.9l123.4-62.9
				c0.3-0.1,0.6,0,0.7,0.2c0.1,0.3,0,0.6-0.2,0.7l-4.1,2.1l6-3c0.3-0.1,0.6,0,0.7,0.2s0,0.6-0.2,0.7l-189.9,107l192.7-98.2
				c0.3-0.1,0.6,0,0.7,0.2s0,0.6-0.2,0.7l-172.9,97.5l172.3-87.8c0.3-0.1,0.6,0,0.7,0.2c0.1,0.3,0,0.6-0.2,0.7l0,0l-114.5,60.2
				l114-58.1c0.3-0.1,0.6,0,0.7,0.2c0.1,0.3,0,0.6-0.2,0.7l-28.1,14.5l27.6-14.1c0.3-0.1,0.6,0,0.7,0.2s0,0.6-0.2,0.7l-145.6,81.4
				l145.1-74c0.3-0.1,0.6,0,0.7,0.2s0,0.6-0.2,0.7l-132.1,76.6l131.6-67c0.3-0.1,0.6,0,0.7,0.2c0.1,0.3,0,0.6-0.2,0.7l0,0l-4,2.1
				l3.5-1.8c0.3-0.1,0.6,0,0.7,0.2c0.1,0.3,0,0.6-0.2,0.7l-86.3,45.8l85.8-43.7c0.3-0.1,0.6,0,0.7,0.2c0.1,0.3,0,0.6-0.2,0.7
				l-96.7,52.5l96.2-49c0.3-0.1,0.6,0,0.7,0.2s0,0.6-0.2,0.7l-99,57.1l98.5-50.2c0.2-0.1,0.6,0,0.7,0.2s0.1,0.5-0.2,0.7l-85,52.7
				l84.5-43.1c0.2-0.1,0.5,0,0.7,0.2c0.1,0.2,0.1,0.5-0.2,0.7l-65.4,43.9l64.8-33c0.3-0.1,0.6,0,0.7,0.2s0.1,0.6-0.2,0.7l-48.2,28.5
				l47.7-24.3c0.2-0.1,0.5,0,0.7,0.2c0.1,0.2,0.1,0.5-0.1,0.7l-36.1,28.7l35.5-18.1c0.3-0.1,0.6,0,0.7,0.2c0.1,0.1,0.1,0.3,0,0.4
				c0.1,0.2,0,0.5-0.2,0.6l-15.1,8.6l14.6-7.4c0.2-0.1,0.5,0,0.7,0.2c0.1,0.2,0.1,0.5-0.2,0.7l-19.7,13l19.2-9.8
				c0.3-0.1,0.6,0,0.7,0.2s0,0.6-0.2,0.7l-4.2,2.4l3.7-1.9c0.2-0.1,0.4-0.1,0.5,0c0.2,0.1,0.2,0.3,0.2,0.5l-0.5,11.8
				c0.2,0,0.4,0.1,0.5,0.3c0.1,0.3,0,0.6-0.2,0.7l-0.6,0.3c-0.2,0.1-0.4,0.1-0.5,0c-0.2-0.1-0.2-0.3-0.2-0.5l0.5-11.7l-23.9,12.2
				c-0.3,0.1-0.6,0-0.7-0.2s0-0.6,0.2-0.7l4.2-2.4l-6.4,3.3c-0.2,0.1-0.5,0-0.7-0.2c-0.1-0.2-0.1-0.5,0.2-0.7l19.7-13l-27.3,13.9
				c-0.3,0.1-0.6,0-0.7-0.2s0-0.6,0.2-0.7l15.1-8.6l-18.6,9.5c-0.2,0.1-0.4,0.1-0.5,0l0,0c-0.2,0.1-0.5,0-0.7-0.2
				c-0.1-0.2-0.1-0.5,0.1-0.7l36.1-28.7l-58,29.6c-0.3,0.1-0.6,0-0.7-0.2s-0.1-0.6,0.2-0.7l48.2-28.5l-57.7,29.4
				c-0.2,0.1-0.5,0-0.7-0.2c-0.1-0.2-0.1-0.5,0.2-0.7l65.4-43.9l-87.8,44.7c-0.3,0.1-0.6,0-0.7-0.2c-0.1-0.2-0.1-0.5,0.2-0.7
				l85-52.7l-105.2,53.6c-0.3,0.1-0.6,0-0.7-0.2c-0.1-0.2,0-0.6,0.2-0.7l99-57.1l-113.9,58c-0.3,0.1-0.6,0-0.7-0.2
				c-0.1-0.3,0-0.6,0.2-0.7l96.7-52.5l-104.8,53.4c-0.3,0.1-0.6,0-0.7-0.2c-0.1-0.3,0-0.6,0.2-0.7l0,0l86.3-45.8l-91.8,46.8
				c-0.3,0.1-0.6,0-0.7-0.2c-0.1-0.3,0-0.6,0.2-0.7l0,0l4-2.1l-5.8,3c-0.3,0.1-0.6,0-0.7-0.2c-0.1-0.2,0-0.6,0.2-0.7l132.1-76.6
				l-152.2,77.5c-0.3,0.1-0.6,0-0.7-0.2c-0.1-0.2,0-0.6,0.2-0.7l145.6-81.4l-161.6,82.3c-0.3,0.1-0.6,0-0.7-0.2
				c-0.1-0.3,0-0.6,0.2-0.7l0,0l28.1-14.5l-30.3,15.5c-0.3,0.1-0.6,0-0.7-0.2c-0.1-0.3,0-0.6,0.2-0.7l0,0l114.5-60.1l-119.9,61.1
				c-0.3,0.1-0.6,0-0.7-0.2c-0.1-0.2,0-0.6,0.2-0.7l172.8-97.4l-193,98.4c-0.3,0.1-0.6,0-0.7-0.2c-0.1-0.2,0-0.6,0.2-0.7l189.9-107
				L871.5,600.4c-0.3,0.1-0.6,0-0.7-0.2c-0.1-0.3,0-0.6,0.2-0.7l0,0l4.2-2.1l-6,3.1c-0.3,0.1-0.6,0-0.7-0.2c-0.1-0.3,0-0.6,0.2-0.7
				l0,0l119.1-61.9l-123.4,62.9c-0.3,0.1-0.6,0-0.7-0.2c-0.1-0.3,0-0.6,0.2-0.7l171.7-91.3l-180.9,92.2c-0.3,0.1-0.6,0-0.7-0.2
				c-0.1-0.2,0-0.6,0.2-0.7l189.9-107.4L831.6,600.4c-0.3,0.1-0.6,0-0.7-0.2c-0.1-0.3,0-0.6,0.2-0.7l85.4-44.2l-88.6,45.1
				c-0.3,0.1-0.6,0-0.7-0.2c-0.1-0.3,0-0.6,0.2-0.7l178.1-95.5l-189.1,96.4c-0.3,0.1-0.6,0-0.7-0.2c-0.1-0.3,0-0.6,0.2-0.7
				l182.9-98.8L803,600.4c-0.3,0.1-0.6,0-0.7-0.2c-0.1-0.3,0-0.6,0.2-0.7L946,524.4l-149.2,76c-0.3,0.1-0.6,0-0.7-0.2
				c-0.1-0.3,0-0.6,0.2-0.7l155-81.5l-161.8,82.4c-0.3,0.1-0.6,0-0.7-0.2c-0.1-0.2,0-0.6,0.2-0.7l189.9-108L765.3,600.4
				c-0.3,0.1-0.6,0-0.7-0.2c-0.1-0.3,0-0.6,0.2-0.7l172.7-91.9l-182.2,92.8c-0.3,0.1-0.6,0-0.7-0.2c-0.1-0.2,0-0.6,0.2-0.7
				l189.9-107.6L731.9,600.4c-0.3,0.1-0.6,0-0.7-0.2c-0.1-0.2,0-0.6,0.2-0.7l189.8-106.3L710.7,600.4c-0.3,0.1-0.6,0-0.7-0.2
				c-0.1-0.3,0-0.6,0.2-0.7l117.1-60.9L706,600.4c-0.3,0.1-0.6,0-0.7-0.2c-0.1-0.3,0-0.6,0.2-0.7L886.7,502l-193.2,98.4
				c-0.3,0.1-0.6,0-0.7-0.2c-0.1-0.3,0-0.6,0.2-0.7l103.5-53.7l-107.1,54.6c-0.3,0.1-0.6,0-0.7-0.2c-0.1-0.3,0-0.6,0.2-0.7
				l164.9-87.2l-173,88.1c-0.3,0.1-0.6,0-0.7-0.2c-0.1-0.3,0-0.6,0.2-0.7l0,0l89.5-46.4L677,600.4c-0.3,0.1-0.6,0-0.7-0.2
				c-0.1-0.3,0-0.6,0.2-0.7L842.1,512l-286,145.7C556,657.7,555.9,657.7,555.8,657.7z"/>
		</g>
		<g>
			<path class="st0" d="M17.9,838.5c-0.2,0-0.4-0.1-0.5-0.3s0-0.6,0.2-0.7L206,733L3.4,836.2c-0.3,0.1-0.6,0-0.7-0.2
				c-0.1-0.3,0-0.6,0.2-0.7L153.8,756L3.4,832.6c-0.3,0.1-0.6,0-0.7-0.2c-0.1-0.2,0-0.6,0.2-0.7l178.9-101.1L3.4,821.5
				c-0.3,0.1-0.6,0-0.7-0.2c-0.1-0.3,0-0.6,0.2-0.7l156.7-86.3L3.4,813.9c-0.3,0.1-0.6,0-0.7-0.2c-0.1-0.3,0-0.6,0.2-0.7l120.8-64
				L3.4,810.3c-0.3,0.1-0.6,0-0.7-0.2c-0.1-0.2,0-0.6,0.2-0.7l139.8-81.2l-139.3,71c-0.3,0.1-0.6,0-0.7-0.2c-0.1-0.3,0-0.6,0.2-0.7
				l98.3-52.3L3.4,795.8c-0.3,0.1-0.6,0-0.7-0.2c-0.1-0.3,0-0.6,0.2-0.7l110.9-61.3L3.4,789.8c-0.3,0.1-0.6,0-0.7-0.2
				c-0.1-0.3,0-0.6,0.2-0.7l48.7-25.5L3.4,788c-0.2,0.1-0.6,0-0.7-0.2c-0.1-0.2-0.1-0.6,0.2-0.7l101-60.7L3.4,777.7
				c-0.2,0.1-0.5,0-0.7-0.2c-0.1-0.2-0.1-0.5,0.2-0.7l82-52.3L3.4,766c-0.2,0.1-0.5,0-0.7-0.2c-0.1-0.2-0.1-0.5,0.2-0.7l62.5-41.3
				l-62,31.6c-0.2,0.1-0.6,0-0.7-0.2c-0.1-0.2-0.1-0.5,0.2-0.7L50,725L3.4,748.8c-0.2,0.1-0.5,0-0.7-0.2c-0.1-0.2-0.1-0.5,0.1-0.7
				l34.4-25.3L3.3,739.9c-0.2,0.1-0.5,0.1-0.6-0.1s-0.1-0.5,0-0.7l16.8-18l-16.2,8.3c-0.2,0.1-0.6,0-0.7-0.2
				c-0.1-0.2-0.1-0.5,0.2-0.7l5-3.1l-4.5,2.3c-0.2,0.1-0.4,0.1-0.5,0c-0.2-0.1-0.2-0.3-0.2-0.5l0.5-7.1c-0.2,0-0.4-0.1-0.5-0.3
				c-0.1-0.3,0-0.6,0.2-0.7l0.6-0.3c0.2-0.1,0.4-0.1,0.5,0c0.2,0.1,0.2,0.3,0.2,0.5l-0.5,7l14.7-7.5c0.2-0.1,0.6,0,0.7,0.2
				s0.1,0.5-0.2,0.7l-5,3.1l7.8-4c0.2-0.1,0.5-0.1,0.6,0.1c0.2,0.2,0.1,0.5,0,0.7l-16.8,18l37-18.8c0.2-0.1,0.5,0,0.7,0.2
				c0.1,0.2,0.1,0.5-0.1,0.7L8.6,745L60,718.8c0.2-0.1,0.6,0,0.7,0.2s0.1,0.5-0.2,0.7l-47.1,29.5l59.8-30.4c0.2-0.1,0.5,0,0.7,0.2
				c0.1,0.2,0.1,0.5-0.2,0.7L11.2,761L94,718.8c0.2-0.1,0.5,0,0.7,0.2c0.1,0.2,0.1,0.5-0.2,0.7l-82,52.3l104.3-53.2
				c0.2-0.1,0.6,0,0.7,0.2s0.1,0.6-0.2,0.7l-101,60.5l120.8-61.5c0.3-0.1,0.6,0,0.7,0.2c0.1,0.3,0,0.6-0.2,0.7l-48.7,25.5l51.8-26.4
				c0.3-0.1,0.6,0,0.7,0.2c0.1,0.3,0,0.6-0.2,0.7L30.3,780.9l122.1-62.2c0.3-0.1,0.6,0,0.7,0.2c0.1,0.3,0,0.6-0.2,0.7l-98.3,52.3
				l104.5-53.2c0.3-0.1,0.6,0,0.7,0.2c0.1,0.2,0,0.6-0.2,0.7L19.7,800.8l161.2-82.1c0.3-0.1,0.6,0,0.7,0.2c0.1,0.3,0,0.6-0.2,0.7
				l-120.8,64l127.5-65c0.3-0.1,0.6,0,0.7,0.2c0.1,0.3,0,0.6-0.2,0.7L31.7,805.9l171.2-87.2c0.3-0.1,0.6,0,0.7,0.2
				c0.1,0.2,0,0.6-0.2,0.7L24.5,820.7l200.1-102c0.3-0.1,0.6,0,0.7,0.2c0.1,0.3,0,0.6-0.2,0.7L74.3,798.9l157.5-80.3
				c0.3-0.1,0.6,0,0.7,0.2c0.1,0.2,0,0.6-0.2,0.7L43.8,824.1l207-105.5c0.3-0.1,0.6,0,0.7,0.2c0.1,0.3,0,0.6-0.2,0.7L65.5,821
				l200.9-102.4c0.3-0.1,0.6,0,0.7,0.2c0.1,0.3,0,0.6-0.2,0.7l-125,65.1l129.5-66c0.3-0.1,0.6,0,0.7,0.2c0.1,0.3,0,0.6-0.2,0.7
				L92.6,816l191-97.3c0.3-0.1,0.6,0,0.7,0.2s0,0.6-0.2,0.7L95.3,824.7l208.2-106.1c0.3-0.1,0.6,0,0.7,0.2c0.1,0.3,0,0.6-0.2,0.7
				l-165,87.3l173.1-88.2c0.3-0.1,0.6,0,0.7,0.2s0,0.6-0.2,0.7L123.3,826.2l211.1-107.6c0.3-0.1,0.6,0,0.7,0.2
				c0,0.1,0.1,0.1,0.1,0.2l0.8-0.4c0.3-0.1,0.6,0,0.7,0.2s0,0.6-0.2,0.7L147.2,826.3l211.3-107.6c0.3-0.1,0.6,0,0.7,0.2
				c0.1,0.3,0,0.6-0.2,0.7L172,822.4l203.5-103.7c0.3-0.1,0.6,0,0.7,0.2c0.1,0.3,0,0.6-0.2,0.7l-122.8,63.9l127.2-64.8
				c0.3-0.1,0.6,0,0.7,0.2s0,0.6-0.2,0.7l-189,105.8l209.3-106.7c0.3-0.1,0.6,0,0.7,0.2c0.1,0.3,0,0.6-0.2,0.7l-173.6,92.5
				l183.4-93.5c0.3-0.1,0.6,0,0.7,0.2s0,0.6-0.2,0.7l-189.1,106l209.7-106.8c0.3-0.1,0.6,0,0.7,0.2c0.1,0.3,0,0.6-0.2,0.7
				l-170.8,90.8l180-91.7c0.3-0.1,0.6,0,0.7,0.2c0.1,0.3,0,0.6-0.2,0.7L256,822l202.9-103.3c0.3-0.1,0.6,0,0.7,0.2
				c0.1,0.3,0,0.6-0.2,0.7l-164.1,86.8l172.1-87.7c0.3-0.1,0.6,0,0.7,0.2c0.1,0.3,0,0.6-0.2,0.7L280.3,823l204.6-104.3
				c0.3-0.1,0.6,0,0.7,0.2s0,0.6-0.2,0.7l0,0l-102.3,53.1l105.9-54c0.3-0.1,0.6,0,0.7,0.2s0,0.6-0.2,0.7L301.4,823.7l206.2-105.1
				c0.3-0.1,0.6,0,0.7,0.2c0.1,0.3,0,0.6-0.2,0.7l-181,97.6l193.3-98.5c0.3-0.1,0.6,0,0.7,0.2c0.1,0.3,0,0.6-0.2,0.7l-178.2,95.6
				l189.4-96.5c0.3-0.1,0.6,0,0.7,0.2c0.1,0.3,0,0.6-0.2,0.7L470,751.8l65.3-33.3l0,0l0,0c0.2-0.1,0.5,0,0.7,0.2l0.3-0.2
				c0.3-0.1,0.6,0,0.7,0.2c0.1,0.2,0,0.6-0.2,0.7L348.4,823.9L555,718.6c0.3-0.1,0.6,0,0.7,0.2c0.1,0.3,0,0.6-0.2,0.7L322.3,838.4
				c-0.3,0.1-0.6,0-0.7-0.2s0-0.6,0.2-0.7l188.3-104.4L303.5,838.4c-0.2,0.1-0.5,0-0.7-0.2l-0.3,0.2c-0.3,0.1-0.6,0-0.7-0.2
				c-0.1-0.3,0-0.6,0.2-0.7l62.6-32.3l-65.3,33.3c-0.3,0.1-0.6,0-0.7-0.2c-0.1-0.3,0-0.6,0.2-0.7L477,742l-189.4,96.5
				c-0.3,0.1-0.6,0-0.7-0.2c-0.1-0.3,0-0.6,0.2-0.7l181-97.6l-193.2,98.4c-0.3,0.1-0.6,0-0.7-0.2s0-0.6,0.2-0.7l188.2-104.2
				L256.4,838.4c-0.3,0.1-0.6,0-0.7-0.2c-0.1-0.3,0-0.6,0.2-0.7l102.2-53l-105.9,53.9c-0.3,0.1-0.6,0-0.7-0.2
				c-0.1-0.3,0-0.6,0.2-0.7l187.6-103.4L234.7,838.4c-0.3,0.1-0.6,0-0.7-0.2c-0.1-0.3,0-0.6,0.2-0.7l164.1-86.8l-172.1,87.7
				c-0.3,0.1-0.6,0-0.7-0.2c-0.1-0.3,0-0.6,0.2-0.7L412.4,735L209.6,838.4c-0.3,0.1-0.6,0-0.7-0.2c-0.1-0.3,0-0.6,0.2-0.7
				l170.8-90.8l-180,91.7c-0.3,0.1-0.6,0-0.7-0.2c-0.1-0.2,0-0.6,0.2-0.7l189.1-105.9L178.8,838.4c-0.3,0.1-0.6,0-0.7-0.2
				c-0.1-0.3,0-0.6,0.2-0.7l173.6-92.6l-183.4,93.5c-0.3,0.1-0.6,0-0.7-0.2c-0.1-0.2,0-0.6,0.2-0.7l189-105.8L147.7,838.4
				c-0.3,0.1-0.6,0-0.7-0.2c-0.1-0.3,0-0.6,0.2-0.7l122.7-63.9l-127.2,64.8c-0.3,0.1-0.6,0-0.7-0.2c-0.1-0.3,0-0.6,0.2-0.7
				l187-102.8L125.8,838.4c-0.3,0.1-0.6,0-0.7-0.2c-0.1-0.2,0-0.6,0.2-0.7l189.3-106.7L103.3,838.4c-0.3,0.1-0.6,0-0.7-0.2
				c0-0.1-0.1-0.1-0.1-0.2l-0.8,0.4c-0.3,0.1-0.6,0-0.7-0.2s0-0.6,0.2-0.7l189.3-106.6L79.4,838.4c-0.3,0.1-0.6,0-0.7-0.2
				c-0.1-0.3,0-0.6,0.2-0.7l165-87.3L70.8,838.4c-0.3,0.1-0.6,0-0.7-0.2s0-0.6,0.2-0.7l188.8-105.2L50.9,838.4
				c-0.3,0.1-0.6,0-0.7-0.2c-0.1-0.3,0-0.6,0.2-0.7l179.3-96.4l-191,97.3c-0.3,0.1-0.6,0-0.7-0.2c-0.1-0.3,0-0.6,0.2-0.7l124.9-65.1
				l-129.5,66c-0.3,0.1-0.6,0-0.7-0.2c-0.1-0.3,0-0.6,0.2-0.7L219,736L18.1,838.4C18,838.4,18,838.5,17.9,838.5z"/>
		</g>
		<g>
			<path class="st0" d="M126.5,1076.5c-0.2,0-0.4-0.1-0.5-0.3c-0.1-0.3,0-0.6,0.2-0.7L302,981.6L122.6,1073c-0.3,0.1-0.6,0-0.7-0.2
				c-0.1-0.3,0-0.6,0.2-0.7l171.5-91.9l-171,87.2c-0.3,0.1-0.6,0-0.7-0.2c-0.1-0.2,0-0.6,0.2-0.7l173.2-96.4l-172.7,88
				c-0.3,0.1-0.6,0-0.7-0.2c-0.1-0.2,0-0.6,0.2-0.7l157.6-89.8l-157.1,80c-0.3,0.1-0.6,0-0.7-0.2c-0.1-0.2,0-0.6,0.2-0.7l138.8-79
				L122.6,1038c-0.3,0.1-0.6,0-0.7-0.2c-0.1-0.3,0-0.6,0.2-0.7l94.4-50l-94,47.9c-0.3,0.1-0.6,0-0.7-0.2s0-0.6,0.2-0.7L237.8,969
				l-115.2,58.7c-0.3,0.1-0.6,0-0.7-0.2c-0.1-0.3,0-0.6,0.2-0.7l91-49l-90.5,46.1c-0.2,0.1-0.6,0-0.7-0.2c-0.1-0.2-0.1-0.5,0.2-0.7
				l97.3-59.8l-96.8,49.3c-0.3,0.1-0.6,0-0.7-0.2c-0.1-0.2-0.1-0.6,0.2-0.7l79.1-46.7l-78.6,40.1c-0.3,0.1-0.6,0-0.7-0.2
				c-0.1-0.2,0-0.6,0.2-0.7l64.3-36.6l-63.8,32.5c-0.2,0.1-0.6,0-0.7-0.2c-0.1-0.2-0.1-0.6,0.2-0.7l58.2-35.9l-57.7,29.4
				c-0.3,0.1-0.6,0-0.7-0.2c-0.1-0.2-0.1-0.5,0.2-0.7l46.3-28.6l-45.8,23.3c-0.3,0.1-0.6,0-0.7-0.2c-0.1-0.3,0-0.6,0.2-0.7l5.2-2.8
				l-4.7,2.4c-0.3,0.1-0.6,0-0.7-0.2c-0.1-0.2-0.1-0.5,0.1-0.6l-0.1-0.1c-0.1-0.2-0.1-0.3,0-0.5c-0.1-0.2,0-0.5,0.2-0.7l32.4-21.5
				l-31.9,16.2c-0.2,0.1-0.5,0.1-0.6-0.1c-0.2-0.2-0.1-0.5,0-0.7l15.6-18.4l-15,7.6c-0.2,0.1-0.4,0.1-0.6-0.1
				c-0.2-0.1-0.2-0.3-0.2-0.5l2-7.7l-1.2,0.6c-0.2,0.1-0.4,0.1-0.6-0.1s-0.2-0.4-0.1-0.6l0.1-0.2c0,0-0.1-0.1-0.1-0.2
				c-0.1-0.3,0-0.6,0.2-0.7l0.6-0.3c0.2-0.1,0.4-0.1,0.6,0.1c0.1,0.1,0.2,0.2,0.2,0.4l0.9-0.5c0.2-0.1,0.4-0.1,0.6,0.1
				c0.2,0.1,0.2,0.3,0.2,0.5l-2,7.7l16.3-8.3c0.2-0.1,0.5-0.1,0.6,0.1c0.2,0.2,0.1,0.5,0,0.7l-15.6,18.4l37.6-19.2
				c0.2-0.1,0.5,0,0.7,0.2c0.1,0.2,0.1,0.5-0.2,0.7l-32.4,21.5l44-22.4c0.2-0.1,0.5,0,0.6,0.1l0.3-0.1c0.3-0.1,0.6,0,0.7,0.2v0.1
				l0.7-0.4c0.3-0.1,0.6,0,0.7,0.2c0.1,0.3,0,0.6-0.2,0.7l-5.1,2.7l7.2-3.7c0.2-0.1,0.6,0,0.7,0.2c0.1,0.2,0.1,0.5-0.2,0.7
				l-46.3,28.6l57.9-29.5c0.2-0.1,0.6,0,0.7,0.2c0.1,0.2,0.1,0.6-0.2,0.7l-58.2,35.9l72.1-36.8c0.3-0.1,0.6,0,0.7,0.2
				c0.1,0.2,0,0.6-0.2,0.7l-64.2,36.9l73.7-37.5c0.3-0.1,0.6,0,0.7,0.2c0.1,0.2,0.1,0.6-0.2,0.7l-79.2,46.7l93.5-47.7
				c0.2-0.1,0.6,0,0.7,0.2c0.1,0.2,0.1,0.5-0.2,0.7l-97.3,59.8l119.1-60.7c0.3-0.1,0.6,0,0.7,0.2c0.1,0.3,0,0.6-0.2,0.7l-91,49
				l98-49.9c0.3-0.1,0.6,0,0.7,0.2s0,0.6-0.2,0.7L145,1022.1l129.2-65.8c0.3-0.1,0.6,0,0.7,0.2c0.1,0.3,0,0.6-0.2,0.7l-94.5,50
				l100-51c0.3-0.1,0.6,0,0.7,0.2s0,0.6-0.2,0.7l-138.8,79l157-79.8c0.3-0.1,0.6,0,0.7,0.2s0,0.6-0.2,0.7L141.8,1047l178.1-90.7
				c0.3-0.1,0.6,0,0.7,0.2s0,0.6-0.2,0.7l-173.2,96.4l191-97.3c0.3-0.1,0.6,0,0.7,0.2c0.1,0.3,0,0.6-0.2,0.7l-171.5,91.9l182.1-92.8
				c0.3-0.1,0.6,0,0.7,0.2c0.1,0.3,0,0.6-0.2,0.7L174,1051.1l186.1-94.8c0.3-0.1,0.6,0,0.7,0.2c0.1,0.3,0,0.6-0.2,0.7l-188.3,103.9
				l205.6-104.8c0.3-0.1,0.6,0,0.7,0.2s0,0.6-0.2,0.7l-189.8,106.4l210.7-107.3c0.3-0.1,0.6,0,0.7,0.2c0.1,0.3,0,0.6-0.2,0.7
				l-180.2,96.9l191.9-97.8c0.3-0.1,0.6,0,0.7,0.2s0,0.6-0.2,0.7l-189.9,107.6l212.8-108.5c0.3-0.1,0.6,0,0.7,0.2
				c0.1,0.3,0,0.6-0.2,0.7l-184.9,100.5l199-101.4c0.3-0.1,0.6,0,0.7,0.2s0,0.6-0.2,0.7l-189.8,108.3l214.3-109.2
				c0.3-0.1,0.6,0,0.7,0.2c0.1,0.3,0,0.6-0.2,0.7l-189.2,105.1l208.1-106c0.3-0.1,0.6,0,0.7,0.2s0,0.6-0.2,0.7l-189.9,107.5
				l212.7-108.4c0.3-0.1,0.6,0,0.7,0.2c0.1,0.2,0,0.6-0.2,0.7l-189.9,108l213.7-108.9c0.3-0.1,0.6,0,0.7,0.2c0.1,0.3,0,0.6-0.2,0.7
				l-183,98.9l196-99.9c0.3-0.1,0.6,0,0.7,0.2c0.1,0.3,0,0.6-0.2,0.7l-233.9,119.2c-0.3,0.1-0.6,0-0.7-0.2c-0.1-0.3,0-0.6,0.2-0.7
				l183-98.9l-196,99.9c-0.3,0.1-0.6,0-0.7-0.2s0-0.6,0.2-0.7l189.9-108l-213.7,108.9c-0.3,0.1-0.6,0-0.7-0.2s0-0.6,0.2-0.7
				l190-107.5l-212.7,108.4c-0.3,0.1-0.6,0-0.7-0.2c-0.1-0.3,0-0.6,0.2-0.7l189.2-105.1l-208.1,106.1c-0.3,0.1-0.6,0-0.7-0.2
				c-0.1-0.2,0-0.6,0.2-0.7l189.8-108.3l-214.3,109.2c-0.3,0.1-0.6,0-0.7-0.2c-0.1-0.3,0-0.6,0.2-0.7L400.5,975l-199,101.4
				c-0.3,0.1-0.6,0-0.7-0.2c-0.1-0.2,0-0.6,0.2-0.7l189.9-107.6L178,1076.4c-0.3,0.1-0.6,0-0.7-0.2c-0.1-0.3,0-0.6,0.2-0.7
				l180.2-96.9l-191.8,97.8c-0.3,0.1-0.6,0-0.7-0.2c-0.1-0.2,0-0.6,0.2-0.7l189.8-106.4l-210.7,107.3c-0.3,0.1-0.6,0-0.7-0.2
				c-0.1-0.3,0-0.6,0.2-0.7l188.3-103.9l-205.6,104.8C126.6,1076.4,126.5,1076.5,126.5,1076.5z"/>
		</g>
		<g>
			<path class="st0" d="M357,1076.5c-0.2,0-0.4-0.1-0.5-0.3c0-0.1,0-0.1-0.1-0.2l-0.8,0.4c-0.3,0.1-0.6,0-0.7-0.2
				c-0.1-0.3,0-0.6,0.2-0.7l279.6-150.6l-297.3,151.5c-0.3,0.1-0.6,0-0.7-0.2c-0.1-0.3,0-0.6,0.2-0.7l306.6-167.6l-87.4,44.5
				c-0.3,0.1-0.6,0-0.7-0.2c-0.1-0.2,0-0.6,0.2-0.7l96.8-54.3l-96.3,49.1c-0.3,0.1-0.6,0-0.7-0.2c-0.1-0.3,0-0.6,0.2-0.7L647,895
				l-90.9,46.3c-0.3,0.1-0.6,0-0.7-0.2c-0.1-0.3,0-0.6,0.2-0.7l91.8-50.7l-91.3,46.5c-0.3,0.1-0.6,0-0.7-0.2
				c-0.1-0.2-0.1-0.5,0.1-0.6l-0.1-0.1c-0.1-0.2,0-0.6,0.2-0.7L658,875.3L556.1,927c-0.2,0.1-0.6,0-0.7-0.2
				c-0.1-0.2-0.1-0.6,0.2-0.7L662.8,861l-106.7,54.4c-0.3,0.1-0.6,0-0.7-0.2c-0.1-0.3,0-0.6,0.2-0.7l0,0l24.9-13L556.1,914
				c-0.3,0.1-0.6,0-0.7-0.2c-0.1-0.2,0-0.6,0.2-0.7l101.6-58.6L556.1,906c-0.3,0.1-0.6,0-0.7-0.2c-0.1-0.2,0-0.6,0.2-0.7l98.1-55.4
				l-97.6,49.7c-0.3,0.1-0.6,0-0.7-0.2c-0.1-0.3,0-0.6,0.2-0.7l119.1-60.7c0.3-0.1,0.6,0,0.7,0.2c0.1,0.2,0,0.6-0.2,0.7l-98.1,55.4
				l97.6-49.7c0.3-0.1,0.6,0,0.7,0.2c0.1,0.2,0,0.6-0.2,0.7l-101.6,58.6l101.1-51.5c0.3-0.1,0.6,0,0.7,0.2c0.1,0.3,0,0.6-0.2,0.7
				l-25,13l24.5-12.5c0.3-0.1,0.6,0,0.7,0.2c0.1,0.2,0.1,0.6-0.2,0.7L568,919.8l106.7-54.4c0.3-0.1,0.6,0,0.7,0.2
				c0.1,0.2,0,0.6-0.2,0.7l-102.4,59.3l101.9-51.9c0.3-0.1,0.6,0,0.7,0.2c0.1,0.2,0.1,0.5-0.1,0.6l0.1,0.1c0.1,0.3,0,0.6-0.2,0.7
				L583.4,926l91.3-46.5c0.3-0.1,0.6,0,0.7,0.2c0.1,0.3,0,0.6-0.2,0.7l-91.4,50.4l90.9-46.3c0.3-0.1,0.6,0,0.7,0.2
				c0.1,0.2,0,0.6-0.2,0.7l-96.8,54.3l96.3-49.1c0.3-0.1,0.6,0,0.7,0.2c0.1,0.3,0,0.6-0.2,0.7l-306.6,167.6l306.1-156
				c0.3-0.1,0.6,0,0.7,0.2c0.1,0.3,0,0.6-0.2,0.7l-279.5,150.6l279.1-142.2l0,0l0,0c0.3-0.1,0.6,0,0.7,0.2c0.1,0.2,0.1,0.5-0.1,0.6
				c0.1,0,0.1,0.1,0.1,0.2c0.1,0.3,0,0.6-0.2,0.7l-256,136.7l255.5-130.2c0.3-0.1,0.6,0,0.7,0.2c0.1,0.3,0,0.6-0.2,0.7L457.6,1036
				l217.1-110.6c0.3-0.1,0.6,0,0.7,0.2c0.1,0.2,0.1,0.4-0.1,0.6l0.1,0.1c0.1,0.3,0,0.6-0.2,0.7l-114.8,59.2L674.7,928
				c0.3-0.1,0.6,0,0.7,0.2c0.1,0.3,0,0.6-0.2,0.7L435,1062.4l239.8-122.2c0.3-0.1,0.6,0,0.7,0.2c0.1,0.3,0,0.6-0.2,0.7l0,0
				l-155.7,81.1l155.2-79.1c0.3-0.1,0.6,0,0.7,0.2c0.1,0.3,0,0.6-0.2,0.7l-119.2,61.8l118.7-60.5c0.3-0.1,0.6,0,0.7,0.2
				c0.1,0.3,0,0.6-0.2,0.7l-201.7,108.6l201.2-102.5c0.3-0.1,0.6,0,0.7,0.2c0.1,0.3,0,0.6-0.2,0.7l-195.5,107.9l205.8-104.9
				c0.3-0.1,0.6,0,0.7,0.2c0.1,0.3,0,0.6-0.2,0.7l-182.4,98.5l195.2-99.4c0.3-0.1,0.6,0,0.7,0.2c0.1,0.3,0,0.6-0.2,0.7l-128.8,67.1
				l133.6-68.1c0.3-0.1,0.6,0,0.7,0.2c0.1,0.3,0,0.6-0.2,0.7l0,0l-64.4,33.2l67.1-34.2c0.3-0.1,0.6,0,0.7,0.2c0.1,0.3,0,0.6-0.2,0.7
				l-188.1,103.6L725,955.9c0.3-0.1,0.6,0,0.7,0.2c0.1,0.3,0,0.6-0.2,0.7L549,1051.2l187-95.3c0.3-0.1,0.6,0,0.7,0.2
				c0.1,0.3,0,0.6-0.2,0.7l-174.6,93.4l184.2-93.9c0.3-0.1,0.6,0,0.7,0.2c0.1,0.3,0,0.6-0.2,0.7l-166.4,88.1l174.7-89
				c0.3-0.1,0.6,0,0.7,0.2v0.1l0.6-0.3c0.3-0.1,0.6,0,0.7,0.2c0.1,0.3,0,0.6-0.2,0.7l-141.9,74.2l147.5-75.2c0.3-0.1,0.6,0,0.7,0.2
				c0.1,0.2,0,0.6-0.2,0.7L573,1063.8l211.1-107.6c0.3-0.1,0.6,0,0.7,0.2c0.1,0.3,0,0.6-0.2,0.7l-187,102.4l202.7-103.3
				c0.3-0.1,0.6,0,0.7,0.2c0.1,0.2,0,0.6-0.2,0.7L611.2,1063l209.7-106.7c0.3-0.1,0.6,0,0.7,0.2c0.1,0.3,0,0.6-0.2,0.7l-182.1,98.3
				L834,956.3c0.3-0.1,0.6,0,0.7,0.2c0.1,0.3,0,0.6-0.2,0.7l-173.1,92.2l182.8-93.1l0,0l0,0c0.3-0.1,0.6,0,0.7,0.2s0,0.6-0.2,0.7
				l0,0l-150.3,78.9L851,956.3c0.3-0.1,0.6,0,0.7,0.2c0.1,0.2,0,0.6-0.2,0.7L661.8,1063l209.4-106.7c0.3-0.1,0.6,0,0.7,0.2
				c0.1,0.3,0,0.6-0.2,0.7l-173.3,92.3l182.9-93.2c0.3-0.1,0.6,0,0.7,0.2c0.1,0.3,0,0.6-0.2,0.7l-174.5,93l184.4-94l0,0l0,0
				c0.3-0.1,0.6,0,0.7,0.2v0.1l0.7-0.3c0.3-0.1,0.6,0,0.7,0.2c0.1,0.3,0,0.6-0.2,0.7l-188.4,104l205.9-104.9c0.3-0.1,0.6,0,0.7,0.2
				c0.1,0.2,0,0.6-0.2,0.7l-189.9,107.5l212.7-108.4c0.3-0.1,0.6,0,0.7,0.2c0.1,0.2,0,0.6-0.2,0.7L745.4,1063l209.5-106.7
				c0.3-0.1,0.6,0,0.7,0.2c0.1,0.2,0,0.6-0.2,0.7l-189.9,107.3l212.3-108.2c0.3-0.1,0.6,0,0.7,0.2c0.1,0.3,0,0.6-0.2,0.7
				l-128.4,66.9L983,956.3l0,0l0,0c0.3-0.1,0.6,0,0.7,0.2c0.1,0.3,0,0.6-0.2,0.7l0,0l-20.6,10.6l22.6-11.5c0.3-0.1,0.6,0,0.7,0.2
				c0.1,0.3,0,0.6-0.2,0.7l-189.3,105.4l208.7-106.3c0.3-0.1,0.6,0,0.7,0.2c0.1,0.3,0,0.6-0.2,0.7l-167.9,89l176.4-89.9
				c0.3-0.1,0.6,0,0.7,0.2c0.1,0.3,0,0.6-0.2,0.7l-184.8,100.4L1029,956.3c0.3-0.1,0.6,0,0.7,0.2c0.1,0.3,0,0.6-0.2,0.7l-189.2,105
				l208-106c0.3-0.1,0.6,0,0.7,0.2c0.1,0.3,0,0.6-0.2,0.7L861.3,1060l203.6-103.7c0.3-0.1,0.6,0,0.7,0.2s0,0.6-0.2,0.7l-189.8,108.3
				l214.3-109.2c0.3-0.1,0.6,0,0.7,0.2s0,0.6-0.2,0.7l-189.7,106.3l207.5-105.7c0.3-0.1,0.6,0,0.7,0.2s0,0.6-0.2,0.7l-187.3,105.6
				l186.8-95.2c0.3-0.1,0.6,0,0.7,0.2c0.1,0.3,0,0.6-0.2,0.7l-162,88.2l161.5-82.3c0.3-0.1,0.6,0,0.7,0.2c0.1,0.3,0,0.6-0.2,0.7
				l-111.8,58.6l111.3-56.7c0.3-0.1,0.6,0,0.7,0.2s0,0.6-0.2,0.7l-150.2,85.7l149.7-76.3c0.3-0.1,0.6,0,0.7,0.2
				c0.1,0.3,0,0.6-0.2,0.7l-110.1,58.5l109.6-55.8c0.3-0.1,0.6,0,0.7,0.2s0,0.6-0.2,0.7l-125.8,73.9l125.3-63.9
				c0.3-0.1,0.6,0,0.7,0.2s0.1,0.4,0,0.5c0,0,0,0,0,0.1c0.1,0.2,0.1,0.4,0,0.5l0,0c0.1,0.2,0,0.6-0.2,0.7l-102.5,57.1l102-52
				c0.3-0.1,0.6,0,0.7,0.2s0.1,0.6-0.2,0.7l-95,56.9l94.5-48.1c0.3-0.1,0.6,0,0.7,0.2c0.1,0.3,0,0.6-0.2,0.7l-74.2,41.3l73.7-37.5
				c0.3-0.1,0.6,0,0.7,0.2c0.1,0.3,0,0.6-0.2,0.7l-61.2,33.5l60.7-30.9c0.2-0.1,0.5,0,0.7,0.2c0.1,0.2,0.1,0.5-0.2,0.7l-64.7,40.8
				l64.2-32.7c0.3-0.1,0.6,0,0.7,0.2s0.1,0.6-0.2,0.7l-50,29.7l49.5-25.2c0.2-0.1,0.5,0,0.7,0.2c0.1,0.2,0.1,0.5-0.2,0.7l-41.9,26.4
				l41.4-21.1c0.3-0.1,0.6,0,0.7,0.2c0.1,0.3,0,0.6-0.2,0.7l-0.1,0.1c0.1,0,0.2,0.1,0.3,0.2c0.1,0.2,0.1,0.5-0.1,0.7l-27.4,22.2
				l26.8-13.7c0.2-0.1,0.4-0.1,0.6,0.1s0.2,0.4,0.1,0.6l-7.9,14.5l7.2-3.7c0.2-0.1,0.4-0.1,0.5,0c0.2,0.1,0.2,0.3,0.2,0.5l-0.5,3.6
				c0.2,0,0.3,0.1,0.4,0.3c0.1,0.3,0,0.6-0.2,0.7l-0.6,0.3c-0.2,0.1-0.4,0.1-0.5,0c-0.2-0.1-0.2-0.3-0.2-0.5l0.4-3.5l-7.8,4
				c-0.2,0.1-0.4,0.1-0.6-0.1s-0.2-0.4-0.1-0.6l7.9-14.5l-29.8,15.2c-0.2,0.1-0.5,0-0.7-0.2c-0.1-0.2-0.1-0.5,0.1-0.7l27.4-22.2
				l-45.2,23c-0.3,0.1-0.6,0-0.7-0.2c-0.1-0.1-0.1-0.3,0-0.4l-1.3,0.7c-0.2,0.1-0.5,0-0.7-0.2c-0.1-0.2-0.1-0.5,0.2-0.7l41.9-26.4
				l-53.6,27.3c-0.3,0.1-0.6,0-0.7-0.2s-0.1-0.6,0.2-0.7l50-29.7l-60.1,30.6c-0.2,0.1-0.6,0-0.7-0.2s-0.1-0.5,0.2-0.7l64.7-40.8
				l-81.9,41.7c-0.3,0.1-0.6,0-0.7-0.2c-0.1-0.3,0-0.6,0.2-0.7l61.2-33.5l-67.5,34.4c-0.3,0.1-0.6,0-0.7-0.2c-0.1-0.3,0-0.6,0.2-0.7
				l74.1-41.3l-82.8,42.2c-0.3,0.1-0.6,0-0.7-0.2c-0.1-0.2-0.1-0.6,0.2-0.7l95-56.9l-113.4,57.8c-0.3,0.1-0.6,0-0.7-0.2
				c-0.1-0.2,0-0.6,0.2-0.7l102.5-57.1l-113.8,58c-0.2,0.1-0.5,0-0.7-0.2l-0.4,0.2c-0.3,0.1-0.6,0-0.7-0.2l0,0l-0.5,0.3
				c-0.3,0.1-0.6,0-0.7-0.2c-0.1-0.2,0-0.6,0.2-0.7l125.8-73.7l-146.5,74.6c-0.3,0.1-0.6,0-0.7-0.2c-0.1-0.3,0-0.6,0.2-0.7l110-58.5
				L939,1076.5c-0.3,0.1-0.6,0-0.7-0.2c-0.1-0.2,0-0.6,0.2-0.7l150.2-85.7l-170,86.6c-0.3,0.1-0.6,0-0.7-0.2c-0.1-0.3,0-0.6,0.2-0.7
				L1030,1017l-116.9,59.5c-0.3,0.1-0.6,0-0.7-0.2c-0.1-0.3,0-0.6,0.2-0.7l162-88.2l-175,89.2c-0.3,0.1-0.6,0-0.7-0.2
				c-0.1-0.2,0-0.6,0.2-0.7l187.8-105.9l-209.1,106.5c-0.3,0.1-0.6,0-0.7-0.2c-0.1-0.2,0-0.6,0.2-0.7L1067,969.1l-210.4,107.2
				c-0.3,0.1-0.6,0-0.7-0.2c-0.1-0.2,0-0.6,0.2-0.7l189.8-108.2l-214.3,109.2c-0.3,0.1-0.6,0-0.7-0.2c-0.1-0.3,0-0.6,0.2-0.7
				l187.5-102.9l-203.8,103.9c-0.3,0.1-0.6,0-0.7-0.2c-0.1-0.3,0-0.6,0.2-0.7l189.2-105l-208,106c-0.3,0.1-0.6,0-0.7-0.2
				s0-0.6,0.2-0.7l184.8-100.4l-198.9,101.1c-0.3,0.1-0.6,0-0.7-0.2c-0.1-0.3,0-0.6,0.2-0.7l167.9-89l-176.4,89.9
				c-0.3,0.1-0.6,0-0.7-0.2c-0.1-0.3,0-0.6,0.2-0.7l189.3-105.4L752,1076.4l0,0l0,0c-0.3,0.1-0.6,0-0.7-0.2c-0.1-0.3,0-0.6,0.2-0.7
				L772,1065l-22.5,11.5c-0.3,0.1-0.6,0-0.7-0.2s0-0.6,0.2-0.7l128.4-66.9l-133.1,67.8c-0.3,0.1-0.6,0-0.7-0.2
				c-0.1-0.2,0-0.6,0.2-0.7l189.9-107.3l-212.3,108.2c-0.3,0.1-0.6,0-0.7-0.2c-0.1-0.2,0-0.6,0.2-0.7l189.5-105.8l-209.5,106.7
				c-0.3,0.1-0.6,0-0.7-0.2c-0.1-0.2,0-0.6,0.2-0.7L890.5,968l-212.7,108.4c-0.3,0.1-0.6,0-0.7-0.2c-0.1-0.3,0-0.6,0.2-0.7
				l188.4-104l-205.9,104.9l0,0l0,0c-0.3,0.1-0.6,0-0.7-0.2v-0.1l-0.7,0.3c-0.3,0.1-0.6,0-0.7-0.2c-0.1-0.3,0-0.6,0.2-0.7l174.5-93
				l-184.4,94c-0.3,0.1-0.6,0-0.7-0.2c-0.1-0.3,0-0.6,0.2-0.7l173.3-92.3l-182.9,93.2c-0.3,0.1-0.6,0-0.7-0.2
				c-0.1-0.2,0-0.6,0.2-0.7l189.5-105.8l-209.4,106.7l0,0l0,0c-0.3,0.1-0.6,0-0.7-0.2c-0.1-0.3,0-0.6,0.2-0.7l0,0l150.3-78.9
				l-156.6,79.8c-0.3,0.1-0.6,0-0.7-0.2c-0.1-0.3,0-0.6,0.2-0.7l173.1-92.2l-182.8,93.1c-0.3,0.1-0.6,0-0.7-0.2
				c-0.1-0.3,0-0.6,0.2-0.7l182.1-98.3l-194.7,99.2c-0.3,0.1-0.6,0-0.7-0.2c-0.1-0.2,0-0.6,0.2-0.7l189.6-105.9l-209.7,106.8
				c-0.3,0.1-0.6,0-0.7-0.2c-0.1-0.3,0-0.6,0.2-0.7l187-102.4l-202.7,103.3c-0.3,0.1-0.6,0-0.7-0.2c-0.1-0.2,0-0.6,0.2-0.7
				l189.8-106.7l-211.1,107.6c-0.3,0.1-0.6,0-0.7-0.2c-0.1-0.3,0-0.6,0.2-0.7l141.9-74.2l-147.3,75c-0.3,0.1-0.6,0-0.7-0.2v-0.1
				l-0.6,0.3c-0.3,0.1-0.6,0-0.7-0.2c-0.1-0.3,0-0.6,0.2-0.7l166.4-88.1l-174.7,89c-0.3,0.1-0.6,0-0.7-0.2c-0.1-0.3,0-0.6,0.2-0.7
				l174.3-92.9l-184.2,93.9c-0.3,0.1-0.6,0-0.7-0.2c-0.1-0.3,0-0.6,0.2-0.7l176.5-94.4l-187,95.3c-0.3,0.1-0.6,0-0.7-0.2
				s0-0.6,0.2-0.7L679,972l-205.2,104.6c-0.3,0.1-0.6,0-0.7-0.2c-0.1-0.3,0-0.6,0.2-0.7l0,0l64.3-33.2l-67,34.2
				c-0.3,0.1-0.6,0-0.7-0.2c-0.1-0.3,0-0.6,0.2-0.7l0,0l128.8-67.1l-133.6,68.1c-0.3,0.1-0.6,0-0.7-0.2c-0.1-0.3,0-0.6,0.2-0.7
				L647.4,977l-195.1,99.4c-0.3,0.1-0.6,0-0.7-0.2c-0.1-0.3,0-0.6,0.2-0.7l195.5-107.9l-213.5,108.8c-0.3,0.1-0.6,0-0.7-0.2
				c-0.1-0.3,0-0.6,0.2-0.7l201.6-108.7l-215,109.6c-0.3,0.1-0.6,0-0.7-0.2c-0.1-0.3,0-0.6,0.2-0.7l119.2-61.8l-123,62.7l0,0l0,0
				c-0.3,0.1-0.6,0-0.7-0.2c-0.1-0.3,0-0.6,0.2-0.7l155.7-81.1l-160.9,82c-0.3,0.1-0.6,0-0.7-0.2c-0.1-0.3,0-0.6,0.2-0.7L649.6,942
				l-263.9,134.5c-0.3,0.1-0.6,0-0.7-0.2c-0.1-0.3,0-0.6,0.2-0.7l0,0l114.8-59.3l-118.1,60.1l0,0l0,0c-0.3,0.1-0.6,0-0.7-0.2v-0.1
				l-0.6,0.3c-0.3,0.1-0.6,0-0.7-0.2c-0.1-0.3,0-0.6,0.2-0.7l217.6-114.2l-225.9,115.1c-0.3,0.1-0.6,0-0.7-0.2
				c-0.1-0.3,0-0.6,0.2-0.7l256-136.7l-270.1,137.6l0,0l0,0C357.1,1076.4,357,1076.5,357,1076.5z"/>
		</g>
		<g>
			<path class="st0" d="M555.8,896.9c-0.2,0-0.4-0.1-0.5-0.3s-0.1-0.4,0.1-0.6c0,0,0-0.1-0.1-0.1c-0.1-0.2-0.1-0.4,0.1-0.6l-0.1-0.1
				c-0.1-0.3,0-0.6,0.2-0.7l283.3-151.6L556.1,887c-0.3,0.1-0.6,0-0.7-0.2c-0.1-0.3,0-0.6,0.2-0.7l261.9-139.2L556.1,880.1
				c-0.3,0.1-0.6,0-0.7-0.2c-0.1-0.3,0-0.6,0.2-0.7L814.9,739L556,870.9c-0.3,0.1-0.6,0-0.7-0.2c-0.1-0.3,0-0.6,0.2-0.7l233.8-124.5
				L556,864.3c-0.3,0.1-0.6,0-0.7-0.2c-0.1-0.3,0-0.6,0.2-0.7l167-86.8L556,861.5c-0.3,0.1-0.6,0-0.7-0.2c-0.1-0.3,0-0.6,0.2-0.7
				l184.4-96.5l-183.8,93.7c-0.3,0.1-0.6,0-0.7-0.2c-0.1-0.3,0-0.6,0.2-0.7l0,0l171.7-89.6l-171.2,87.2l0,0l0,0
				c-0.3,0.1-0.6,0-0.7-0.2c-0.1-0.3,0-0.6,0.2-0.7l0,0l187.3-98.7L556,850.1c-0.3,0.1-0.6,0-0.7-0.2c-0.1-0.1-0.1-0.2,0-0.3
				c0-0.2,0.1-0.4,0.3-0.5l207.7-113.9L556,840.8l0,0l0,0c-0.3,0.1-0.6,0-0.7-0.2c-0.1-0.3,0-0.6,0.2-0.7l0,0l91.7-47.5l-91.3,46.5
				c-0.3,0.1-0.6,0-0.7-0.2c-0.1-0.3,0-0.6,0.2-0.7l0,0l157.7-83l-163.9,83.5c-0.3,0.1-0.6,0-0.7-0.2c-0.1-0.3,0-0.6,0.2-0.7
				l186.2-101.9L533.3,838.4c-0.3,0.1-0.6,0-0.7-0.2c-0.1-0.2,0-0.6,0.2-0.7L721.2,733L514.3,838.4c-0.3,0.1-0.6,0-0.7-0.2
				c-0.1-0.3,0-0.6,0.2-0.7l168.4-89.4L505,838.4l0,0l0,0c-0.3,0.1-0.6,0-0.7-0.2c-0.1-0.3,0-0.6,0.2-0.7l100.1-51.9L501,838.4
				c-0.3,0.1-0.6,0-0.7-0.2c-0.1-0.3,0-0.6,0.2-0.7l185-100.8L485.9,838.4c-0.3,0.1-0.6,0-0.7-0.2c-0.1-0.3,0-0.6,0.2-0.7l184-99.9
				L471.5,838.4c-0.3,0.1-0.6,0-0.7-0.2c-0.1-0.3,0-0.6,0.2-0.7l184.5-100.4L456.8,838.4c-0.3,0.1-0.6,0-0.7-0.2
				c-0.1-0.3,0-0.6,0.2-0.7l145.2-76.1l-151.1,77l0,0l0,0c-0.3,0.1-0.6,0-0.7-0.2c0-0.1-0.1-0.2-0.1-0.2l-0.9,0.5
				c-0.3,0.1-0.6,0-0.7-0.2c-0.1-0.3,0-0.6,0.2-0.7L640,733.5L433.8,838.4c-0.3,0.1-0.6,0-0.7-0.2c-0.1-0.3,0-0.6,0.2-0.7l0,0
				L568.7,767l-140.1,71.4c-0.3,0.1-0.6,0-0.7-0.2c-0.1-0.3,0-0.6,0.2-0.7l213.1-116L411.8,838.4c-0.3,0.1-0.6,0-0.7-0.2
				c-0.1-0.3,0-0.6,0.2-0.7l199.2-105.1l-208.1,106c-0.3,0.1-0.6,0-0.7-0.2c-0.1-0.3,0-0.6,0.2-0.7l152.7-79.3l-157.5,80.2
				c-0.3,0.1-0.6,0-0.7-0.2c-0.1-0.3,0-0.6,0.2-0.7l242.9-131.8L379.1,838.4c-0.3,0.1-0.6,0-0.7-0.2c-0.1-0.3,0-0.6,0.2-0.7
				L639.4,696L360,838.4l0,0l0,0c-0.3,0.1-0.6,0-0.7-0.2c-0.1-0.3,0-0.6,0.2-0.7l249.6-131.6L349,838.4c-0.3,0.1-0.6,0-0.7-0.2
				c-0.1-0.3,0-0.6,0.2-0.7l282.8-151.7L331.8,838.4c-0.3,0.1-0.6,0-0.7-0.2c-0.1-0.3,0-0.6,0.2-0.7l279.6-147.6l-54.9,28
				c-0.3,0.1-0.6,0-0.7-0.2c-0.1-0.3,0-0.6,0.2-0.7c-0.1,0-0.2-0.1-0.2-0.2c-0.1-0.2-0.1-0.6,0.2-0.7l106.8-64.5L556,705.8
				c-0.3,0.1-0.6,0-0.7-0.2c-0.1-0.3,0-0.6,0.2-0.7l53.3-28.1l-52.9,26.9c-0.3,0.1-0.6,0-0.7-0.2c-0.1-0.3,0-0.6,0.2-0.7l94.1-52.3
				l-93.6,47.7c-0.3,0.1-0.6,0-0.7-0.2c-0.1-0.3,0-0.6,0.2-0.7l88.6-48.5l-88.2,44.9c-0.3,0.1-0.6,0-0.7-0.2c-0.1-0.3,0-0.6,0.2-0.7
				l48.9-25.7l-48.5,24.7c-0.3,0.1-0.6,0-0.7-0.2c-0.1-0.3,0-0.6,0.2-0.7l0,0l47.5-25l-47.1,24c-0.3,0.1-0.6,0-0.7-0.2
				c-0.1-0.2,0-0.6,0.2-0.7l102.6-59.5l-102.1,52c-0.3,0.1-0.6,0-0.7-0.2c-0.1-0.2-0.1-0.6,0.2-0.7l106.8-64.5l-106.3,54.2
				c-0.3,0.1-0.6,0-0.7-0.2c-0.1-0.2,0-0.6,0.2-0.7l95.8-53.6L556.1,664c-0.3,0.1-0.6,0-0.7-0.2c-0.1-0.3,0-0.6,0.2-0.7l65.7-34.9
				l-65.2,33.2c-0.3,0.1-0.6,0-0.7-0.2c-0.1-0.3,0-0.6,0.2-0.7l119.1-60.7c0.3-0.1,0.6,0,0.7,0.2c0.1,0.3,0,0.6-0.2,0.7l-65.7,34.9
				l65.2-33.2c0.3-0.1,0.6,0,0.7,0.2c0.1,0.2,0,0.6-0.2,0.7l-95.8,53.6l95.3-48.6c0.3-0.1,0.6,0,0.7,0.2c0.1,0.2,0.1,0.6-0.2,0.7
				l-106.8,64.5l106.3-54.2c0.3-0.1,0.6,0,0.7,0.2c0.1,0.2,0,0.6-0.2,0.7L572.6,680l102.1-52c0.3-0.1,0.6,0,0.7,0.2
				c0.1,0.3,0,0.6-0.2,0.7l-47.5,25l47-24c0.3-0.1,0.6,0,0.7,0.2c0.1,0.3,0,0.6-0.2,0.7l-49,25.8l48.5-24.7c0.3-0.1,0.6,0,0.7,0.2
				c0.1,0.3,0,0.6-0.2,0.7l-88.6,48.5l88.1-44.9c0.3-0.1,0.6,0,0.7,0.2c0.1,0.3,0,0.6-0.2,0.7l-94.1,52.3l93.6-47.7
				c0.3-0.1,0.6,0,0.7,0.2c0.1,0.3,0,0.6-0.2,0.7L621.9,671l52.9-26.9c0.2-0.1,0.6,0,0.7,0.2c0.1,0.2,0.1,0.6-0.2,0.7l-106.8,64.5
				l106.3-54.2c0.3-0.1,0.6,0,0.7,0.2c0.1,0.3,0,0.6-0.2,0.7c0.1,0,0.2,0.1,0.2,0.2c0.1,0.3,0,0.6-0.2,0.7L395.6,804.7l279.2-142.2
				c0.3-0.1,0.6,0,0.7,0.2c0.1,0.3,0,0.6-0.2,0.7L392.4,815.1l282.3-143.8c0.3-0.1,0.6,0,0.7,0.2c0.1,0.3,0,0.6-0.2,0.7L425.7,803.7
				l249.1-126.9c0.3-0.1,0.6,0,0.7,0.2c0.1,0.3,0,0.6-0.2,0.7L414.4,819.2l260.3-132.6c0.3-0.1,0.6,0,0.7,0.2c0.1,0.3,0,0.6-0.2,0.7
				L432.3,819.3l242.4-123.5c0.3-0.1,0.6,0,0.7,0.2c0.1,0.3,0,0.6-0.2,0.7L522.5,776l152.2-77.6c0.3-0.1,0.6,0,0.7,0.2
				c0.1,0.3,0,0.6-0.2,0.7L476,804.5l198.8-101.3c0.3-0.1,0.6,0,0.7,0.2c0.1,0.3,0,0.6-0.2,0.7l-213.1,116l212.6-108.3
				c0.3-0.1,0.6,0,0.7,0.2c0.1,0.3,0,0.6-0.2,0.7l0,0l-135.4,70.5l135-68.8c0.3-0.1,0.6,0,0.7,0.2c0.1,0.3,0,0.6-0.2,0.7
				L483.5,819.5l197.9-100.8l0,0l0,0c0.3-0.1,0.6,0,0.7,0.2c0,0.1,0.1,0.2,0.1,0.2l0.9-0.5c0.3-0.1,0.6,0,0.7,0.2
				c0.1,0.3,0,0.6-0.2,0.7l-145.2,76.1l151.1-77c0.3-0.1,0.6,0,0.7,0.2c0.1,0.3,0,0.6-0.2,0.7L505.3,820l198.8-101.3
				c0.3-0.1,0.6,0,0.7,0.2c0.1,0.3,0,0.6-0.2,0.7l-184,99.9l197.9-100.8c0.3-0.1,0.6,0,0.7,0.2c0.1,0.3,0,0.6-0.2,0.7L534,820.4
				l199.7-101.7c0.3-0.1,0.6,0,0.7,0.2c0.1,0.3,0,0.6-0.2,0.7l0,0l-100.1,51.9l103.7-52.8c0.3-0.1,0.6,0,0.7,0.2
				c0.1,0.3,0,0.6-0.2,0.7L569.8,809l177.1-90.3c0.3-0.1,0.6,0,0.7,0.2c0.1,0.2,0,0.6-0.2,0.7L559.1,824.1l206.8-105.4
				c0.3-0.1,0.6,0,0.7,0.2c0.1,0.3,0,0.6-0.2,0.7l-186.2,102l201.9-102.9l0,0l0,0c0.3-0.1,0.6,0,0.7,0.2c0.1,0.3,0,0.6-0.2,0.7
				l-157.8,83.1l164.8-84l0,0l0,0c0.3-0.1,0.6,0,0.7,0.2c0.1,0.3,0,0.6-0.2,0.7l0,0l-91.8,47.5l95.1-48.4c0.3-0.1,0.6,0,0.7,0.2
				c0.1,0.3,0,0.6-0.2,0.7L586.1,833.5l225.4-114.8c0.1-0.1,0.3-0.1,0.4,0c0.2-0.1,0.5,0,0.6,0.3s0,0.6-0.2,0.7l0,0l-187.4,98.5
				l195.4-99.5c0.3-0.1,0.6,0,0.7,0.2c0.1,0.3,0,0.6-0.2,0.7l-171.7,89.6l177.7-90.5c0.3-0.1,0.6,0,0.7,0.2c0.1,0.3,0,0.6-0.2,0.7
				l0,0L643,816l190.9-97.3c0.3-0.1,0.6,0,0.7,0.2c0.1,0.3,0,0.6-0.2,0.7l-167,86.8l172.3-87.8c0.3-0.1,0.6,0,0.7,0.2
				c0.1,0.3,0,0.6-0.2,0.7L606.3,844.1l246.2-125.4c0.3-0.1,0.6,0,0.7,0.2c0.1,0.3,0,0.6-0.2,0.7L593.7,859.8l276.9-141.1
				c0.3-0.1,0.6,0,0.7,0.2c0.1,0.3,0,0.6-0.2,0.7L609.2,858.8l275-140.1c0.3-0.1,0.6,0,0.7,0.2c0.1,0.3,0,0.6-0.2,0.7L601.4,871.2
				l299.3-152.5l0,0l0,0c0.3-0.1,0.6,0,0.7,0.2v0.1l0.7-0.3l0,0l0,0c0.3-0.1,0.6,0,0.7,0.2c0,0,0,0,0,0.1l0.6-0.3
				c0.3-0.1,0.6,0,0.7,0.2c0.1,0.2,0,0.6-0.2,0.7L715.4,824.2l207.1-105.5c0.3-0.1,0.6,0,0.7,0.2c0.1,0.3,0,0.6-0.2,0.7L738,820.3
				l199.5-101.7c0.3-0.1,0.6,0,0.7,0.2c0.1,0.3,0,0.6-0.2,0.7l-5.1,2.6l6.9-3.5c0.3-0.1,0.6,0,0.7,0.2c0.1,0.2,0,0.6-0.2,0.7
				L751.2,826.3l211.1-107.6c0.3-0.1,0.6,0,0.7,0.2c0.1,0.3,0,0.6-0.2,0.7L774.2,824.4l207.5-105.7c0.3-0.1,0.6,0,0.7,0.2
				c0.1,0.2,0,0.6-0.2,0.7L792.9,826.2l211-107.5c0.3-0.1,0.6,0,0.7,0.2c0.1,0.3,0,0.6-0.2,0.7l-169.1,89.8l178-90.7
				c0.3-0.1,0.6,0,0.7,0.2c0.1,0.2,0,0.6-0.2,0.7l-189,105.7l209.3-106.6c0.3-0.1,0.6,0,0.7,0.2s0,0.6-0.2,0.7L845.3,825.7l210-107
				c0.3-0.1,0.6,0,0.7,0.2c0.1,0.3,0,0.6-0.2,0.7l-168.3,89.3l177.1-90.2c0.3-0.1,0.6,0,0.7,0.2c0.1,0.3,0,0.6-0.2,0.7l-186.4,102
				l202.1-103c0.3-0.1,0.6,0,0.7,0.2c0.1,0.3,0,0.6-0.2,0.7l-181.4,97.9l193.8-98.7c0.3-0.1,0.6,0,0.7,0.2s0,0.6-0.2,0.7
				L905.3,824.9l208.6-106.2c0.3-0.1,0.6,0,0.7,0.2s0,0.6-0.2,0.7L925.1,826.1l210.8-107.4l0,0l0,0c0.3-0.1,0.6,0,0.7,0.2v0.1
				l0.7-0.4c0.3-0.1,0.6,0,0.7,0.2c0.1,0.3,0,0.6-0.2,0.7l-178.6,95.9l190-96.8c0.3-0.1,0.6,0,0.7,0.2c0.1,0.3,0,0.6-0.2,0.7
				l-148.1,77.6l154.2-78.6c0.3-0.1,0.6,0,0.7,0.2s0,0.6-0.2,0.7L967.1,827.3l213.1-108.6c0.3-0.1,0.6,0,0.7,0.2
				c0.1,0.3,0,0.6-0.2,0.7l-170.9,90.9l180.2-91.8c0.3-0.1,0.6,0,0.7,0.2c0.1,0.3,0,0.6-0.2,0.7l-182.2,98.5l195.1-99.4
				c0.3-0.1,0.6,0,0.7,0.2s0,0.6-0.2,0.7l-189,105.8l209.4-106.7l0,0l0,0c0.3-0.1,0.6,0,0.7,0.2c0.1,0.3,0,0.6-0.2,0.7l0,0
				l-41.3,21.3l43.6-22.2c0.3-0.1,0.6,0,0.7,0.2c0.1,0.3,0,0.6-0.2,0.7L994.4,838.4c-0.3,0.1-0.6,0-0.7-0.2c-0.1-0.3,0-0.6,0.2-0.7
				l41.3-21.3l-43.6,22.2c-0.3,0.1-0.6,0-0.7-0.2c-0.1-0.2,0-0.6,0.2-0.7l189-105.8L970.6,838.4c-0.3,0.1-0.6,0-0.7-0.2
				c-0.1-0.3,0-0.6,0.2-0.7l182.2-98.5l-195.1,99.4c-0.3,0.1-0.6,0-0.7-0.2c-0.1-0.3,0-0.6,0.2-0.7l170.9-90.9l-180.2,91.8
				c-0.3,0.1-0.6,0-0.7-0.2c-0.1-0.2,0-0.6,0.2-0.7l189.2-107.7l-213,108.6c-0.3,0.1-0.6,0-0.7-0.2c-0.1-0.3,0-0.6,0.2-0.7
				l148.1-77.6l-154.2,78.6c-0.3,0.1-0.6,0-0.7-0.2c-0.1-0.3,0-0.6,0.2-0.7l178.6-95.9l-190,96.8l0,0l0,0c-0.3,0.1-0.6,0-0.7-0.2
				v-0.1l-0.7,0.4c-0.3,0.1-0.6,0-0.7-0.2c-0.1-0.2,0-0.6,0.2-0.7L1092,731L881.2,838.4c-0.3,0.1-0.6,0-0.7-0.2
				c-0.1-0.2,0-0.6,0.2-0.7l188.9-105.3L861,838.4c-0.3,0.1-0.6,0-0.7-0.2c-0.1-0.3,0-0.6,0.2-0.7l181.3-97.8L848,838.4
				c-0.3,0.1-0.6,0-0.7-0.2c-0.1-0.3,0-0.6,0.2-0.7l186.4-102l-202,102.9c-0.3,0.1-0.6,0-0.7-0.2c-0.1-0.3,0-0.6,0.2-0.7l168.3-89.3
				l-177.1,90.2c-0.3,0.1-0.6,0-0.7-0.2c-0.1-0.2,0-0.6,0.2-0.7l189.1-106.1l-210,107c-0.3,0.1-0.6,0-0.7-0.2
				c-0.1-0.2,0-0.6,0.2-0.7l189-105.7L780.6,838.4c-0.3,0.1-0.6,0-0.7-0.2c-0.1-0.3,0-0.6,0.2-0.7l169.1-89.8l-178,90.7
				c-0.3,0.1-0.6,0-0.7-0.2c-0.1-0.2,0-0.6,0.2-0.7L960,730.9L749,838.4c-0.3,0.1-0.6,0-0.7-0.2c-0.1-0.3,0-0.6,0.2-0.7l188.6-104.8
				L729.6,838.4c-0.3,0.1-0.6,0-0.7-0.2c-0.1-0.2,0-0.6,0.2-0.7l189.3-106.7L707.3,838.4l0,0l0,0c-0.3,0.1-0.6,0-0.7-0.2
				c-0.1-0.3,0-0.6,0.2-0.7l5-2.6l-6.9,3.5c-0.3,0.1-0.6,0-0.7-0.2c-0.1-0.3,0-0.6,0.2-0.7l185-100.7L689.9,838.4
				c-0.3,0.1-0.6,0-0.7-0.2c-0.1-0.3,0-0.6,0.2-0.7l188.5-104.6l-321.8,164l0,0l0,0C556,896.9,555.9,896.9,555.8,896.9z"/>
		</g>
		<g>
			<path class="st0" d="M1237.4,1076.5c-0.2,0-0.4-0.1-0.5-0.3c-0.1-0.3,0-0.6,0.2-0.7l84-46.6l-93.2,47.5c-0.2,0.1-0.6,0-0.7-0.2
				s-0.1-0.6,0.2-0.7l106.4-63.9l-105.9,53.9c-0.3,0.1-0.6,0-0.7-0.2s0-0.6,0.2-0.7l99.7-56.8l-99.2,50.6c-0.3,0.1-0.6,0-0.7-0.2
				c-0.1-0.3,0-0.6,0.2-0.7l75.2-40.3l-74.8,38.1c-0.3,0.1-0.6,0-0.7-0.2s0-0.6,0.2-0.7l103.3-60.2l-102.8,52.4
				c-0.3,0.1-0.6,0-0.7-0.2s-0.1-0.6,0.2-0.7l106.5-64.1l-106,54c-0.3,0.1-0.6,0-0.7-0.2c-0.1-0.3,0-0.6,0.2-0.7l89.7-49.3
				l-89.3,45.5c-0.2,0.1-0.6,0-0.7-0.2s-0.1-0.6,0.2-0.7l107.6-65.7l-107.1,54.6c-0.3,0.1-0.6,0-0.7-0.2s0-0.6,0.2-0.7l99.4-56.5
				l-98.9,50.4c-0.3,0.1-0.6,0-0.7-0.2c0-0.1-0.1-0.2-0.1-0.3c0-0.2,0.1-0.4,0.2-0.5l107-64.7l-106.5,54.2c-0.3,0.1-0.6,0-0.7-0.2
				c-0.1-0.3,0-0.6,0.2-0.7l87.6-47.8l-87.1,44.4c-0.3,0.1-0.6,0-0.7-0.2c-0.1-0.3,0-0.6,0.2-0.7l0,0l65.1-34.6l-64.7,33
				c-0.3,0.1-0.6,0-0.7-0.2s-0.1-0.6,0.2-0.7l106.5-64l-106,54c-0.3,0.1-0.6,0-0.7-0.2c-0.1-0.3,0-0.6,0.2-0.7l86.8-47.4l-86.3,44
				c-0.3,0.1-0.6,0-0.7-0.2s0-0.6,0.2-0.7l98.8-56l-98.4,50.1c-0.2,0.1-0.6,0-0.7-0.2s-0.1-0.6,0.2-0.7l107.9-66.1l-106.9,54.3
				c-0.3,0.1-0.6,0-0.7-0.2c-0.1-0.3,0-0.6,0.2-0.7l81.9-44.3l-81.4,41.5c-0.3,0.1-0.6,0-0.7-0.2s0-0.6,0.2-0.7l86.8-47.4l-86.4,44
				c-0.3,0.1-0.6,0-0.7-0.2s-0.1-0.6,0.2-0.7l105.9-63.3l-105.3,53.6c-0.3,0.1-0.6,0-0.7-0.2s0-0.6,0.2-0.7l99.1-56.3l-98.7,50.3
				c-0.3,0.1-0.6,0-0.7-0.2s-0.1-0.6,0.2-0.7l104.8-61.9l-104.2,53.1c-0.3,0.1-0.6,0-0.7-0.2s0-0.6,0.2-0.7l100.8-57.7l-100.3,51.1
				c-0.2,0.1-0.6,0-0.7-0.2s-0.1-0.6,0.2-0.7l107.9-66.1l-107.4,54.7c-0.2,0.1-0.6,0-0.7-0.2s-0.1-0.6,0.2-0.7l108-66.3l-107.5,54.7
				c-0.3,0.1-0.6,0-0.7-0.2c-0.1-0.1-0.1-0.3,0-0.4c-0.1-0.2,0-0.5,0.2-0.6l107.1-64.8l-106.6,54.3c-0.3,0.1-0.6,0-0.7-0.2
				s-0.1-0.6,0.2-0.7l105.4-62.7l-104.9,53.5c-0.3,0.1-0.6,0-0.7-0.2c-0.1-0.1-0.1-0.2,0-0.3c0-0.2,0.1-0.5,0.3-0.6l0,0l19.4-10.1
				l-19,9.6c-0.3,0.1-0.6,0-0.7-0.2c-0.1-0.3,0-0.6,0.2-0.7l68.7-36.6l-68.2,34.8c-0.3,0.1-0.6,0-0.7-0.2s0-0.6,0.2-0.7l97.7-55.1
				l-97.2,49.5c-0.3,0.1-0.6,0-0.7-0.2s0-0.6,0.2-0.7l99.8-56.8l-99.3,50.6c-0.3,0.1-0.6,0-0.7-0.2c-0.1-0.3,0-0.6,0.2-0.7
				l80.1-43.2l-79.6,40.4c-0.2,0.1-0.6,0-0.7-0.2s-0.1-0.6,0.2-0.7l107.6-65.6l-111.5,56.8c-0.3,0.1-0.6,0-0.7-0.2
				c-0.1-0.3,0-0.6,0.2-0.7l98.7-54.9l-109.6,55.8c-0.2,0.1-0.6,0-0.7-0.2s0-0.6,0.2-0.7l119.3-69.7l-138.5,70.6
				c-0.3,0.1-0.6,0-0.7-0.2s0-0.6,0.2-0.7l136.5-78.3l-155.5,79.3c-0.3,0.1-0.6,0-0.7-0.2s0-0.6,0.2-0.7l157.9-91.8l-181.9,92.7
				c-0.3,0.1-0.6,0-0.7-0.2c-0.1-0.3,0-0.6,0.2-0.7l170.4-93.9l-186,94.8c-0.3,0.1-0.6,0-0.7-0.2c-0.1-0.3,0-0.6,0.2-0.7L1315,737.4
				l-198.3,101.1c-0.3,0.1-0.6,0-0.7-0.2c-0.1-0.3,0-0.6,0.2-0.7l0,0l128.1-66.7l-132.8,67.6c-0.3,0.1-0.6,0-0.7-0.2s0-0.6,0.2-0.7
				L1323.1,719l-234.6,119.5c-0.3,0.1-0.6,0-0.7-0.2c-0.1-0.3,0-0.6,0.2-0.7L1316.7,712l-248,126.3c-0.3,0.1-0.6,0-0.7-0.2
				c-0.1-0.3,0-0.6,0.2-0.7l199.7-104.6l-207.2,105.6c-0.3,0.1-0.6,0-0.7-0.2c-0.1-0.3,0-0.6,0.2-0.7l153.1-79.4l-157.6,80.3
				c-0.3,0.1-0.6,0-0.7-0.2c-0.1-0.3,0-0.6,0.2-0.7l256.1-138.9l-274.4,139.8c-0.3,0.1-0.6,0-0.7-0.2c-0.1-0.3,0-0.6,0.2-0.7
				l155.4-80.4l-159.5,81.3c-0.3,0.1-0.6,0-0.7-0.2c-0.1-0.3,0-0.6,0.2-0.7l267.5-142.9l-282.2,143.8c-0.3,0.1-0.6,0-0.7-0.2
				c-0.1-0.3,0-0.6,0.2-0.7l0,0l220.5-114.7l-227,115.6c-0.3,0.1-0.6,0-0.7-0.2c-0.1-0.3,0-0.6,0.2-0.7l0,0l277.5-146.8l-290,147.8
				l0,0l0,0c-0.3,0.1-0.6,0-0.7-0.2c-0.1-0.3,0-0.6,0.2-0.7l230.5-118.5c-0.1-0.2,0-0.5,0.2-0.7l75.1-40.3l-74.7,38
				c-0.3,0.1-0.6,0-0.7-0.2s0-0.6,0.2-0.7l100.3-57.3l-99.8,50.9c-0.3,0.1-0.6,0-0.7-0.2s0-0.6,0.2-0.7l86.3-47l-85.8,43.7
				c-0.3,0.1-0.6,0-0.7-0.2c-0.1-0.3,0-0.6,0.2-0.7l79.7-43l-79.2,40.4c-0.3,0.1-0.6,0-0.7-0.2s0-0.6,0.2-0.7l99-56.2l-98.3,50
				c-0.3,0.1-0.6,0-0.7-0.2c-0.1-0.3,0-0.6,0.2-0.7l89.3-49l-88.8,45.2c-0.3,0.1-0.6,0-0.7-0.2c-0.1-0.3,0-0.6,0.2-0.7l24.9-13
				l-24.4,12.4c-0.3,0.1-0.6,0-0.7-0.2s0-0.6,0.2-0.7l100.8-57.7l-100.3,51.1c-0.3,0.1-0.6,0-0.7-0.2s0-0.6,0.2-0.7l98.6-55.8
				l-98.1,50c-0.2,0.1-0.6,0-0.7-0.2s-0.1-0.6,0.2-0.7l107.1-64.9l-106.6,54.3c-0.3,0.1-0.6,0-0.7-0.2s0-0.6,0.2-0.7l100.5-57.5
				l-100,50.9c-0.3,0.1-0.6,0-0.7-0.2c-0.1-0.3,0-0.6,0.2-0.7l80-43.1l-79.5,40.5c-0.3,0.1-0.6,0-0.7-0.2s0-0.6,0.2-0.7l93.1-51.6
				l-92.6,47.2c-0.3,0.1-0.6,0-0.7-0.2s0-0.6,0.2-0.7l104.3-61.3l-103.8,52.8c-0.3,0.1-0.6,0-0.7-0.2s0-0.6,0.2-0.7L1330,576
				l-102.1,52c-0.3,0.1-0.6,0-0.7-0.2c-0.1-0.3,0-0.6,0.2-0.7l91.9-50.8l-91.4,46.7c-0.3,0.1-0.6,0-0.7-0.2s0-0.5,0.2-0.7
				c-0.1,0-0.1-0.1-0.2-0.2c-0.1-0.2-0.1-0.6,0.2-0.7l106.4-63.9l-105.9,54c-0.3,0.1-0.6,0-0.7-0.2c-0.1-0.1-0.1-0.2,0-0.3
				c0-0.2,0.1-0.4,0.3-0.6l97.9-55.3l-97.4,49.7c-0.2,0.1-0.6,0-0.7-0.2s-0.1-0.6,0.2-0.7l108-66.3L1227.9,592
				c-0.2,0.1-0.6,0-0.7-0.2s-0.1-0.6,0.2-0.7l106.5-64.1l-106,54c-0.2,0.1-0.6,0-0.7-0.2s-0.1-0.6,0.2-0.7l106.9-64.6l-106.4,54.2
				c-0.3,0.1-0.6,0-0.7-0.2c-0.1-0.3,0-0.6,0.2-0.7c-0.1,0-0.2-0.1-0.2-0.2c-0.1-0.2,0-0.6,0.2-0.7l102.6-59.5l-102.1,52
				c-0.3,0.1-0.6,0-0.7-0.2s0-0.6,0.2-0.7L1328,502l-100.1,51c-0.3,0.1-0.6,0-0.7-0.2s0-0.6,0.2-0.7l103.9-60.8l-103.4,52.6
				c-0.2,0.1-0.6,0-0.7-0.2s-0.1-0.6,0.2-0.7l107.1-64.9l-106.6,54.3c-0.2,0.1-0.6,0-0.7-0.2s-0.1-0.6,0.2-0.7l106.1-63.5
				l-105.6,53.7c-0.3,0.1-0.6,0-0.7-0.2c-0.1-0.3,0-0.6,0.2-0.7l63.8-33.8l-63.3,32.3c-0.2,0.1-0.6,0-0.7-0.2s-0.1-0.6,0.2-0.7
				l107.9-66.1l-107.4,54.6c-0.3,0.1-0.6,0-0.7-0.2s0-0.6,0.2-0.7l97.2-54.7l-96.7,49.3c-0.3,0.1-0.6,0-0.7-0.2
				c-0.1-0.3,0-0.6,0.2-0.7l84.1-45.6l-83.6,42.6c-0.3,0.1-0.6,0-0.7-0.2c-0.1-0.3,0-0.6,0.2-0.7l92.6-51.3l-92.1,46.9
				c-0.3,0.1-0.6,0-0.7-0.2s0-0.6,0.2-0.7l101-58l-100.5,51.3c-0.3,0.1-0.6,0-0.7-0.2s0-0.6,0.2-0.7l95.7-53.5l-95.2,48.5
				c-0.3,0.1-0.6,0-0.7-0.2c0-0.1-0.1-0.2-0.1-0.3c0-0.2,0.1-0.4,0.3-0.5l104.2-61.2l-103.7,52.8c-0.3,0.1-0.6,0-0.7-0.2
				s0-0.6,0.2-0.7l95.4-53.3l-94.9,48.4c-0.2,0.1-0.6,0-0.7-0.2s-0.1-0.6,0.2-0.7l106.4-64l-105.9,54c-0.2,0.1-0.6,0-0.7-0.2
				s-0.1-0.6,0.2-0.7l108-66.3l-107.5,54.6c-0.3,0.1-0.6,0-0.7-0.2c-0.1-0.3,0-0.6,0.2-0.7l83.7-45.4l-83.2,42.4
				c-0.3,0.1-0.6,0-0.7-0.2c-0.1-0.3,0-0.6,0.2-0.7l50.5-26.6l-50,25.5c-0.3,0.1-0.6,0-0.7-0.2s0-0.6,0.2-0.7l103.5-60.5l-103,52.5
				c-0.2,0.1-0.6,0-0.7-0.2s-0.1-0.6,0.2-0.7l106.1-63.5l-105.6,53.8c-0.3,0.1-0.6,0-0.7-0.2s0-0.6,0.2-0.7l95.7-53.5l-95.2,48.5
				c-0.3,0.1-0.6,0-0.7-0.2s0-0.6,0.2-0.7l103.8-60.8l-103.3,52.6c-0.3,0.1-0.6,0-0.7-0.2s0-0.6,0.2-0.7l95.6-53.5l-95.1,48.5
				c-0.3,0.1-0.6,0-0.7-0.2s0-0.6,0.2-0.7l100.9-57.8l-100.4,51.1c-0.3,0.1-0.6,0-0.7-0.2c-0.1-0.3,0-0.6,0.2-0.7l87.4-47.7
				l-86.9,44.3c-0.3,0.1-0.6,0-0.7-0.2s0-0.6,0.2-0.7l95.3-53.2l-94.8,48.3c-0.2,0.1-0.6,0-0.7-0.2s-0.1-0.6,0.2-0.7l106.1-63.5
				l-105.6,53.7c-0.3,0.1-0.6,0-0.7-0.2c-0.1-0.3,0-0.6,0.2-0.7l59.9-31.7l-59.4,30.3c-0.2,0.1-0.6,0-0.7-0.2s-0.1-0.6,0.2-0.7
				l105.4-62.6l-104.9,53.4c-0.3,0.1-0.6,0-0.7-0.2s0-0.6,0.2-0.7l99.5-56.6l-99,50.5c-0.3,0.1-0.6,0-0.7-0.2s0-0.6,0.2-0.7
				l94.2-52.4l-93.8,47.8c-0.3,0.1-0.6,0-0.7-0.2s0-0.6,0.2-0.7l101.1-58l-100.5,51.1c-0.2,0.1-0.6,0-0.7-0.2s-0.1-0.6,0.2-0.7
				l107.8-66l-107.3,54.6c-0.3,0.1-0.6,0-0.7-0.2s0-0.6,0.2-0.7l100.2-57.2l-99.7,50.8c-0.2,0.1-0.6,0-0.7-0.2s-0.1-0.6,0.2-0.7
				l107.8-66L1227.9,300c-0.3,0.1-0.6,0-0.7-0.2c-0.1-0.3,0-0.6,0.2-0.7l55.5-29.3l-55,28c-0.3,0.1-0.6,0-0.7-0.2s0-0.6,0.2-0.7
				l103.1-60l-102.6,52.2c-0.3,0.1-0.6,0-0.7-0.2s0-0.6,0.2-0.7l95.3-53.2l-94.8,48.3c-0.3,0.1-0.6,0-0.7-0.2
				c-0.1-0.3,0-0.6,0.2-0.7l80.1-43.2l-79.6,40.6c-0.2,0.1-0.6,0-0.7-0.2s0-0.6,0.2-0.7l104-61l-103.5,52.7c-0.3,0.1-0.6,0-0.7-0.2
				c-0.1-0.3,0-0.6,0.2-0.7l27.7-14.4l-27.2,13.9c-0.3,0.1-0.6,0-0.7-0.2c-0.1-0.3,0-0.6,0.2-0.7l92.7-51.3l-92.2,47
				c-0.3,0.1-0.6,0-0.7-0.2c-0.1-0.1-0.1-0.3,0-0.5c-0.1-0.2,0-0.6,0.2-0.7l32.1-16.8l-31.6,16.1c-0.3,0.1-0.6,0-0.7-0.2
				s-0.1-0.6,0.2-0.7l105.4-62.6l-104.9,53.3c-0.2,0.1-0.6,0-0.7-0.2s-0.1-0.5,0.2-0.7l108.1-66.5l-107.6,54.9
				c-0.3,0.1-0.6,0-0.7-0.2c-0.1-0.3,0-0.6,0.2-0.7l84-45.6l-83.5,42.6c-0.3,0.1-0.6,0-0.7-0.2c-0.1-0.3,0-0.6,0.2-0.7l54.4-28.7
				l-53.9,27.5c-0.3,0.1-0.6,0-0.7-0.2c-0.1-0.3,0-0.6,0.2-0.7l89.8-49.3l-89.4,45.5c-0.2,0.1-0.6,0-0.7-0.2s-0.1-0.6,0.2-0.7
				l106.5-64.1l-106,54c-0.3,0.1-0.6,0-0.7-0.2s-0.1-0.6,0.2-0.7l104.9-62l-104.3,53c-0.3,0.1-0.6,0-0.7-0.2c0-0.1-0.1-0.2-0.1-0.3
				c0-0.2,0.1-0.4,0.3-0.5l95.5-53.4l-95,48.4c-0.3,0.1-0.6,0-0.7-0.2s0-0.6,0.2-0.7l103-59.9L1227.9,193c-0.2,0.1-0.6,0-0.7-0.2
				s-0.1-0.5,0.2-0.7l108.1-66.5l-107.6,54.8c-0.3,0.1-0.6,0-0.7-0.2c-0.1-0.3,0-0.6,0.2-0.7l79.7-42.9l-79.2,40.3
				c-0.3,0.1-0.6,0-0.7-0.2s0-0.6,0.2-0.7l104.2-61.2l-103.7,52.8c-0.3,0.1-0.6,0-0.7-0.2c-0.1-0.3,0-0.6,0.2-0.7l88.6-48.5
				l-88.1,44.9c-0.3,0.1-0.6,0-0.7-0.2c-0.1-0.3,0-0.6,0.2-0.7l87-47.5l-86.5,44.1c-0.3,0.1-0.6,0-0.7-0.2c-0.1-0.3,0-0.6,0.2-0.7
				l54.2-28.6l-53.7,27.4c-0.3,0.1-0.6,0-0.7-0.2s0-0.6,0.2-0.7l97.5-55.2l-97.7,49.8c-0.3,0.1-0.6,0-0.7-0.2
				c-0.1-0.3,0-0.6,0.2-0.7l79.8-43.1l-80.1,40.8c-0.3,0.1-0.6,0-0.7-0.2c-0.1-0.3,0-0.6,0.2-0.7l0.2-0.1h-0.1
				c-0.3,0.1-0.6,0-0.7-0.2s0-0.6,0.2-0.7l91.5-50.6l-92.8,47.3c-0.3,0.1-0.6,0-0.7-0.2s0-0.6,0.2-0.7l95.4-53.4l-97.7,49.8
				c-0.3,0.1-0.6,0-0.7-0.2s-0.1-0.6,0.2-0.7L1325.8,74l-110.9,56.4c-0.3,0.1-0.6,0-0.7-0.2c-0.1-0.3,0-0.6,0.2-0.7l0.3-0.1
				l-0.8,0.4c-0.3,0.1-0.6,0-0.7-0.2s0-0.6,0.2-0.7L1314.5,72l-106.6,54.3c-0.3,0.1-0.6,0-0.7-0.2l0,0c-0.3,0.1-0.6,0-0.7-0.2
				c-0.1-0.3,0-0.6,0.2-0.7l96.6-52.8l-102.1,52c-0.2,0.1-0.6,0-0.7-0.2s-0.1-0.6,0.2-0.7L1315,56l-132.8,67.7
				c-0.3,0.1-0.6,0-0.7-0.2c-0.1-0.3,0-0.6,0.2-0.7l101.2-54.2l-108.1,55.1c-0.3,0.1-0.6,0-0.7-0.2s0-0.6,0.2-0.7l130.6-75.5
				l-150,76.4c-0.3,0.1-0.6,0-0.7-0.2s0-0.6,0.2-0.7l143.5-83.2l-165,84.1c-0.3,0.1-0.6,0-0.7-0.2s0-0.6,0.2-0.7L1289,31.7
				L989.6,184.3c-0.3,0.1-0.6,0-0.7-0.2c-0.1-0.3,0-0.6,0.2-0.7L1265.8,31L989.6,171.8c-0.3,0.1-0.6,0-0.7-0.2
				c-0.1-0.3,0-0.6,0.2-0.7l264.3-145.6L989.5,159.7c-0.3,0.1-0.6,0-0.7-0.2c-0.1-0.3,0-0.6,0.2-0.7l209.7-110L989.5,155.4
				c-0.3,0.1-0.6,0-0.7-0.2c-0.1-0.3,0-0.6,0.2-0.7l237.6-128.2L989.5,147.1c-0.3,0.1-0.6,0-0.7-0.2c-0.1-0.3,0-0.6,0.2-0.7
				l229.7-125.9L989.5,137c-0.3,0.1-0.6,0-0.7-0.2c-0.1-0.3,0-0.6,0.2-0.7l187.1-98.7l-186.6,95.1c-0.3,0.1-0.6,0-0.7-0.2
				c-0.1-0.3,0-0.6,0.2-0.7l203-111.1L989.4,123.7c-0.3,0.1-0.6,0-0.7-0.2c-0.1-0.2,0-0.6,0.2-0.7L1178.8,15L965.5,123.7
				c-0.3,0.1-0.6,0-0.7-0.2c-0.1-0.3,0-0.6,0.2-0.7l180.7-97.3L953,123.7c-0.3,0.1-0.6,0-0.7-0.2c-0.1-0.3,0-0.6,0.2-0.7l174.4-93
				l-184.2,93.9c-0.3,0.1-0.6,0-0.7-0.2c-0.1-0.2,0-0.6,0.2-0.7l188.5-104.2L924.4,123.7c-0.3,0.1-0.6,0-0.7-0.2
				c-0.1-0.3,0-0.6,0.2-0.7l153.5-80.6l-160.1,81.6c-0.3,0.1-0.6,0-0.7-0.2c-0.1-0.2,0-0.6,0.2-0.7l189.7-106.5L895.7,123.7
				c-0.3,0.1-0.6,0-0.7-0.2c-0.1-0.3,0-0.6,0.2-0.7l188-103.6l-205,104.5c-0.3,0.1-0.6,0-0.7-0.2c-0.1-0.2,0-0.6,0.2-0.7
				l189.8-106.7L856.3,123.7c-0.3,0.1-0.6,0-0.7-0.2c-0.1-0.3,0-0.6,0.2-0.7l147.1-77.1l-153.1,78c-0.3,0.1-0.6,0-0.7-0.2
				c-0.1-0.3,0-0.6,0.2-0.7l119.3-62l-123.6,63c-0.3,0.1-0.6,0-0.7-0.2c-0.1-0.3,0-0.6,0.2-0.7L1005,38.3l-167.9,85.6
				c-0.1,0.1-0.3,0.1-0.4,0c-0.2,0.1-0.5,0-0.6-0.3s0-0.6,0.2-0.7l133.2-69.5l-138.2,70.4l0,0l0,0c-0.3,0.1-0.6,0-0.7-0.2
				c-0.1-0.3,0-0.6,0.2-0.7l0,0l88.1-45.6l-91.4,46.6c-0.3,0.1-0.6,0-0.7-0.2c-0.1-0.3,0-0.6,0.2-0.7l180.2-96.9l-191.9,97.8
				c-0.3,0.1-0.6,0-0.7-0.2c-0.1-0.2,0-0.6,0.2-0.7l190-108L791.5,123.7c-0.3,0.1-0.6,0-0.7-0.2c-0.1-0.3,0-0.6,0.2-0.7l181.6-97.9
				l-193.9,98.8c-0.3,0.1-0.6,0-0.7-0.2c0-0.1-0.1-0.1-0.1-0.2l-0.9,0.4c-0.3,0.1-0.6,0-0.7-0.2c-0.1-0.3,0-0.6,0.2-0.7l0,0
				l170.2-90.4l-179.2,91.3c-0.3,0.1-0.6,0-0.7-0.2c-0.1-0.3,0-0.6,0.2-0.7L955.1,19.3L750.3,123.7c-0.3,0.1-0.6,0-0.7-0.2
				c-0.1-0.3,0-0.6,0.2-0.7l0,0l170.5-90.6l-179.6,91.5c-0.3,0.1-0.6,0-0.7-0.2c-0.1-0.2,0-0.6,0.2-0.7L928.8,18.6L722.6,123.7
				c-0.3,0.1-0.6,0-0.7-0.2c-0.1-0.2,0-0.6,0.2-0.7L910.6,18.6L704.4,123.7c-0.3,0.1-0.6,0-0.7-0.2c-0.1-0.3,0-0.6,0.2-0.7l0,0
				l121.3-63.1l-125.7,64c-0.3,0.1-0.6,0-0.7-0.2c-0.1-0.2,0-0.6,0.2-0.7L887.6,18.5L681.2,123.7c-0.1,0.1-0.2,0.1-0.3,0
				c-0.2,0-0.5-0.1-0.6-0.3c-0.1-0.3,0-0.6,0.2-0.7l0,0l158.6-83.6l-165.8,84.5c-0.3,0.1-0.6,0-0.7-0.2c-0.1-0.2,0-0.6,0.2-0.7
				L862,17.7l-208,106c-0.3,0.1-0.6,0-0.7-0.2c-0.1-0.3,0-0.6,0.2-0.7l183-99l-196.1,99.9c-0.3,0.1-0.6,0-0.7-0.2
				c-0.1-0.3,0-0.6,0.2-0.7l162.8-85.9l-170.5,86.9c-0.3,0.1-0.6,0-0.7-0.2c-0.1-0.3,0-0.6,0.2-0.7l189-104.8L613.5,123.7
				c-0.3,0.1-0.6,0-0.7-0.2c-0.1-0.2,0-0.6,0.2-0.7L802,18L594.4,123.7c-0.3,0.1-0.6,0-0.7-0.2c-0.1-0.3,0-0.6,0.2-0.7l128.4-66.9
				l-133.1,67.8c-0.3,0.1-0.6,0-0.7-0.2c-0.1-0.3,0-0.6,0.2-0.7l123.8-64.5l-128.3,65.4c-0.3,0.1-0.6,0-0.7-0.2
				c-0.1-0.2,0-0.6,0.2-0.7L772.6,18.2L565.5,123.7c-0.3,0.1-0.6,0-0.7-0.2c-0.1-0.3,0-0.6,0.2-0.7L751.7,20.6l-202.2,103
				c-0.3,0.1-0.6,0-0.7-0.2c-0.1-0.3,0-0.6,0.2-0.7l186.6-102l-202,102.9c-0.3,0.1-0.6,0-0.7-0.2c-0.1-0.2,0-0.6,0.2-0.7L723,15.1
				L509.9,123.7c-0.3,0.1-0.6,0-0.7-0.2c-0.1-0.3,0-0.6,0.2-0.7l0,0l102-52.9l-105.7,53.8c-0.3,0.1-0.6,0-0.7-0.2
				c-0.1-0.3,0-0.6,0.2-0.7l0,0l146.1-76.5l-152,77.5c-0.3,0.1-0.6,0-0.7-0.2c-0.1-0.3,0-0.6,0.2-0.7l0,0l149.9-78.7l-156.2,79.6
				c-0.3,0.1-0.6,0-0.7-0.2s0-0.6,0.2-0.7L681.9,16.3L471.1,123.7l0,0l0,0c-0.3,0.1-0.6,0-0.7-0.2c-0.1-0.3,0-0.6,0.2-0.7l76.7-39.7
				l-79.7,40.6c-0.3,0.1-0.6,0-0.7-0.2c-0.1-0.3,0-0.6,0.2-0.7l0,0l156.4-82.3l-163.4,83.2c-0.3,0.1-0.6,0-0.7-0.2s0-0.6,0.2-0.7
				l190-107.9L436,123.7c-0.3,0.1-0.6,0-0.7-0.2s0-0.6,0.2-0.7l189.1-105L416.8,123.7c-0.3,0.1-0.6,0-0.7-0.2
				c-0.1-0.3,0-0.6,0.2-0.7l186-101.4L401.4,123.7c-0.3,0.1-0.6,0-0.7-0.2c-0.1-0.3,0-0.6,0.2-0.7l187.5-103L384.6,123.7
				c-0.3,0.1-0.6,0-0.7-0.2s0-0.6,0.2-0.7L574,15.8L362.2,123.7c-0.3,0.1-0.6,0-0.7-0.2c-0.1-0.3,0-0.6,0.2-0.7l173.8-92.6
				l-183.6,93.5c-0.3,0.1-0.6,0-0.7-0.2c-0.1-0.3,0-0.6,0.2-0.7l176.1-94.1l-186.4,95c-0.3,0.1-0.6,0-0.7-0.2s0-0.6,0.2-0.7
				l189.8-108L316.7,123.7c-0.3,0.1-0.6,0-0.7-0.2c-0.1-0.3,0-0.6,0.2-0.7l148-77.6l-154.1,78.5c-0.3,0.1-0.6,0-0.7-0.2
				c-0.1-0.3,0-0.6,0.2-0.7l181.7-98l-194.1,98.9c-0.3,0.1-0.6,0-0.7-0.2s0-0.6,0.2-0.7L473.8,28L286,123.7c-0.3,0.1-0.6,0-0.7-0.2
				c-0.1-0.3,0-0.6,0.2-0.7L472.9,20L269.4,123.7c-0.3,0.1-0.6,0-0.7-0.2c-0.1-0.3,0-0.6,0.2-0.7l0,0L402.6,53l-138.7,70.7
				c-0.3,0.1-0.6,0-0.7-0.2s0-0.6,0.2-0.7L453.2,14.6L239,123.7c-0.3,0.1-0.6,0-0.7-0.2c-0.1-0.3,0-0.6,0.2-0.7L426.7,19.1
				L221.5,123.7l0,0l0,0c-0.3,0.1-0.6,0-0.7-0.2c-0.1-0.3,0-0.6,0.2-0.7l57.1-29.5l-59.6,30.4c-0.3,0.1-0.6,0-0.7-0.2
				c-0.1-0.3,0-0.6,0.2-0.7L403.9,21.4L203.1,123.7l0,0l0,0c-0.3,0.1-0.6,0-0.7-0.2c-0.1-0.3,0-0.6,0.2-0.7l0,0l91.3-47.3
				l-94.6,48.2c-0.3,0.1-0.6,0-0.7-0.2c-0.1-0.3,0-0.6,0.2-0.7l144.1-75.5L193,123.7c-0.3,0.1-0.6,0-0.7-0.2c-0.1-0.3,0-0.6,0.2-0.7
				L337.3,47l-150.5,76.7c-0.3,0.1-0.6,0-0.7-0.2c-0.1-0.2,0-0.6,0.2-0.7L376.2,15.2l-213,108.5c-0.3,0.1-0.6,0-0.7-0.2
				c-0.1-0.3,0-0.6,0.2-0.7l166.6-88.2l-175,89.2c-0.3,0.1-0.6,0-0.7-0.2c-0.1-0.3,0-0.6,0.2-0.7L339.1,22.1L139.7,123.7
				c-0.3,0.1-0.6,0-0.7-0.2c-0.1-0.2,0-0.6,0.2-0.7l189.1-105L120.4,123.7c-0.3,0.1-0.6,0-0.7-0.2s0-0.6,0.2-0.7l0,0L275.5,41
				l-162.4,82.7c-0.3,0.1-0.6,0-0.7-0.2s0-0.6,0.2-0.7l189.9-108L88.8,123.7c-0.3,0.1-0.6,0-0.7-0.2c-0.1-0.3,0-0.6,0.2-0.7
				l147.8-77.5L82.3,123.7c-0.3,0.1-0.6,0-0.7-0.2s0-0.6,0.2-0.7L271.5,16.4L61.1,123.7c-0.3,0.1-0.6,0-0.7-0.2
				c-0.1-0.3,0-0.6,0.2-0.7l182.3-98.4l-195,99.3l0,0l0,0c-0.3,0.1-0.6,0-0.7-0.2c-0.1-0.3,0-0.6,0.2-0.7l56-28.9l-58.5,29.8
				c-0.3,0.1-0.6,0-0.7-0.2c-0.1-0.3,0-0.6,0.2-0.7L232.1,19.6L27.9,123.7c-0.3,0.1-0.6,0-0.7-0.2c-0.1-0.3,0-0.6,0.2-0.7
				l147.7-77.4L21.4,123.7c-0.3,0.1-0.6,0-0.7-0.2c-0.1-0.3,0-0.6,0.2-0.7l177.7-95.1L10,123.7l0,0l0,0c-0.2,0.1-0.5,0.1-0.6-0.1
				l-0.2,0.1c-0.3,0.1-0.6,0-0.7-0.2c-0.1-0.2,0-0.6,0.2-0.7L195.9,20.2L3.4,118.3c-0.3,0.1-0.6,0-0.7-0.2c-0.1-0.2,0-0.6,0.2-0.7
				l178.9-98.9L3.4,109.4c-0.3,0.1-0.6,0-0.7-0.2c-0.1-0.3,0-0.6,0.2-0.7l149-79.6L3.4,104.6c-0.3,0.1-0.6,0-0.7-0.2
				c-0.1-0.3,0-0.6,0.2-0.7l147.8-79.9L3.4,98.8c-0.3,0.1-0.6,0-0.7-0.2c-0.1-0.2,0-0.6,0.2-0.7l145.7-82.2L3.4,89.7
				c-0.3,0.1-0.6,0-0.7-0.2c-0.1-0.3,0-0.6,0.2-0.7l119.7-64.7L3.4,84.9c-0.3,0.1-0.6,0-0.7-0.2c-0.1-0.2,0-0.6,0.2-0.7l121.8-69.7
				L3.4,76.1c-0.3,0.1-0.6,0-0.7-0.2c-0.1-0.1-0.1-0.3,0-0.4c-0.1-0.2,0-0.5,0.2-0.6L109.2,13L3.4,66.9c-0.3,0.1-0.6,0-0.7-0.2
				c-0.1-0.3-0.1-0.6,0.2-0.7l91.2-53.9L3.4,58.3c-0.2,0.1-0.5,0-0.7-0.2c-0.1-0.2-0.1-0.5,0.2-0.7L78.2,9.5L3.4,47.6
				c-0.3,0.1-0.6,0-0.7-0.2c-0.1-0.2-0.1-0.4,0-0.5l0,0c-0.1-0.2-0.1-0.5,0.2-0.7L60.4,9.4l-57,29.1c-0.2,0.1-0.5,0-0.7-0.2
				c-0.1-0.2-0.1-0.5,0.1-0.7L43.6,7.4L3.4,27.9c-0.2,0.1-0.5,0-0.7-0.2c-0.1-0.2-0.1-0.5,0.2-0.7L30.3,8.2L3.4,21.9
				c-0.2,0.1-0.5,0-0.7-0.2c-0.1-0.2-0.1-0.5,0.1-0.7L21,7.1l-17.6,9C3.2,16.2,3,16.2,2.8,16c-0.2-0.1-0.2-0.3-0.2-0.5L5.5,5.1
				L3.3,6.2C3.1,6.3,2.9,6.3,2.7,6.1C2.6,6,2.6,5.8,2.6,5.6l0.3-0.8c-0.1,0-0.2-0.1-0.2-0.2C2.5,4.4,2.6,4,2.9,3.9l0.6-0.3
				c0.2-0.1,0.4-0.1,0.6,0.1c0.2,0.1,0.2,0.4,0.2,0.6L4.1,4.8l2.1-1.1c0.2-0.1,0.4-0.1,0.6,0.1C6.9,3.8,7,4,6.9,4.2L4,14.6l21.7-11
				c0.2-0.1,0.5,0,0.7,0.2c0.1,0.2,0.1,0.5-0.1,0.7L8,18.4L37,3.6c0.2-0.1,0.5,0,0.7,0.2c0.1,0.2,0.1,0.5-0.2,0.7L10,23.3L48.7,3.6
				c0.2-0.1,0.5,0,0.7,0.2c0.1,0.2,0.1,0.5-0.1,0.7L8.5,34.6l60.9-31c0.2-0.1,0.5,0,0.7,0.2c0.1,0.2,0.1,0.5-0.2,0.7L12.3,41.3
				l74-37.7c0.3-0.1,0.6,0,0.7,0.2l0,0l0.4-0.2c0.2-0.1,0.5,0,0.7,0.2c0.1,0.2,0.1,0.5-0.2,0.7L12.7,52.4l95.7-48.8
				c0.2-0.1,0.6,0,0.7,0.2s0.1,0.6-0.2,0.7l-91.2,54L125.3,3.6c0.3-0.1,0.6,0,0.7,0.2c0.1,0.2,0,0.6-0.2,0.7L19.5,66.4L142.6,3.6
				c0.2-0.1,0.4-0.1,0.6,0.1l0.1-0.1c0.3-0.1,0.6,0,0.7,0.2c0.1,0.2,0,0.6-0.2,0.7L22,74.2L160.5,3.6c0.3-0.1,0.6,0,0.7,0.2
				c0.1,0.3,0,0.6-0.2,0.7L41.3,69.2L170,3.6c0.3-0.1,0.6,0,0.7,0.2c0.1,0.2,0,0.6-0.2,0.7L24.8,86.7L187.9,3.6
				c0.3-0.1,0.6,0,0.7,0.2s0,0.6-0.2,0.7l-147.8,80L199.2,3.6c0.3-0.1,0.6,0,0.7,0.2c0.1,0.3,0,0.6-0.2,0.7L50.8,84.1L208.7,3.6
				c0.3-0.1,0.6,0,0.7,0.2c0.1,0.2,0,0.6-0.2,0.7L30.3,103.4L226.2,3.6c0.3-0.1,0.6,0,0.7,0.2c0.1,0.3,0,0.6-0.2,0.7L39.5,107.1
				l203-103.5l0,0l0,0c0.2-0.1,0.5-0.1,0.6,0.1l0.2-0.1c0.3-0.1,0.6,0,0.7,0.2c0.1,0.3,0,0.6-0.2,0.7L66.2,99.7L254.7,3.6
				c0.3-0.1,0.6,0,0.7,0.2s0,0.6-0.2,0.7L107.5,82L261.3,3.6c0.3-0.1,0.6,0,0.7,0.2c0.1,0.3,0,0.6-0.2,0.7L74,107.7L278.3,3.6l0,0
				l0,0c0.3-0.1,0.6,0,0.7,0.2c0.1,0.3,0,0.6-0.2,0.7l-56,28.9l58.6-29.8c0.3-0.1,0.6,0,0.7,0.2c0.1,0.3,0,0.6-0.2,0.7L99.6,102.9
				L294.4,3.6c0.3-0.1,0.6,0,0.7,0.2s0,0.6-0.2,0.7L105.2,110.9L315.7,3.6c0.3-0.1,0.6,0,0.7,0.2c0.1,0.3,0,0.6-0.2,0.7L168.3,82
				L322.2,3.6c0.3-0.1,0.6,0,0.7,0.2s0,0.6-0.2,0.7l-189.8,108L346.5,3.6c0.3-0.1,0.6,0,0.7,0.2c0.1,0.3,0,0.6-0.2,0.7l0,0
				L191.4,86.4L353.8,3.6c0.3-0.1,0.6,0,0.7,0.2s0,0.6-0.2,0.7l-189.1,105L373.1,3.6c0.3-0.1,0.6,0,0.7,0.2s0,0.6-0.2,0.7
				L188.4,105.2L387.8,3.6c0.3-0.1,0.6,0,0.7,0.2c0.1,0.3,0,0.6-0.2,0.7L221.6,92.8l175-89.2c0.3-0.1,0.6,0,0.7,0.2s0,0.6-0.2,0.7
				L207.2,112.1L420.1,3.6c0.3-0.1,0.6,0,0.7,0.2c0.1,0.3,0,0.6-0.2,0.7L275.9,80.3L426.4,3.6c0.3-0.1,0.6,0,0.7,0.2
				c0.1,0.3,0,0.6-0.2,0.7L282.8,80L432.7,3.6c0.3-0.1,0.6,0,0.7,0.2c0.1,0.3,0,0.6-0.2,0.7l-91.3,47.3l94.5-48.2
				c0.3-0.1,0.6,0,0.7,0.2c0.1,0.3,0,0.6-0.2,0.7L251,105.9L451.8,3.6l0,0l0,0c0.3-0.1,0.6,0,0.7,0.2c0.1,0.3,0,0.6-0.2,0.7
				L395.2,34l59.7-30.4c0.3-0.1,0.6,0,0.7,0.2c0.1,0.3,0,0.6-0.2,0.7L267.2,108.2L472.4,3.6c0.3-0.1,0.6,0,0.7,0.2s0,0.6-0.2,0.7
				L283.1,112.7L497.2,3.6c0.3-0.1,0.6,0,0.7,0.2c0.1,0.3,0,0.6-0.2,0.7L364,74.3L502.7,3.6c0.3-0.1,0.6,0,0.7,0.2
				c0.1,0.3,0,0.6-0.2,0.7L315.9,107.3L519.4,3.6c0.3-0.1,0.6,0,0.7,0.2s0,0.6-0.2,0.7L342.8,99.3L530.6,3.6c0.3-0.1,0.6,0,0.7,0.2
				c0.1,0.3,0,0.6-0.2,0.7l-181.7,98l194-98.9c0.3-0.1,0.6,0,0.7,0.2c0.1,0.3,0,0.6-0.2,0.7l0,0l-148,77.6L550,3.6
				c0.3-0.1,0.6,0,0.7,0.2c0.1,0.2,0,0.6-0.2,0.7l-189.8,108L574.4,3.6c0.3-0.1,0.6,0,0.7,0.2s0,0.6-0.2,0.7l-176,94.1l186.4-95
				c0.3-0.1,0.6,0,0.7,0.2c0.1,0.3,0,0.6-0.2,0.7L412,97.2L595.6,3.6c0.3-0.1,0.6,0,0.7,0.2c0.1,0.2,0,0.6-0.2,0.7l-189.9,107
				L617.9,3.6c0.3-0.1,0.6,0,0.7,0.2c0.1,0.3,0,0.6-0.2,0.7l-187.5,103L634.7,3.6c0.3-0.1,0.6,0,0.7,0.2c0.1,0.3,0,0.6-0.2,0.7
				L449.2,106L650.1,3.6c0.3-0.1,0.6,0,0.7,0.2c0.1,0.2,0,0.6-0.2,0.7l-189.1,105L669.4,3.6c0.3-0.1,0.6,0,0.7,0.2
				c0.1,0.2,0,0.6-0.2,0.7L480,112.5L693.6,3.6c0.3-0.1,0.6,0,0.7,0.2c0.1,0.3,0,0.6-0.2,0.7L537.7,86.9L701,3.6l0,0l0,0
				c0.3-0.1,0.6,0,0.7,0.2c0.1,0.3,0,0.6-0.2,0.7l-76.7,39.7l79.7-40.6c0.3-0.1,0.6,0,0.7,0.2c0.1,0.2,0,0.6-0.2,0.7L515.2,111
				L726,3.6c0.3-0.1,0.6,0,0.7,0.2c0.1,0.3,0,0.6-0.2,0.7l-150,78.7L732.7,3.6c0.3-0.1,0.6,0,0.7,0.2c0.1,0.3,0,0.6-0.2,0.7l0,0
				L587.1,81.1l152-77.5l0,0l0,0c0.3-0.1,0.6,0,0.7,0.2c0.1,0.3,0,0.6-0.2,0.7l0,0l-102,52.9L743.2,3.6c0.3-0.1,0.6,0,0.7,0.2
				c0.1,0.2,0,0.6-0.2,0.7L553.8,112.2L766.9,3.6c0.3-0.1,0.6,0,0.7,0.2c0.1,0.3,0,0.6-0.2,0.7l-186.6,102l202-102.9
				c0.3-0.1,0.6,0,0.7,0.2c0.1,0.3,0,0.6-0.2,0.7L596.6,106.7L798.9,3.6c0.3-0.1,0.6,0,0.7,0.2c0.1,0.3,0,0.6-0.2,0.7L610.5,109.1
				L817.6,3.6c0.3-0.1,0.6,0,0.7,0.2c0.1,0.3,0,0.6-0.2,0.7l0,0L694.2,69L822.5,3.6c0.3-0.1,0.6,0,0.7,0.2c0.1,0.3,0,0.6-0.2,0.7
				l0,0l-128.4,67L827.8,3.6c0.3-0.1,0.6,0,0.7,0.2c0.1,0.2,0,0.6-0.2,0.7l-189,104.8L846.8,3.6c0.3-0.1,0.6,0,0.7,0.2
				c0.1,0.3,0,0.6-0.2,0.7L658.4,109.2L865.6,3.6c0.3-0.1,0.6,0,0.7,0.2c0.1,0.3,0,0.6-0.2,0.7l-162.8,86L873.8,3.6
				c0.3-0.1,0.6,0,0.7,0.2s0,0.6-0.2,0.7l-183,99l196-99.9c0.3-0.1,0.6,0,0.7,0.2c0.1,0.2,0,0.6-0.2,0.7L698.7,109.6l208-106
				c0.3-0.1,0.6,0,0.7,0.2c0.1,0.3,0,0.6-0.2,0.7l0,0L748.5,88.1L914.3,3.6c0.1-0.1,0.2-0.1,0.3,0c0.2,0,0.5,0.1,0.6,0.3
				s0,0.6-0.2,0.7L726.4,108.8L932.9,3.6c0.3-0.1,0.6,0,0.7,0.2c0.1,0.3,0,0.6-0.2,0.7l0,0L812,67.7l125.7-64c0.3-0.1,0.6,0,0.7,0.2
				c0.1,0.3,0,0.6-0.2,0.7L749.7,108.7L955.9,3.6c0.3-0.1,0.6,0,0.7,0.2c0.1,0.3,0,0.6-0.2,0.7L767.9,108.7l206.2-105
				c0.3-0.1,0.6,0,0.7,0.2c0.1,0.3,0,0.6-0.2,0.7l0,0L804,95.1L983.6,3.6c0.3-0.1,0.6,0,0.7,0.2c0.1,0.3,0,0.6-0.2,0.7L796.1,108
				L1000.9,3.6c0.3-0.1,0.6,0,0.7,0.2c0.1,0.3,0,0.6-0.2,0.7L831.3,94.9l179.2-91.3l0,0l0,0c0.3-0.1,0.6,0,0.7,0.2
				c0,0.1,0.1,0.1,0.1,0.2l0.9-0.4c0.3-0.1,0.6,0,0.7,0.2c0.1,0.3,0,0.6-0.2,0.7l-181.8,97.9l193.9-98.8c0.3-0.1,0.6,0,0.7,0.2
				s0,0.6-0.2,0.7L835.5,112.3L1048.8,3.6c0.3-0.1,0.6,0,0.7,0.2c0.1,0.3,0,0.6-0.2,0.7l-180.2,96.9L1061,3.6c0.3-0.1,0.6,0,0.7,0.2
				c0.1,0.3,0,0.6-0.2,0.7l0,0l-88.2,45.6l91.4-46.6c0.3-0.1,0.6,0,0.7,0.2c0.1,0.3,0,0.6-0.2,0.7L932,74l138.2-70.4
				c0.1-0.1,0.3-0.1,0.4,0c0.2-0.1,0.5,0,0.6,0.3s0,0.6-0.2,0.7L910.5,89.2l167.9-85.6c0.3-0.1,0.6,0,0.7,0.2c0.1,0.3,0,0.6-0.2,0.7
				l0,0L959.6,66.6l123.6-63c0.3-0.1,0.6,0,0.7,0.2c0.1,0.3,0,0.6-0.2,0.7L936.6,81.6l153.1-78c0.3-0.1,0.6,0,0.7,0.2s0,0.6-0.2,0.7
				L900.3,111.2L1111.5,3.6c0.3-0.1,0.6,0,0.7,0.2c0.1,0.3,0,0.6-0.2,0.7L924,108.1L1129,3.6c0.3-0.1,0.6,0,0.7,0.2s0,0.6-0.2,0.7
				L939.8,111.1L1150.6,3.6l0,0l0,0c0.3-0.1,0.6,0,0.7,0.2c0.1,0.3,0,0.6-0.2,0.7L997.6,85.1l160.1-81.6c0.3-0.1,0.6,0,0.7,0.2
				s0,0.6-0.2,0.7L969.6,108.7L1175.9,3.6c0.3-0.1,0.6,0,0.7,0.2c0.1,0.3,0,0.6-0.2,0.7l-174.3,93l184.2-93.9c0.3-0.1,0.6,0,0.7,0.2
				s0,0.6-0.2,0.7l-180.7,97.3l192.7-98.2c0.3-0.1,0.6,0,0.7,0.2s0,0.6-0.2,0.7l-189.8,107.7L1222.7,3.6c0.3-0.1,0.6,0,0.7,0.2
				c0.1,0.3,0,0.6-0.2,0.7l-203,111.1l219.9-112c0.3-0.1,0.6,0,0.7,0.2c0.1,0.3,0,0.6-0.2,0.7l-187.1,98.7l195.4-99.6
				c0.3-0.1,0.6,0,0.7,0.2c0.1,0.3,0,0.6-0.2,0.7l-229.7,125.9L1265.4,5.3c0.3-0.1,0.6,0,0.7,0.2c0.1,0.3,0,0.6-0.2,0.7
				l-237.6,128.2L1276.4,8c0.3-0.1,0.6,0,0.7,0.2c0.1,0.3,0,0.6-0.2,0.7l-209.7,110L1281.5,9.7c0.3-0.1,0.6,0,0.7,0.2
				c0.1,0.3,0,0.6-0.2,0.7l-264.3,145.6l276.5-140.9c0.3-0.1,0.6,0,0.7,0.2c0.1,0.3,0,0.6-0.2,0.7l-276.8,152.5l287.4-146.4
				c0.3-0.1,0.6,0,0.7,0.2s0,0.6-0.2,0.7l-156.6,91.1L1314.6,30c0.3-0.1,0.6,0,0.7,0.2s0,0.6-0.2,0.7L1171.6,114l150.3-76.6
				c0.3-0.1,0.6,0,0.7,0.2s0,0.6-0.2,0.7l-130.6,75.5l135.9-69.2c0.3-0.1,0.6,0,0.7,0.2c0.1,0.3,0,0.6-0.2,0.7l0,0l-101.1,54.1
				l102.5-52.2c0.3-0.1,0.6,0,0.7,0.2s0.1,0.6-0.2,0.7l-114.4,67.4l118.7-60.5c0.3-0.1,0.6,0,0.7,0.2c0.1,0.3,0,0.6-0.2,0.7
				l-96.6,52.8l98.1-50l0,0l0,0c0.3-0.1,0.6,0,0.7,0.2c0.1,0.1,0.1,0.2,0.1,0.3c0.1,0,0.1,0.1,0.2,0.2c0.1,0.2,0,0.6-0.2,0.7
				l-101.1,56.8l103-52.5c0.3-0.1,0.6,0,0.7,0.2c0.1,0.3,0,0.6-0.2,0.7l-0.3,0.2l0.2-0.1c0.3-0.1,0.6,0,0.7,0.2s0.1,0.6-0.2,0.7
				l-104.9,62.6l107.4-54.7c0.3-0.1,0.6,0,0.7,0.2s0,0.6-0.2,0.7l-95.4,53.4l96.4-49.1c0.3-0.1,0.6,0,0.7,0.2s0,0.6-0.2,0.7
				l-91.6,50.6l92-46.9c0.3-0.1,0.6,0,0.7,0.2c0.1,0.3,0,0.6-0.2,0.7l-0.2,0.1c0.2-0.1,0.5,0,0.7,0.2c0.1,0.3,0,0.6-0.2,0.7
				l-79.8,43.1l79.8-40.7c0.3-0.1,0.6,0,0.7,0.2s0,0.6-0.2,0.7l-97.5,55.2l97.7-49.8c0.3-0.1,0.6,0,0.7,0.2c0.1,0.3,0,0.6-0.2,0.7
				l-54.2,28.6l53.8-27.4c0.3-0.1,0.6,0,0.7,0.2c0.1,0.3,0,0.6-0.2,0.7l-87,47.5l86.7-44.2c0.3-0.1,0.6,0,0.7,0.2
				c0.1,0.3,0,0.6-0.2,0.7l-88.6,48.5l88.1-44.9c0.3-0.1,0.6,0,0.7,0.2s0,0.6-0.2,0.7l-104.3,61.6l103.7-52.8c0.3-0.1,0.6,0,0.7,0.2
				c0.1,0.3,0,0.6-0.2,0.7l-79.7,42.9l79.2-40.3c0.2-0.1,0.6,0,0.7,0.2s0.1,0.5-0.2,0.7l-108.2,66.5l107.6-54.8
				c0.3-0.1,0.6,0,0.7,0.2s0,0.6-0.2,0.7l-103,59.9l102.5-52.2c0.3-0.1,0.6,0,0.7,0.2s0,0.6-0.2,0.7l-95.5,53.4l95-48.4
				c0.3-0.1,0.6,0,0.7,0.2c0,0.1,0.1,0.2,0.1,0.3c0,0.2-0.1,0.4-0.3,0.5l-104.9,62l104.4-53.2c0.3-0.1,0.6,0,0.7,0.2
				s0.1,0.6-0.2,0.7l-106.5,64.1l106-54c0.3-0.1,0.6,0,0.7,0.2c0.1,0.3,0,0.6-0.2,0.7l-89.8,49.3l89.4-45.5c0.3-0.1,0.6,0,0.7,0.2
				c0.1,0.3,0,0.6-0.2,0.7l-54.4,28.7l53.9-27.5c0.3-0.1,0.6,0,0.7,0.2c0.1,0.3,0,0.6-0.2,0.7l-84,45.6l83.5-42.6
				c0.2-0.1,0.6,0,0.7,0.2s0.1,0.5-0.2,0.7L1239,244.8l107.6-54.8c0.3-0.1,0.6,0,0.7,0.2s0.1,0.6-0.2,0.7l-105.4,62.6l104.9-53.4
				c0.3-0.1,0.6,0,0.7,0.2c0.1,0.3,0,0.6-0.2,0.7l0,0l-32.1,16.8l31.6-16.1c0.3-0.1,0.6,0,0.7,0.2c0.1,0.1,0.1,0.3,0,0.5
				c0.1,0.2,0,0.5-0.2,0.7l-92.7,51.3l92.2-47c0.3-0.1,0.6,0,0.7,0.2c0.1,0.3,0,0.6-0.2,0.7l-27.6,14.4l27.2-13.8
				c0.3-0.1,0.6,0,0.7,0.2s0,0.6-0.2,0.7l-104,61l103.5-52.7c0.3-0.1,0.6,0,0.7,0.2c0.1,0.3,0,0.6-0.2,0.7l-80.1,43.2l79.6-40.6
				c0.3-0.1,0.6,0,0.7,0.2s0,0.6-0.2,0.7l-95.3,53.2l94.8-48.3c0.3-0.1,0.6,0,0.7,0.2s0,0.6-0.2,0.7l-103.1,60l102.6-52.3
				c0.3-0.1,0.6,0,0.7,0.2c0.1,0.3,0,0.6-0.2,0.7l-55.5,29.3l55-28c0.3-0.1,0.6,0,0.7,0.2s0.1,0.6-0.2,0.7l-107.8,66l107.3-54.7
				c0.3-0.1,0.6,0,0.7,0.2s0,0.6-0.2,0.7L1247,308.5l99.7-50.8c0.3-0.1,0.6,0,0.7,0.2s0.1,0.6-0.2,0.7l-107.8,66l107.3-54.7
				c0.3-0.1,0.6,0,0.7,0.2s0,0.6-0.2,0.7l-101.1,58l100.6-51.3c0.3-0.1,0.6,0,0.7,0.2s0,0.6-0.2,0.7l-94.2,52.4l93.8-47.8
				c0.3-0.1,0.6,0,0.7,0.2s0,0.6-0.2,0.7l-99.5,56.6l99-50.5c0.3-0.1,0.6,0,0.7,0.2s0.1,0.6-0.2,0.7L1241.7,354l104.9-53.4
				c0.3-0.1,0.6,0,0.7,0.2c0.1,0.3,0,0.6-0.2,0.7l-59.9,31.7l59.4-30.3c0.3-0.1,0.6,0,0.7,0.2s0.1,0.6-0.2,0.7L1241,367.3
				l105.6-53.8c0.3-0.1,0.6,0,0.7,0.2s0,0.6-0.2,0.7l-95.3,53.2l94.8-48.3c0.3-0.1,0.6,0,0.7,0.2c0.1,0.3,0,0.6-0.2,0.7l-87.4,47.7
				l86.9-44.3c0.3-0.1,0.6,0,0.7,0.2s0,0.6-0.2,0.7l-100.9,57.8l100.4-51.1c0.3-0.1,0.6,0,0.7,0.2s0,0.6-0.2,0.7l-95.6,53.5
				l95.1-48.5c0.3-0.1,0.6,0,0.7,0.2s0,0.6-0.2,0.7l-103.8,60.8l103.3-52.6c0.3-0.1,0.6,0,0.7,0.2s0,0.6-0.2,0.7l-95.7,53.5
				l95.2-48.5c0.3-0.1,0.6,0,0.7,0.2s0.1,0.6-0.2,0.7L1241,416.5l105.6-53.8c0.3-0.1,0.6,0,0.7,0.2s0,0.6-0.2,0.7l-103.5,60.5
				l103-52.5c0.3-0.1,0.6,0,0.7,0.2c0.1,0.3,0,0.6-0.2,0.7l-50.5,26.6l50-25.5c0.3-0.1,0.6,0,0.7,0.2c0.1,0.3,0,0.6-0.2,0.7
				l-83.7,45.4l83.2-42.4c0.2-0.1,0.6,0,0.7,0.2s0.1,0.6-0.2,0.7l-108,66.3l107.5-54.8c0.3-0.1,0.6,0,0.7,0.2s0.1,0.6-0.2,0.7
				l-106.4,64l105.9-54c0.3-0.1,0.6,0,0.7,0.2s0,0.6-0.2,0.7l-95.4,53.3l94.9-48.4c0.3-0.1,0.6,0,0.7,0.2s0,0.6-0.2,0.7L1242.9,469
				l103.7-52.8c0.3-0.1,0.6,0,0.7,0.2c0,0.1,0.1,0.2,0.1,0.3c0,0.2-0.1,0.4-0.3,0.5l-95.6,53.5l95.2-48.5c0.3-0.1,0.6,0,0.7,0.2
				s0,0.6-0.2,0.7l-101,58l100.5-51.2c0.3-0.1,0.6,0,0.7,0.2s0,0.6-0.2,0.7l-92.6,51.3l92.1-46.9c0.3-0.1,0.6,0,0.7,0.2
				c0.1,0.3,0,0.6-0.2,0.7l-84.1,45.6l83.6-42.6c0.3-0.1,0.6,0,0.7,0.2s0,0.6-0.2,0.7l-97.2,54.7l96.7-49.3c0.2-0.1,0.6,0,0.7,0.2
				s0.1,0.6-0.2,0.7l-107.9,66.1l107.4-54.7c0.3-0.1,0.6,0,0.7,0.2c0.1,0.3,0,0.6-0.2,0.7l-63.8,33.8l63.3-32.3
				c0.3-0.1,0.6,0,0.7,0.2s0.1,0.6-0.2,0.7l-106.1,63.5l105.6-53.8c0.3-0.1,0.6,0,0.7,0.2s0.1,0.6-0.2,0.7l-107.1,64.9l106.6-54.3
				c0.3-0.1,0.6,0,0.7,0.2s0,0.6-0.2,0.7l-104,60.9l103.4-52.7c0.3-0.1,0.6,0,0.7,0.2s0,0.6-0.2,0.7l-100.6,57.5l100.1-51
				c0.3-0.1,0.6,0,0.7,0.2s0,0.6-0.2,0.7l-102.6,59.5l102.1-52c0.3-0.1,0.6,0,0.7,0.2c0.1,0.3,0,0.6-0.2,0.7c0.1,0,0.2,0.1,0.2,0.2
				c0.1,0.2,0.1,0.6-0.2,0.7l-106.9,64.6l106.4-54.2c0.3-0.1,0.6,0,0.7,0.2s0.1,0.6-0.2,0.7l-106.5,64.1l106-54
				c0.2-0.1,0.6,0,0.7,0.2s0.1,0.6-0.2,0.7l-108,66.3l107.5-54.8c0.3-0.1,0.6,0,0.7,0.2s0,0.6-0.2,0.7l-97.9,55.3l97.4-49.7
				c0.3-0.1,0.6,0,0.7,0.2c0.1,0.1,0.1,0.2,0,0.3c0,0.2,0,0.4-0.2,0.6l-106.4,63.9l105.9-53.9c0.3-0.1,0.6,0,0.7,0.2s0,0.5-0.2,0.7
				c0.1,0,0.1,0.1,0.2,0.2c0.1,0.3,0,0.6-0.2,0.7l-91.9,50.8l91.4-46.6c0.3-0.1,0.6,0,0.7,0.2s0,0.6-0.2,0.7l-102.6,59.5l102.1-52
				c0.3-0.1,0.6,0,0.7,0.2s0,0.6-0.2,0.7L1242.8,637l103.8-52.9c0.3-0.1,0.6,0,0.7,0.2s0,0.6-0.2,0.7l-93.1,51.6l92.6-47.2
				c0.3-0.1,0.6,0,0.7,0.2c0.1,0.3,0,0.6-0.2,0.7l-79.9,43.1l79.5-40.5c0.3-0.1,0.6,0,0.7,0.2s0,0.6-0.2,0.7l-100.5,57.5l100-50.9
				c0.3-0.1,0.6,0,0.7,0.2s0.1,0.6-0.2,0.7l-107.1,64.9l106.6-54.3c0.3-0.1,0.6,0,0.7,0.2s0,0.6-0.2,0.7l-98.6,55.8l98.1-50
				c0.3-0.1,0.6,0,0.7,0.2s0,0.6-0.2,0.7l-100.8,57.7l100.3-51.1c0.3-0.1,0.6,0,0.7,0.2c0.1,0.3,0,0.6-0.2,0.7l-25,13l24.5-12.5
				c0.3-0.1,0.6,0,0.7,0.2c0.1,0.3,0,0.6-0.2,0.7l-89.3,49l88.8-45.2c0.3-0.1,0.6,0,0.7,0.2s0,0.6-0.2,0.7l-99,56.2l98.5-50.2
				c0.3-0.1,0.6,0,0.7,0.2c0.1,0.3,0,0.6-0.2,0.7l0,0l-79.7,43l79.2-40.4c0.3-0.1,0.6,0,0.7,0.2c0.1,0.3,0,0.6-0.2,0.7l-86.3,47
				l85.8-43.7c0.3-0.1,0.6,0,0.7,0.2s0,0.6-0.2,0.7L1246.9,705l99.8-50.9c0.3-0.1,0.6,0,0.7,0.2c0.1,0.3,0,0.6-0.2,0.7l-75.1,40.3
				l74.7-38c0.3-0.1,0.6,0,0.7,0.2c0.1,0.3,0,0.6-0.2,0.7L1244.9,711l101.6-51.8c0.3-0.1,0.6,0,0.7,0.2c0.1,0.3,0,0.6-0.2,0.7
				L1069.5,807l277-141.2c0.3-0.1,0.6,0,0.7,0.2c0.1,0.3,0,0.6-0.2,0.7l0,0l-220.5,114.7l220.1-112.1c0.3-0.1,0.6,0,0.7,0.2
				c0.1,0.3,0,0.6-0.2,0.7l-267.5,142.9l267-136l0,0l0,0c0.3-0.1,0.6,0,0.7,0.2c0.1,0.3,0,0.6-0.2,0.7l-155.4,80.3l154.9-78.9
				c0.3-0.1,0.6,0,0.7,0.2c0.1,0.3,0,0.6-0.2,0.7L1091,819.2L1346.6,689c0.3-0.1,0.6,0,0.7,0.2c0.1,0.3,0,0.6-0.2,0.7l0,0
				l-153.2,79.5l152.7-77.8c0.3-0.1,0.6,0,0.7,0.2c0.1,0.3,0,0.6-0.2,0.7l-199.6,104.7l199.1-101.5c0.3-0.1,0.6,0,0.7,0.2
				c0.1,0.3,0,0.6-0.2,0.7L1118.4,822l228.2-116.2c0.3-0.1,0.6,0,0.7,0.2s0,0.6-0.2,0.7L1135,825.3l211.6-107.8
				c0.3-0.1,0.6,0,0.7,0.2c0.1,0.3,0,0.6-0.2,0.7L1219,785.1l127.6-65c0.3-0.1,0.6,0,0.7,0.2c0.1,0.3,0,0.6-0.2,0.7l-183.2,100.1
				l182.8-93.1c0.3-0.1,0.6,0,0.7,0.2c0.1,0.3,0,0.6-0.2,0.7l-170.4,93.9l169.9-86.6c0.3-0.1,0.6,0,0.7,0.2s0,0.6-0.2,0.7
				l-157.9,91.8l157.4-80.2c0.3-0.1,0.6,0,0.7,0.2s0,0.6-0.2,0.7l-136.5,78.3l136-69.3c0.3-0.1,0.6,0,0.7,0.2s0,0.6-0.2,0.7
				l-119.3,69.7l118.8-60.6c0.3-0.1,0.6,0,0.7,0.2c0.1,0.3,0,0.6-0.2,0.7l-98.7,54.9l98.3-50.1c0.3-0.1,0.6,0,0.7,0.2
				s0.1,0.6-0.2,0.7L1239.5,841l107.1-54.5c0.3-0.1,0.6,0,0.7,0.2c0.1,0.3,0,0.6-0.2,0.7l-80.1,43.2l79.6-40.6
				c0.3-0.1,0.6,0,0.7,0.2s0,0.6-0.2,0.7l-99.8,56.8l99.3-50.6c0.3-0.1,0.6,0,0.7,0.2s0,0.6-0.2,0.7l-97.7,55.1l97.2-49.5
				c0.3-0.1,0.6,0,0.7,0.2c0.1,0.3,0,0.6-0.2,0.7l-68.7,36.6l68.2-34.7c0.3-0.1,0.6,0,0.7,0.2c0.1,0.3,0,0.6-0.2,0.7l-19.4,10.1
				l18.9-9.6c0.3-0.1,0.6,0,0.7,0.2c0.1,0.1,0.1,0.2,0,0.3c0,0.2,0,0.4-0.2,0.5l-105.4,62.7l104.9-53.5c0.3-0.1,0.6,0,0.7,0.2
				s0.1,0.6-0.2,0.7L1240,883.7l106.5-54.3c0.3-0.1,0.6,0,0.7,0.2c0.1,0.1,0.1,0.3,0,0.4c0.1,0.2,0,0.5-0.2,0.6l-108,66.3
				l107.5-54.8c0.3-0.1,0.6,0,0.7,0.2s0.1,0.6-0.2,0.7l-107.9,66.1l107.4-54.7c0.3-0.1,0.6,0,0.7,0.2s0,0.6-0.2,0.7L1246.2,913
				l100.3-51.1c0.3-0.1,0.6,0,0.7,0.2s0.1,0.6-0.2,0.7l-104.8,61.9l104.3-53.1c0.3-0.1,0.6,0,0.7,0.2s0,0.6-0.2,0.7l-99.1,56.5
				l98.7-50.3c0.3-0.1,0.6,0,0.7,0.2s0.1,0.6-0.2,0.7l-105.9,63.3l105.4-53.7c0.3-0.1,0.6,0,0.7,0.2c0.1,0.3,0,0.6-0.2,0.7
				l-86.8,47.4l86.4-44c0.3-0.1,0.6,0,0.7,0.2c0.1,0.3,0,0.6-0.2,0.7l-81.9,44.3l81.4-41.5c0.3-0.1,0.6,0,0.7,0.2s0.1,0.6-0.2,0.7
				l-107.9,66.1l107.4-54.7c0.3-0.1,0.6,0,0.7,0.2s0,0.6-0.2,0.7l-98.8,56l98.4-50.1c0.3-0.1,0.6,0,0.7,0.2c0.1,0.3,0,0.6-0.2,0.7
				l-86.8,47.4l86.3-44c0.3-0.1,0.6,0,0.7,0.2s0.1,0.6-0.2,0.7l-106.5,64l106-54c0.3-0.1,0.6,0,0.7,0.2c0.1,0.3,0,0.6-0.2,0.7
				l-65.1,34.6l64.7-32.9c0.3-0.1,0.6,0,0.7,0.2c0.1,0.3,0,0.6-0.2,0.7l-87.6,47.8l87.1-44.4c0.3-0.1,0.6,0,0.7,0.2s0.1,0.6-0.2,0.7
				l-107,64.7l106.5-54.2c0.3-0.1,0.6,0,0.7,0.2c0,0.1,0.1,0.2,0.1,0.3c0,0.2-0.1,0.4-0.3,0.5l-99.4,56.5l98.9-50.4
				c0.3-0.1,0.6,0,0.7,0.2s0.1,0.6-0.2,0.7l-107.6,65.7l107.1-54.6c0.3-0.1,0.6,0,0.7,0.2c0.1,0.3,0,0.6-0.2,0.7l-89.7,49.3
				l89.3-45.5c0.3-0.1,0.6,0,0.7,0.2s0.1,0.6-0.2,0.7l-106.5,64.1l106-54c0.3-0.1,0.6,0,0.7,0.2s0,0.6-0.2,0.7l-103.3,60.2
				l102.8-52.4c0.3-0.1,0.6,0,0.7,0.2c0.1,0.3,0,0.6-0.2,0.7l-75.2,40.3l74.8-38.1c0.3-0.1,0.6,0,0.7,0.2s0,0.6-0.2,0.7l-99.7,56.8
				l99.2-50.6c0.3-0.1,0.6,0,0.7,0.2s0.1,0.6-0.2,0.7l-106.4,63.9l105.9-53.9c0.3-0.1,0.6,0,0.7,0.2s0,0.6-0.2,0.7l-84,46.6
				l83.5-42.5c0.2-0.1,0.5,0,0.7,0.2c0.1,0.2,0.1,0.5-0.2,0.7l-78.7,49.7l78.2-39.9c0.3-0.1,0.6,0,0.7,0.2c0.1,0.3,0,0.6-0.2,0.7
				l-51.1,27.9l50.6-25.8c0.3-0.1,0.6,0,0.7,0.2c0.1,0.3,0,0.6-0.2,0.7l-10,5.3l9.5-4.8c0.3-0.1,0.6,0,0.7,0.2s0.1,0.6-0.2,0.7
				l-54.6,32.5l54.1-27.6c0.2-0.1,0.5,0,0.7,0.2c0.1,0.2,0.1,0.5-0.2,0.7l-44,30.2l43.5-22.2c0.3-0.1,0.6,0,0.7,0.2s0.1,0.6-0.2,0.7
				l-30.8,18.8l30.3-15.4c0.2-0.1,0.5,0,0.7,0.2c0.1,0.2,0.1,0.5-0.1,0.7l-20.4,19l19.8-10.1c0.2-0.1,0.4-0.1,0.5,0
				c0.2,0.1,0.2,0.3,0.2,0.5l-0.5,11c0.2,0,0.4,0.1,0.5,0.3c0.1,0.3,0,0.6-0.2,0.7l-0.6,0.3c-0.2,0.1-0.4,0.1-0.5,0
				c-0.2-0.1-0.2-0.3-0.2-0.5l0.5-10.9l-22.3,11.4c-0.2,0.1-0.5,0-0.7-0.2c-0.1-0.2-0.1-0.5,0.1-0.7l20.4-19l-38.9,19.8
				c-0.2,0.1-0.6,0-0.7-0.2s-0.1-0.6,0.2-0.7l30.8-18.8L1297,1076c-0.2,0.1-0.5,0-0.7-0.2c-0.1-0.2-0.1-0.5,0.2-0.7l44-30.2
				l-60.9,31c-0.2,0.1-0.6,0-0.7-0.2s-0.1-0.6,0.2-0.7l54.6-32.5l-65.6,33.4c-0.3,0.1-0.6,0-0.7-0.2s0-0.6,0.2-0.7l10-5.2l-12.1,6.2
				c-0.3,0.1-0.6,0-0.7-0.2c-0.1-0.3,0-0.6,0.2-0.7l51.1-27.9l-56.6,28.9c-0.2,0.1-0.6,0-0.7-0.2s-0.1-0.5,0.2-0.7l78.7-49.7
				l-99.4,50.6C1237.6,1076.4,1237.5,1076.5,1237.4,1076.5z"/>
		</g>
	</g>
	<g>
		<path class="st0" d="M1348.4,1077.5h-122.3v-238H676.5v115.7H1110v122.3H120.8V955.2h433.5V839.5H1.6V717.6h552.7V601.5H120.8
			V479.2h989.3v122.3H676.5v116.1h549.6V156.3c0-17.4-14.1-31.5-31.5-31.5H1110v137.6c0,55.5-45.2,100.7-100.7,100.7H1.6V240.9
			h954.7c17.4,0,31.5-14.1,31.5-31.5v-84.6H1.6V2.5h1246.1c55.5,0,100.7,45.2,100.7,100.7L1348.4,1077.5L1348.4,1077.5z
			 M1229.2,1074.4h116.1V103.2c0-53.8-43.8-97.6-97.6-97.6H4.7v116.1h986.2v87.7c0,19.1-15.5,34.6-34.6,34.6H4.7v116h1004.6
			c53.8,0,97.6-43.8,97.6-97.6V121.7h87.7c19.1,0,34.6,15.5,34.6,34.6v564.4H673.4V598.4h433.5V482.3h-983v116.1h433.5v122.3H4.7
			v115.7h552.7v121.9H123.9v116.1h983V958.3H673.4V836.4h555.8V1074.4z"/>
	</g>
</g>
</svg>
