<?xml version="1.0" encoding="utf-8"?>
<!-- Generator: Adobe Illustrator 24.0.0, SVG Export Plug-In . SVG Version: 6.00 Build 0)  -->
<svg version="1.1" id="图层_1" xmlns="http://www.w3.org/2000/svg" xmlns:xlink="http://www.w3.org/1999/xlink" x="0px" y="0px"
	 viewBox="0 0 262 70.3" style="enable-background:new 0 0 262 70.3;" xml:space="preserve">
<style type="text/css">
	.st0{fill:#ED1C24;}
	.st1{fill:#FFFFFF;}
</style>
<circle class="st0" cx="29.4" cy="7.9" r="6.7"/>
<g>
	<rect x="25" y="17.8" class="st1" width="8.8" height="28.3"/>
	<path class="st1" d="M52.8,17.1c-4.4,0-8.4,1.5-12.2,3.7l3.1,5.8c2.8-1.6,5.2-2.5,7.4-2.5c2.9,0,4.1,1.3,4.3,3.6
		c-11,1.2-15.7,4.4-15.7,10.4c0,4.7,3.2,8.6,8.4,8.6c3.1,0,5.8-1.4,8.1-3.5h0.2L57,46h7.2V30C64.2,21.2,60.1,17.1,52.8,17.1z
		 M55.4,37.7c-1.3,1.4-2.5,2.2-4.3,2.2s-3-0.8-3-2.4c0-2,1.8-3.6,7.3-4.3V37.7z"/>
	<path class="st1" d="M88.1,17.1c-3.8,0-6.7,1.9-9,4.2H79l-0.6-3.5H71v28.3h8.8V27.2c1.7-1.6,2.9-2.5,4.9-2.5c2.2,0,3.3,1.1,3.3,5
		v16.4h8.8V28.6C96.9,21.6,94.2,17.1,88.1,17.1z"/>
	<path class="st1" d="M120.7,17.1c-3.8,0-6.6,1.9-8.6,3.8l0.4-5V5.1h-8.8v41h8.8V27.2c1.7-1.6,2.9-2.5,4.9-2.5c2.2,0,3.3,1.1,3.3,5
		v16.4h8.8V28.6C129.5,21.6,126.9,17.1,120.7,17.1z"/>
	<path class="st1" d="M165.3,30.5c-0.5,2.8-0.8,5.6-1.2,8.5h-0.2c-0.6-2.9-1.1-5.7-1.7-8.5l-3-12.6h-7.6l-2.9,12.6
		c-0.7,2.8-1.1,5.6-1.6,8.5h-0.2c-0.4-2.9-0.7-5.7-1.2-8.5l-2.5-12.6h-8.7l7,28.3h10.1l2.3-10.8c0.5-2.6,0.9-5.2,1.3-8.3h0.2
		c0.5,3.1,0.9,5.7,1.5,8.3l2.4,10.8h10.3l6.7-28.3h-8.2L165.3,30.5z"/>
	<path class="st1" d="M197.5,36.4c-1.5,2.1-2.7,2.9-4.7,2.9c-2.2,0-3.3-1.1-3.3-5V17.8h-8.8v17.5c0,7.1,2.6,11.5,8.8,11.5
		c3.8,0,6.5-1.8,8.8-4.6h0.2l0.6,3.9h7.2V17.8h-8.8V36.4z"/>
	<path class="st1" d="M230.4,17.1c-3.8,0-6.7,1.9-9,4.2h-0.1l-0.6-3.5h-7.2v28.3h8.8V27.2c1.7-1.6,2.9-2.5,4.9-2.5
		c2.2,0,3.3,1.1,3.3,5v16.4h8.8V28.6C239.2,21.6,236.6,17.1,230.4,17.1z"/>
	<polygon class="st1" points="245.4,9.5 242.9,12 256,25.1 242.9,38.2 245.4,40.7 261,25.1 	"/>
	<polygon class="st1" points="16.6,9.5 1,25.1 16.6,40.7 19.1,38.2 6,25.1 19.1,12 	"/>
	<rect x="41.2" y="5.3" class="st1" width="1.2" height="5.2"/>
	<path class="st1" d="M45.6,8.7c0-0.5-0.1-1.3-0.2-1.8l0,0l0.4,1.2l0.7,1.9h0.7L48,8.2L48.4,7l0,0c-0.1,0.5-0.2,1.3-0.2,1.8v1.8h1.1
		V5.3H48l-0.8,2.2c-0.1,0.3-0.2,0.6-0.3,0.9l0,0c-0.1-0.3-0.2-0.6-0.3-0.9l-0.8-2.2h-1.3v5.2h1.1C45.6,10.5,45.6,8.7,45.6,8.7z"/>
	<path class="st1" d="M52.4,9.3H54l0.3,1.2h1.3L54,5.3h-1.5l-1.6,5.2h1.3L52.4,9.3z M52.8,7.9c0.1-0.5,0.3-1.1,0.4-1.7l0,0
		c0.1,0.5,0.3,1.1,0.4,1.7l0.1,0.4h-1.1L52.8,7.9z"/>
	<path class="st1" d="M59.3,10.6c0.7,0,1.4-0.3,1.7-0.6V7.5h-1.9v1h0.8v0.8c-0.1,0.1-0.3,0.1-0.5,0.1c-1,0-1.4-0.6-1.4-1.6
		s0.5-1.6,1.3-1.6c0.4,0,0.7,0.2,1,0.4L61,5.8c-0.4-0.4-0.9-0.7-1.6-0.7c-1.4,0-2.5,1-2.5,2.7C56.7,9.7,57.9,10.6,59.3,10.6z"/>
	<rect x="63" y="5.3" class="st1" width="1.2" height="5.2"/>
	<path class="st1" d="M69.3,7c0,0.6,0.1,1.4,0.2,1.9l0,0L69,7.8l-1.3-2.5h-1.3v5.2h1.2V8.8c0-0.6-0.1-1.3-0.2-1.9l0,0L67.9,8
		l1.3,2.5h1.3V5.3h-1.2C69.3,5.3,69.3,7,69.3,7z"/>
	<path class="st1" d="M73.5,9.3H75l0.3,1.2h1.3L75,5.3h-1.5l-1.6,5.2h1.3L73.5,9.3z M73.8,7.9c0.1-0.5,0.3-1.1,0.4-1.7l0,0
		c0.1,0.5,0.3,1.1,0.4,1.7l0.1,0.4h-1.1L73.8,7.9z"/>
	<polygon class="st1" points="78.5,10.5 79.7,10.5 79.7,6.3 81.1,6.3 81.1,5.3 77.1,5.3 77.1,6.3 78.5,6.3 	"/>
	<rect x="82.9" y="5.3" class="st1" width="1.2" height="5.2"/>
	<path class="st1" d="M88.3,10.6c1.4,0,2.4-1,2.4-2.7s-1-2.6-2.4-2.6S86,6.2,86,7.9S86.9,10.6,88.3,10.6z M88.3,6.3
		c0.7,0,1.1,0.6,1.1,1.6S89,9.5,88.3,9.5s-1.1-0.6-1.1-1.6C87.3,6.9,87.7,6.3,88.3,6.3z"/>
	<path class="st1" d="M93.8,8.8c0-0.6-0.1-1.3-0.2-1.9l0,0L94.2,8l1.3,2.5h1.3V5.3h-1.2V7c0,0.6,0.1,1.4,0.2,1.9l0,0l-0.5-1.1
		L94,5.3h-1.3v5.2h1.2L93.8,8.8L93.8,8.8z"/>
	<path class="st1" d="M122.8,8.8h0.6c1.1,0,2-0.5,2-1.8s-0.9-1.7-2.1-1.7h-1.8v5.2h1.2V8.8H122.8z M122.8,6.3h0.5
		c0.6,0,0.9,0.2,0.9,0.7s-0.3,0.8-0.9,0.8h-0.5V6.3z"/>
	<path class="st1" d="M131.1,6.9c0-1.2-0.9-1.6-2-1.6h-1.9v5.2h1.2V8.7h0.6l0.9,1.8h1.4l-1.1-2C130.8,8.2,131.1,7.7,131.1,6.9z
		 M129,7.7h-0.6V6.3h0.6c0.6,0,0.9,0.2,0.9,0.6S129.6,7.7,129,7.7z"/>
	<path class="st1" d="M137.6,7.9c0-1.7-1-2.6-2.4-2.6s-2.4,1-2.4,2.6c0,1.7,1,2.7,2.4,2.7S137.6,9.6,137.6,7.9z M134.1,7.9
		c0-1,0.4-1.6,1.1-1.6s1.1,0.6,1.1,1.6s-0.4,1.6-1.1,1.6S134.1,8.9,134.1,7.9z"/>
	<path class="st1" d="M143.6,7.9c0-1.8-1-2.6-2.6-2.6h-1.5v5.2h1.6C142.5,10.5,143.6,9.7,143.6,7.9z M140.7,9.5V6.3h0.2
		c0.8,0,1.4,0.3,1.4,1.6c0,1.2-0.6,1.6-1.4,1.6H140.7z"/>
	<path class="st1" d="M147.5,10.6c1.4,0,2.1-0.8,2.1-2.5V5.3h-1.2v2.9c0,1-0.3,1.3-0.9,1.3c-0.6,0-0.9-0.3-0.9-1.3V5.3h-1.2V8
		C145.4,9.8,146.1,10.6,147.5,10.6z"/>
	<path class="st1" d="M153.9,10.6c0.7,0,1.2-0.3,1.7-0.8L154.9,9c-0.2,0.3-0.6,0.5-1,0.5c-0.7,0-1.2-0.6-1.2-1.6s0.5-1.6,1.2-1.6
		c0.4,0,0.6,0.2,0.9,0.4l0.6-0.8c-0.4-0.4-0.9-0.7-1.6-0.7c-1.3,0-2.5,1-2.5,2.7C151.4,9.7,152.6,10.6,153.9,10.6z"/>
	<polygon class="st1" points="158.1,10.5 159.4,10.5 159.4,6.3 160.8,6.3 160.8,5.3 156.8,5.3 156.8,6.3 158.1,6.3 	"/>
	<path class="st1" d="M164,9.5c-0.4,0-0.9-0.2-1.2-0.5L162,9.8c0.5,0.5,1.3,0.7,1.9,0.7c1.2,0,2-0.8,2-1.6c0-0.7-0.4-1.2-1-1.4
		l-0.6-0.3c-0.5-0.2-0.8-0.3-0.8-0.6c0-0.3,0.2-0.4,0.6-0.4c0.4,0,0.7,0.1,1.1,0.4l0.6-0.8c-0.5-0.5-1.1-0.7-1.7-0.7
		c-1.1,0-1.9,0.7-1.9,1.6c0,0.7,0.5,1.2,1,1.4l0.7,0.3c0.4,0.2,0.7,0.3,0.7,0.6S164.4,9.5,164,9.5z"/>
	<path class="st1" d="M175.3,7.5l-0.6-0.3c-0.5-0.2-0.8-0.3-0.8-0.6c0-0.3,0.2-0.4,0.6-0.4c0.4,0,0.7,0.1,1.1,0.4l0.6-0.8
		c-0.5-0.5-1.1-0.7-1.7-0.7c-1.1,0-1.9,0.7-1.9,1.6c0,0.7,0.5,1.2,1,1.4l0.7,0.3c0.4,0.2,0.7,0.3,0.7,0.6s-0.2,0.5-0.7,0.5
		c-0.4,0-0.9-0.2-1.2-0.5l-0.7,0.9c0.5,0.5,1.3,0.7,1.9,0.7c1.2,0,2-0.8,2-1.6C176.3,8.2,175.9,7.8,175.3,7.5z"/>
	<path class="st1" d="M181.3,9c-0.2,0.3-0.6,0.5-1,0.5c-0.7,0-1.2-0.6-1.2-1.6s0.5-1.6,1.2-1.6c0.4,0,0.6,0.2,0.9,0.4l0.6-0.8
		c-0.4-0.4-0.9-0.7-1.6-0.7c-1.3,0-2.5,1-2.5,2.7s1.1,2.6,2.4,2.6c0.7,0,1.2-0.3,1.7-0.8L181.3,9z"/>
	<path class="st1" d="M184.9,8.7h0.6l0.9,1.8h1.4l-1.1-2c0.5-0.2,0.9-0.7,0.9-1.5c0-1.2-0.9-1.6-2-1.6h-1.9v5.2h1.2L184.9,8.7
		L184.9,8.7z M184.9,6.3h0.6c0.6,0,0.9,0.2,0.9,0.6s-0.3,0.7-0.9,0.7h-0.6V6.3z"/>
	<path class="st1" d="M191.6,10.6c1.4,0,2.4-1,2.4-2.7s-1-2.6-2.4-2.6s-2.4,1-2.4,2.6C189.3,9.6,190.2,10.6,191.6,10.6z M191.6,6.3
		c0.7,0,1.1,0.6,1.1,1.6s-0.4,1.6-1.1,1.6s-1.1-0.6-1.1-1.6S191,6.3,191.6,6.3z"/>
	<polygon class="st1" points="199.1,9.4 197.1,9.4 197.1,5.3 195.9,5.3 195.9,10.5 199.1,10.5 	"/>
	<polygon class="st1" points="204.2,9.4 202.2,9.4 202.2,5.3 201,5.3 201,10.5 204.2,10.5 	"/>
	<path class="st1" d="M208.4,7.5l-0.6-0.3C207.3,7.1,207,7,207,6.7s0.2-0.4,0.6-0.4c0.4,0,0.7,0.1,1.1,0.4l0.6-0.8
		c-0.5-0.5-1.1-0.7-1.7-0.7c-1.1,0-1.9,0.7-1.9,1.6c0,0.7,0.5,1.2,1,1.4l0.7,0.3c0.4,0.2,0.7,0.3,0.7,0.6s-0.2,0.5-0.7,0.5
		c-0.4,0-0.9-0.2-1.2-0.5l-0.7,0.9c0.5,0.5,1.3,0.7,1.9,0.7c1.2,0,2-0.8,2-1.6C209.4,8.2,209,7.8,208.4,7.5z"/>
	<path class="st1" d="M218.4,10.6c1.4,0,2.4-1,2.4-2.7s-1-2.6-2.4-2.6s-2.4,1-2.4,2.6C216,9.6,217,10.6,218.4,10.6z M218.4,6.3
		c0.7,0,1.1,0.6,1.1,1.6s-0.4,1.6-1.1,1.6s-1.1-0.6-1.1-1.6C217.3,6.9,217.7,6.3,218.4,6.3z"/>
	<polygon class="st1" points="223.9,8.5 225.6,8.5 225.6,7.5 223.9,7.5 223.9,6.3 225.9,6.3 225.9,5.3 222.6,5.3 222.6,10.5 
		223.9,10.5 	"/>
	<polygon class="st1" points="236.8,9.2 233.8,9.2 236.8,6.2 236,5.3 232.9,8.4 232.9,5.3 231.7,5.3 231.7,10.5 236.8,10.5 	"/>
</g>
<g>
	<path class="st1" d="M8,63.4h1.9l0.5,2.6c0.1,0.6,0.2,1.2,0.3,1.8h0c0.1-0.6,0.3-1.2,0.5-1.8l0.8-2.6h1.6l0.8,2.6
		c0.2,0.6,0.3,1.2,0.5,1.8H15c0.1-0.6,0.2-1.2,0.3-1.8l0.5-2.6h1.8l-1.4,5.7h-2.4l-0.7-2.5c-0.1-0.4-0.2-0.9-0.3-1.3h0
		c-0.1,0.4-0.2,0.9-0.3,1.3l-0.7,2.5H9.4L8,63.4z"/>
	<path class="st1" d="M19.7,63.4h1.9v2.2h2.6v-2.2H26v5.7h-1.9v-2.3h-2.6v2.3h-1.9V63.4z"/>
	<path class="st1" d="M28.9,63.4h5v1.1h-3.1v1h2.6v1.1h-2.6V68H34v1.1h-5.1V63.4z"/>
	<path class="st1" d="M36.6,63.4h2.9c1.7,0,3.1,0.4,3.1,1.8c0,0.8-0.5,1.4-1.4,1.6l1.8,2.2h-2.1l-1.4-2h-0.9v2h-1.9V63.4z M39.3,66
		c0.9,0,1.4-0.3,1.4-0.8c0-0.5-0.5-0.7-1.4-0.7h-0.8V66H39.3z"/>
	<path class="st1" d="M45.1,63.4h5v1.1H47v1h2.6v1.1H47V68h3.2v1.1h-5.1V63.4z"/>
	<path class="st1" d="M52.8,63.4h1.9v5.7h-1.9V63.4z"/>
	<path class="st1" d="M57,68.4l1.1-0.9c0.5,0.3,1.3,0.6,1.9,0.6c0.7,0,1-0.2,1-0.5c0-0.3-0.4-0.4-1.1-0.6l-1-0.3
		c-0.8-0.2-1.6-0.7-1.6-1.6c0-0.9,1.2-1.7,2.8-1.7c0.9,0,1.9,0.3,2.6,0.7l-0.9,0.9c-0.5-0.3-1-0.4-1.6-0.4c-0.6,0-0.9,0.2-0.9,0.5
		c0,0.3,0.5,0.4,1.2,0.6l1,0.3c1,0.3,1.6,0.8,1.6,1.6c0,0.9-1.1,1.8-3,1.8C58.9,69.2,57.8,68.9,57,68.4z"/>
	<path class="st1" d="M65.3,63.4h1.9l2,2.7l0.8,1.3H70c-0.1-0.6-0.3-1.4-0.3-2.1v-1.9h1.8v5.7h-1.9l-1.9-2.7l-0.8-1.2h-0.1
		c0.1,0.6,0.2,1.4,0.2,2.1v1.9h-1.8V63.4z"/>
	<path class="st1" d="M74.1,66.2c0-1.9,1.5-2.9,3.6-2.9c2.1,0,3.6,1.1,3.6,2.9c0,1.9-1.5,3-3.6,3C75.5,69.2,74.1,68.1,74.1,66.2z
		 M79.3,66.2c0-1.1-0.6-1.7-1.7-1.7c-1,0-1.7,0.6-1.7,1.7c0,1.1,0.6,1.8,1.7,1.8C78.7,68,79.3,67.3,79.3,66.2z"/>
	<path class="st1" d="M83.8,63.4H86c2.4,0,4,0.8,4,2.8s-1.6,2.9-3.9,2.9h-2.4V63.4z M85.9,68c1.3,0,2.2-0.4,2.2-1.8
		s-0.9-1.7-2.2-1.7h-0.3V68H85.9z"/>
	<path class="st1" d="M92.2,66.2c0-1.9,1.5-2.9,3.6-2.9c2.1,0,3.6,1.1,3.6,2.9c0,1.9-1.5,3-3.6,3C93.6,69.2,92.2,68.1,92.2,66.2z
		 M97.4,66.2c0-1.1-0.6-1.7-1.7-1.7c-1,0-1.7,0.6-1.7,1.7c0,1.1,0.6,1.8,1.7,1.8C96.8,68,97.4,67.3,97.4,66.2z"/>
	<path class="st1" d="M101.9,63.4h2l1.2,2.4c0.2,0.3,0.3,0.7,0.4,1h0.1c0.2-0.3,0.3-0.7,0.4-1l1.2-2.4h2v5.7h-1.7v-1.9
		c0-0.6,0.1-1.4,0.3-2h-0.1l-0.7,1.4l-1.1,2.1h-1l-1.1-2.1l-0.6-1.4h0c0.1,0.6,0.2,1.4,0.2,2v1.9h-1.7V63.4z"/>
	<path class="st1" d="M112.2,63.4h1.9v5.7h-1.9V63.4z"/>
	<path class="st1" d="M116.9,63.4h1.9l2,2.7l0.8,1.3h0.1c-0.1-0.6-0.3-1.4-0.3-2.1v-1.9h1.8v5.7h-1.9l-1.9-2.7l-0.8-1.2h-0.1
		c0.1,0.6,0.2,1.4,0.2,2.1v1.9h-1.8V63.4z"/>
	<path class="st1" d="M127.4,63.4h2.3l2.4,5.7h-2l-0.5-1.3h-2.3l-0.5,1.3H125L127.4,63.4z M127.7,66.7h1.6l-0.2-0.5
		c-0.2-0.6-0.4-1.2-0.6-1.8h0c-0.2,0.6-0.4,1.3-0.6,1.8L127.7,66.7z"/>
	<path class="st1" d="M134.6,64.6h-2.1v-1.1h6.1v1.1h-2.1v4.5h-1.9V64.6z"/>
	<path class="st1" d="M140.2,66.2c0-1.9,1.5-2.9,3.6-2.9c2.1,0,3.6,1.1,3.6,2.9c0,1.9-1.5,3-3.6,3C141.7,69.2,140.2,68.1,140.2,66.2
		z M145.5,66.2c0-1.1-0.6-1.7-1.7-1.7c-1,0-1.7,0.6-1.7,1.7c0,1.1,0.6,1.8,1.7,1.8C144.8,68,145.5,67.3,145.5,66.2z"/>
	<path class="st1" d="M149.9,63.4h2.9c1.7,0,3.1,0.4,3.1,1.8c0,0.8-0.5,1.4-1.4,1.6l1.8,2.2h-2.1l-1.4-2h-0.9v2h-1.9V63.4z
		 M152.6,66c0.9,0,1.4-0.3,1.4-0.8c0-0.5-0.5-0.7-1.4-0.7h-0.8V66H152.6z"/>
	<path class="st1" d="M158.4,63.4h1.9v5.7h-1.9V63.4z"/>
	<path class="st1" d="M162.7,68.4l1.1-0.9c0.5,0.3,1.3,0.6,1.9,0.6c0.7,0,1-0.2,1-0.5c0-0.3-0.4-0.4-1.1-0.6l-1-0.3
		c-0.8-0.2-1.6-0.7-1.6-1.6c0-0.9,1.2-1.7,2.8-1.7c0.9,0,1.9,0.3,2.6,0.7l-0.9,0.9c-0.5-0.3-1-0.4-1.6-0.4c-0.6,0-0.9,0.2-0.9,0.5
		c0,0.3,0.5,0.4,1.2,0.6l1,0.3c1,0.3,1.6,0.8,1.6,1.6c0,0.9-1.1,1.8-3,1.8C164.6,69.2,163.5,68.9,162.7,68.4z"/>
	<path class="st1" d="M171,63.4h2l1.2,2.4c0.2,0.3,0.3,0.7,0.4,1h0.1c0.2-0.3,0.3-0.7,0.4-1l1.2-2.4h2v5.7h-1.7v-1.9
		c0-0.6,0.1-1.4,0.3-2h-0.1l-0.7,1.4l-1.1,2.1h-1l-1.1-2.1l-0.6-1.4h0c0.1,0.6,0.2,1.4,0.2,2v1.9H171V63.4z"/>
	<path class="st1" d="M180.9,66.2c0-1.9,1.5-2.9,3.6-2.9c2.1,0,3.6,1.1,3.6,2.9c0,1.9-1.5,3-3.6,3C182.4,69.2,180.9,68.1,180.9,66.2
		z M186.2,66.2c0-1.1-0.6-1.7-1.7-1.7c-1,0-1.7,0.6-1.7,1.7c0,1.1,0.6,1.8,1.7,1.8C185.5,68,186.2,67.3,186.2,66.2z"/>
	<path class="st1" d="M191.8,64.6h-2.1v-1.1h6.1v1.1h-2.1v4.5h-1.9V64.6z"/>
	<path class="st1" d="M198.1,63.4h1.9v2.2h2.6v-2.2h1.9v5.7h-1.9v-2.3h-2.6v2.3h-1.9V63.4z"/>
	<path class="st1" d="M207.3,63.4h5v1.1h-3.1v1h2.6v1.1h-2.6V68h3.2v1.1h-5.1V63.4z"/>
	<path class="st1" d="M215,63.4h2.9c1.7,0,3.1,0.4,3.1,1.8c0,0.8-0.5,1.4-1.4,1.6l1.8,2.2h-2.1l-1.4-2h-0.9v2H215V63.4z M217.7,66
		c0.9,0,1.4-0.3,1.4-0.8c0-0.5-0.5-0.7-1.4-0.7h-0.8V66H217.7z"/>
	<path class="st1" d="M223.5,63.4h1.9V68h3.1v1.1h-4.9V63.4z"/>
	<path class="st1" d="M232.2,63.4h2.3l2.4,5.7h-2l-0.5-1.3h-2.3l-0.5,1.3h-1.9L232.2,63.4z M232.5,66.7h1.6l-0.2-0.5
		c-0.2-0.6-0.4-1.2-0.6-1.8h0c-0.2,0.6-0.4,1.3-0.6,1.8L232.5,66.7z"/>
	<path class="st1" d="M238.8,63.4h1.9l2,2.7l0.8,1.3h0.1c-0.1-0.6-0.3-1.4-0.3-2.1v-1.9h1.8v5.7h-1.9l-1.9-2.7l-0.8-1.2h-0.1
		c0.1,0.6,0.2,1.4,0.2,2.1v1.9h-1.8V63.4z"/>
	<path class="st1" d="M247.9,63.4h2.3c2.4,0,4,0.8,4,2.8s-1.6,2.9-3.9,2.9h-2.4V63.4z M250,68c1.3,0,2.2-0.4,2.2-1.8
		s-0.9-1.7-2.2-1.7h-0.3V68H250z"/>
</g>
</svg>
