<?xml version="1.0" encoding="utf-8"?>
<!-- Generator: Adobe Illustrator 22.0.0, SVG Export Plug-In . SVG Version: 6.00 Build 0)  -->
<svg version="1.1" id="图层_1" xmlns="http://www.w3.org/2000/svg" xmlns:xlink="http://www.w3.org/1999/xlink" x="0px" y="0px"
	 viewBox="0 0 301.3 85" style="enable-background:new 0 0 301.3 85;" xml:space="preserve">
<style type="text/css">
	.st0{fill:#231815;}
	.st1{clip-path:url(#SVGID_2_);}
	.st2{fill:#E60012;}
	.st3{fill:url(#SVGID_3_);}
	.st4{fill:#FFFFFF;}
</style>
<g>
	<g>
		<path d="M82.6,72.6l-0.8,0.1c0,0.6,0,1.6,0,2.8v0.4c0,1.3,0,2.2,0,2.8l0.8,0.1v0.3h-3.2v-0.3l0.8-0.1c0-0.6,0-1.6,0-2.8v-0.4
			c0-1.3,0-2.2,0-2.8l-0.8-0.1v-0.3h3.2V72.6z"/>
		<path d="M102.8,78.7l0.7,0.1v0.3h-3.1v-0.3l0.8-0.1l-0.6-1.8h-2.1L98,78.7l0.9,0.1v0.3h-2.1v-0.3l0.8-0.1l2.1-6.4h0.9L102.8,78.7z
			 M98.6,76.6h1.9l-1-3.1L98.6,76.6z"/>
		<path d="M124.6,72.3v0.3l-0.8,0.1l-0.1,6.4h-0.8l-4-5.7l0.1,5.2l1.2,0.1v0.3h-2.5v-0.3l0.8-0.1l0.1-5.7l-0.2-0.3l-0.7-0.1v-0.3
			h2.2l3.5,4.8l0-4.4l-1.2-0.1v-0.3H124.6z"/>
		<path d="M176.1,77.1l0,2h-5.3l0-0.3l0.8-0.1c0-0.6,0-1.5,0-2.6v-0.6c0-1.3,0-2.2,0-2.8l-0.8-0.1v-0.3h3.3v0.3l-0.9,0.1
			c0,0.6,0,1.5,0,2.7V76c0,1.2,0,2.2,0,2.8h1.9l0.5-1.7H176.1z"/>
		<path d="M195.9,77.2l0,1.9h-5.4v-0.3l0.8-0.1c0-0.6,0-1.6,0-2.8v-0.4c0-1.3,0-2.2,0-2.8l-0.8-0.1v-0.3h5.2l0,1.8h-0.5l-0.4-1.5
			h-1.9c0,0.6,0,1.6,0,2.8h1.3l0.1-1h0.5v2.3h-0.5l-0.1-1h-1.3v0c0,1.3,0,2.3,0,2.9h2.1l0.4-1.5H195.9z"/>
		<path d="M215.6,72.7l-1.7,3.5c0,1.2,0,2.1,0,2.5l0.9,0.1v0.3h-3.4v-0.3l0.9-0.1c0-0.7,0-1.4,0-2.3l-1.9-3.8l-0.5,0v-0.3h3.2v0.3
			l-0.9,0.1l1.4,3.1l1.4-3.1l-0.9-0.1v-0.3h2.1v0.3L215.6,72.7z"/>
	</g>
	<g>
		<path class="st0" d="M41.4,44.6H17.9c-0.8,0-1.4,0-2.1-0.2c-0.3-1.6-0.5-3.8-0.5-6.9l0-15.9c0-11.2,2.5-11.2,5.6-11.2h15.8
			c0,0,0,0,0,0h7.5l4-5.6l-2.8-4l-28.4,0v0C8,1.3,0.9,8.2,0.2,17.1l0,17.3c0,7.1,4.2,12.8,10.1,16.3c3.3,2,6.7,3.5,10.7,3.5v0h0
			c2.4,0,27.3,0,27.3,0L41.4,44.6z M17.9,46.6h22.4l1.4,2h-5H20.9h0c-1.8,0-3.3,0-4.3-2.1C17,46.6,17.5,46.6,17.9,46.6z M2.2,34.4
			l0-16.3C2.4,9.5,9.3,2.8,17.9,2.8l26.4,0l1.4,2H20.9v0C11.8,4.8,4.4,12,4.2,21.1h0l0,16.3c0,2.4,0.5,4.7,1.5,6.8
			C3.5,41.6,2.2,38.2,2.2,34.4z"/>
		<path class="st0" d="M111.5,21.5c0-3.9-1.3-7.5-3.2-10.9c-3.3-5.4-9.4-9.9-16.5-9.9c-0.6,0-19.7,0-20.3,0c-4.7,0-9.2,1.8-12.6,5.2
			c-3.4,3.4-5.2,7.8-5.2,12.6l0,15.9c0,7.1,4.4,13.1,10.2,16.4c3.2,1.9,6.7,3.3,10.6,3.3c2.4,0,17.9,0,20.3,0
			c9.3,0,16.8-7.5,16.8-16.8c0,0,0,0,0-0.1h0L111.5,21.5z M100.3,37.3v0.1c0,11.2-2.5,11.2-5.6,11.2h-0.4H74.4c-1.8,0-3.3,0-4.3-2.1
			c0.4,0,0.9,0.1,1.3,0.1h20.3c4,0,6.6-0.8,6.6-12.2l0-15.9c0-3.2-0.2-5.7-0.7-7.4c1.6,0.9,2.7,3.3,2.7,10.4L100.3,37.3
			C100.3,37.3,100.3,37.3,100.3,37.3z M96.3,18.5l0,15.9c0,10.2-1.9,10.2-4.6,10.2H71.4c-0.8,0-1.4,0-2.1-0.2
			c-0.3-1.6-0.5-3.8-0.5-6.9v-0.1h0l0-6.4l0-9.4c0,0,0,0,0,0v-0.1c0-10.9,2.5-10.9,5.6-10.9H79h11.2h4.1h0.4c0.2,0,0.5,0,0.7,0
			C96,12.2,96.3,14.8,96.3,18.5z M55.7,34.4l0-15.8c0-4.2,1.6-8.2,4.6-11.1c3-3,6.9-4.6,11.1-4.6c0.6,0,19.7,0,20.3,0
			c3.7,0,7.1,1.3,9.8,3.5c-2.1-0.9-4.4-1.5-6.8-1.5c-1.8,0-3.5,0-5.2,0h-10c-1.6,0-3.4,0-5.2,0c-9.3,0-16.8,7.5-16.8,16.8l0,15.8h0
			c0,0,0,0,0,0.1c0,2.4,0.5,4.7,1.4,6.8C57,41.5,55.7,38.1,55.7,34.4z"/>
		<path class="st0" d="M161.5,44.6h-23.4c-0.9,0-1.5,0-2-0.2c-0.3-1.6-0.5-3.9-0.5-7h0l0-32.6l-2.8-4h-12.3l0,33.6
			c0,7.1,4.3,12.9,10.3,16.4c3.2,1.9,6.6,3.4,10.5,3.4v0h0c2.4,0,27.3,0,27.3,0L161.5,44.6z M138.1,46.6h22.4l1.4,2h-5h-15.8h0
			c-1.8,0-3.3,0-4.3-2.1C137.1,46.6,137.6,46.6,138.1,46.6z M122.3,34.4l0-31.6h9.3l1.4,2h-8.7l0,32.6c0,0,0,0,0,0
			c0,2.4,0.5,4.7,1.5,6.8C123.6,41.6,122.3,38.2,122.3,34.4z"/>
		<path class="st0" d="M297.5,11.1c-1.2-2-2.3-3.5-3.8-5.1c-3.4-3.4-7.8-5.2-12.6-5.2c-0.6,0-32.7,0-33.4,0
			c-9.7,0-17.6,7.8-17.8,17.5l0,0c0,0.1,0,30.1,0,30.1l4,5.6h11.2l0-32.5c0-11,2.5-11,5.6-11h7.1l0,37.9l4,5.6l0,0v0H273l0-43.5
			h11.1c0.2,0,0.5,0,0.7,0c0.6,1.6,0.9,4.2,0.9,7.9l0,29.9l4,5.6v0h11.2c0,0,0-32.3,0-32.5C300.8,17.7,299.5,14.5,297.5,11.1z
			 M231.9,47.8c0,0,0-29.1,0-29.3c0-8.7,7.1-15.8,15.8-15.8c0.6,0,32.7,0,33.4,0c3.6,0,7.1,1.2,9.9,3.5c-2.1-1-4.4-1.5-6.9-1.5
			c-1.9,0-3.7,0-5.4,0h-22.5c-1.7,0-3.5,0-5.4,0c-9.3,0-16.8,7.5-16.8,16.8c0,0.2,0,20.8,0,29.1L231.9,47.8z M259.8,47.8l0-37.2h2
			l0,40L259.8,47.8z M287.7,47.8l0-29.3c0-3.3-0.2-5.7-0.7-7.5c1.6,0.9,2.7,3.3,2.7,10.5l0,29.1L287.7,47.8z"/>
		<path class="st0" d="M218.6,0.8h-12.3l0,33.6c0,10.2-1.9,10.2-4.6,10.2h-14c-0.8,0-1.4,0-2.1-0.2c-0.3-1.6-0.5-3.9-0.5-6.9v-0.1h0
			l0-32.5l-2.8-4h-12.3l0,33.6c0,7.1,4.2,13.1,10.2,16.3c3.1,1.9,6.6,3.4,10.5,3.4c2.4,0,11.6,0,14,0c9.3,0,16.8-7.5,16.8-16.8
			c0,0,0,0,0-0.1h0l0-32.5l0,0L218.6,0.8z M187.7,46.6h14c4,0,6.6-0.8,6.6-12.2l0-31.6h9.3l1.4,2h-8.7l0,32.6
			c0,11.2-2.5,11.2-5.6,11.2h-14c-1.8,0-3.3,0-4.3-2.1C186.8,46.6,187.2,46.6,187.7,46.6z M171.9,34.4l0-31.5h9.3l1.4,2h-8.7l0,32.5
			h0c0,0,0,0,0,0.1c0,2.4,0.5,4.7,1.4,6.8C173.2,41.5,171.9,38.1,171.9,34.4z"/>
	</g>
	<g>
		<defs>
			<path id="SVGID_1_" d="M152.7,83.5L152.7,83.5h-8.9l0,0c-1.9,0-3.5-1.6-3.5-3.5l0,0v-8.9l0,0c0-1.9,1.6-3.5,3.5-3.5l0,0h8.9l0,0
				c1.9,0,3.5,1.6,3.5,3.5l0,0V80l0,0C156.1,81.9,154.6,83.5,152.7,83.5z"/>
		</defs>
		<clipPath id="SVGID_2_">
			<use xlink:href="#SVGID_1_"  style="overflow:visible;"/>
		</clipPath>
		<g class="st1">
			<path class="st2" d="M152.7,83.5L152.7,83.5h-8.9l0,0c-1.9,0-3.5-1.6-3.5-3.5l0,0v-8.9l0,0c0-1.9,1.6-3.5,3.5-3.5l0,0h8.9l0,0
				c1.9,0,3.5,1.6,3.5,3.5l0,0V80l0,0C156.1,81.9,154.6,83.5,152.7,83.5z"/>
			<linearGradient id="SVGID_3_" gradientUnits="userSpaceOnUse" x1="142.9292" y1="76.8804" x2="156.1245" y2="76.8804">
				<stop  offset="0" style="stop-color:#C30D23"/>
				<stop  offset="1" style="stop-color:#E60012"/>
			</linearGradient>
			<path class="st3" d="M153.9,70.3l-2.9,0.3l-3.1,0.3l1.2,1.2h-1l-1.2-1.2v0.7l-1.3-1.3l-1,0.9l-1.6,0.5l0.7,0.7v7.6h-0.7l3.6,3.6
				l6.1,0c1.9,0,3.5-1.6,3.5-3.5v-7.5L153.9,70.3z"/>
			<g>
				<polygon class="st4" points="145.6,70.3 144.3,70.3 144.3,70.9 142.6,70.9 142.9,71.6 144.3,71.6 144.3,79.9 145.6,79.9 
					145.6,71.6 147.2,71.6 146.9,70.9 145.6,70.9 				"/>
				<rect x="142.9" y="72.2" class="st4" width="0.7" height="7.6"/>
				<rect x="146.2" y="72.2" class="st4" width="0.7" height="7.6"/>
				<path class="st4" d="M149.2,71.9h-1.3v0.7v2.2v0.7v2.2v0.7h1.3h3h1.3v-0.7v-2.2v-0.7v-2.2v-0.7h-1.3H149.2z M152.2,77.5h-3v-2.2
					h3V77.5z M152.2,74.7h-3v-2.2h3V74.7z"/>
				<polygon class="st4" points="147.6,70.3 147.9,70.9 153.5,70.9 153.9,70.3 				"/>
				<polygon class="st4" points="147.6,79.9 153.9,79.9 153.5,79.2 147.9,79.2 				"/>
			</g>
			<g>
				<path class="st4" d="M145.4,81.2h0.3v0.4h0.4v-0.4h0.3v1.1H146v-0.4h-0.4v0.4h-0.3V81.2z"/>
				<path class="st4" d="M146.8,81.2h0.3l0.1,0.5c0,0.1,0,0.2,0,0.3h0c0-0.1,0-0.2,0.1-0.3l0.1-0.5h0.2l0.1,0.5c0,0.1,0,0.2,0.1,0.3
					h0c0-0.1,0-0.2,0-0.3l0.1-0.5h0.2l-0.2,1.1h-0.3l-0.1-0.5c0-0.1,0-0.2,0-0.2h0c0,0.1,0,0.2,0,0.2l-0.1,0.5H147L146.8,81.2z"/>
				<path class="st4" d="M148.7,81.8v-0.6h0.3v0.6c0,0.2,0.1,0.3,0.2,0.3c0.1,0,0.2-0.1,0.2-0.3v-0.6h0.2v0.6c0,0.4-0.1,0.5-0.4,0.5
					C148.8,82.3,148.7,82.1,148.7,81.8z"/>
				<path class="st4" d="M150.2,81.2h0.3l0.3,0.5l0.1,0.2h0c0-0.1,0-0.3,0-0.4v-0.4h0.2v1.1h-0.3l-0.3-0.5l-0.1-0.2h0
					c0,0.1,0,0.3,0,0.4v0.4h-0.2V81.2z"/>
			</g>
		</g>
	</g>
</g>
</svg>
