<?xml version="1.0" encoding="utf-8"?>
<!-- Generator: Adobe Illustrator 24.0.0, SVG Export Plug-In . SVG Version: 6.00 Build 0)  -->
<svg version="1.1" id="图层_1" xmlns="http://www.w3.org/2000/svg" xmlns:xlink="http://www.w3.org/1999/xlink" x="0px" y="0px"
	 viewBox="0 0 1200 750" style="enable-background:new 0 0 1200 750;" xml:space="preserve">
<g>
	<g>
		<path d="M326.5,79.2v53.3c0,0.1-0.1,0.2-0.3,0.2h-23.4c-0.2,0-0.3-0.1-0.3-0.2V79.2c0-0.1,0.1-0.2,0.3-0.2h3.2
			c0.2,0,0.3,0.1,0.3,0.2v51.1h6.5V79.2c0-0.1,0.1-0.2,0.2-0.2h3.2c0.2,0,0.3,0.1,0.3,0.2v51.1h6.4V79.2c0-0.1,0.1-0.2,0.3-0.2h3.2
			C326.4,79,326.5,79.1,326.5,79.2z"/>
		<path d="M298.1,89.5v2.2c0,0.1-0.1,0.2-0.3,0.2h-25.6c-2.1,0-3.6-1-4.3-2.9v-6.9c0-1.3,1-2.3,2.9-3c0.3-0.1,0.8-0.2,1.4-0.2h21.2
			c0.2,0,0.2,0.1,0.2,0.2v7.3c0,0.1-0.1,0.2-0.2,0.2h-17.4c-0.2,0-0.3-0.1-0.3-0.2v-2.1c0-0.1,0.1-0.2,0.3-0.2h14v-2.6H272
			c-0.1,0-0.3,0.1-0.5,0.4v6.7c0,0.4,0.3,0.6,0.8,0.6h25.6C298.1,89.3,298.1,89.4,298.1,89.5z"/>
		<path d="M293.5,94.7v7.3c0,0.1-0.1,0.2-0.3,0.2h-20.1v2.6h20.1c0.2,0,0.3,0.1,0.3,0.2v2.2c0,0.1-0.1,0.2-0.3,0.2h-23.4
			c-0.2,0-0.3-0.1-0.3-0.2V100c0-0.1,0.1-0.2,0.3-0.2h20.1v-2.8h-20.1c-0.2,0-0.3-0.1-0.3-0.2v-2.1c0-0.1,0.1-0.2,0.3-0.2h23.4
			C293.4,94.5,293.5,94.6,293.5,94.7z"/>
		<path d="M293.5,110.2v2.1c0,0.1-0.1,0.2-0.2,0.2h-20v2.6H293c0.2,0,0.3,0.1,0.3,0.2v2.1c0,0.1-0.1,0.2-0.3,0.2h-19.8v2.6h20
			c0.2,0,0.2,0.1,0.2,0.2v2.1c0,0.1-0.1,0.2-0.2,0.2h-23.5c-0.2,0-0.2-0.1-0.2-0.2v-12.5c0-0.1,0.1-0.2,0.2-0.2h23.5
			C293.5,110,293.5,110.1,293.5,110.2z"/>
		<path d="M299.8,125.9v2.1c0,0.1-0.1,0.2-0.3,0.2h-9.7v0.9c0,1.7,1.2,3.5,3.6,5.4c0,0.1-0.9,0.8-2.6,2.1c-3.2-2-4.8-4.6-4.8-7.8
			v-0.6h-9.3v2c0,2.1-1.6,4.3-4.7,6.5c-0.1,0-0.9-0.7-2.5-2.1c2.4-1.9,3.6-3.7,3.6-5.6v-0.8h-9.5c-0.2,0-0.3-0.1-0.3-0.2v-2.1
			c0-0.1,0.1-0.2,0.3-0.2h36C299.8,125.7,299.8,125.8,299.8,125.9z"/>
	</g>
	<g>
		<path d="M404.4,91.6v2.1c-0.1,0.1-0.2,0.2-0.4,0.2h-61.1c-0.3,0-0.4-0.1-0.4-0.2v-2.1c0-0.1,0.1-0.2,0.4-0.2h61.1
			C404.2,91.4,404.4,91.5,404.4,91.6z M396.8,81.4v2.1c-0.1,0.1-0.2,0.2-0.4,0.2h-46c-0.3,0-0.4-0.1-0.4-0.2v-2.1
			c0-0.1,0.1-0.2,0.4-0.2h46C396.6,81.2,396.8,81.3,396.8,81.4z M396.8,86.5v2.1c-0.1,0.1-0.2,0.2-0.4,0.2h-46
			c-0.3,0-0.4-0.1-0.4-0.2v-2.1c0-0.1,0.1-0.2,0.4-0.2h46C396.6,86.3,396.8,86.4,396.8,86.5z"/>
		<path d="M393.5,96.4v9.9c0,0.1-0.2,0.2-0.4,0.2h-40c-0.3,0-0.4-0.1-0.4-0.2v-9.9c0-0.1,0.1-0.2,0.4-0.2h40
			C393.4,96.2,393.5,96.3,393.5,96.4z M389.8,98.7h-33.3v5.3h33.3V98.7z"/>
		<path d="M395.5,115.5v0.1c0,2.9-5.4,4.9-16.2,6c-1.6,0.1-3.7,0.2-6.3,0.3c-8.8,0-15.6-1.2-20.5-3.7c-1.3-0.8-1.9-1.7-1.9-2.5v-0.3
			c0-2.7,5.4-4.7,16.2-5.9c2.3-0.1,4.2-0.2,5.9-0.2h0.8c10.4,0,17.6,1.6,21.6,4.9C395.4,114.8,395.5,115.2,395.5,115.5z
			 M373.8,111.8h-1.5c-8.7,0-14.6,1-17.8,3l-0.3,0.5v0.4c0,1.8,5.2,3,15.5,3.6c1.4,0.1,2.5,0.1,3.5,0.1c8.8,0,14.8-1,18-3
			c0.3-0.3,0.5-0.5,0.5-0.8v-0.1c0-1.7-4.6-2.9-13.7-3.6C376.8,111.8,375.4,111.8,373.8,111.8z"/>
		<path d="M404.1,132.2v2.1c-0.1,0.1-0.2,0.2-0.4,0.2h-60.9c-0.3,0-0.4-0.1-0.4-0.2v-2.1c0-0.1,0.1-0.2,0.4-0.2h28.6v-5h-21.5
			c-0.3,0-0.4-0.1-0.4-0.2v-2.1c0-0.1,0.1-0.2,0.4-0.2h46c0.3,0,0.4,0.1,0.4,0.2v2.1c-0.1,0.1-0.2,0.2-0.4,0.2h-20.8v5h28.6
			C404,132.1,404.1,132.1,404.1,132.2z"/>
	</g>
	<path d="M460,81.4v2.4c0,0.2-0.1,0.2-0.3,0.2h-42.9v22.4h42.9c0.2,0,0.3,0.1,0.3,0.2v27.6c0,0.2-0.1,0.2-0.3,0.2h-46.1
		c-0.2,0-0.3-0.1-0.3-0.2v-2.2c0-0.1,0.1-0.2,0.3-0.2h42.8v-22.6h-42.8c-0.2,0-0.3-0.1-0.3-0.2V81.4c0-0.2,0.1-0.2,0.3-0.2h46.1
		C460,81.2,460,81.3,460,81.4z"/>
	<g>
		<path d="M531,90v2.2c-0.1,0.1-0.2,0.2-0.4,0.2h-60.9c-0.3,0-0.4-0.1-0.4-0.2V90c0-0.1,0.1-0.2,0.4-0.2h60.9
			C530.9,89.9,531,89.9,531,90z M523.5,79.2v2.2c-0.1,0.1-0.2,0.2-0.4,0.2h-45.8c-0.3,0-0.4-0.1-0.4-0.2v-2.2c0-0.1,0.1-0.2,0.4-0.2
			H523C523.3,79,523.5,79.1,523.5,79.2z M523.5,84.6v2.2c-0.1,0.1-0.2,0.2-0.4,0.2h-45.8c-0.3,0-0.4-0.1-0.4-0.2v-2.2
			c0-0.1,0.1-0.2,0.4-0.2H523C523.3,84.4,523.5,84.5,523.5,84.6z"/>
		<path d="M520.2,95.2v10.5c0,0.1-0.2,0.2-0.4,0.2H480c-0.3,0-0.4-0.1-0.4-0.2V95.2c0-0.1,0.1-0.2,0.4-0.2h39.8
			C520.1,95,520.2,95.1,520.2,95.2z M516.5,97.6h-33.2v5.7h33.2V97.6z"/>
		<path d="M522.2,115.5v0.1c0,3-5.4,5.2-16.1,6.4c-1.6,0.1-3.7,0.2-6.3,0.3c-8.8,0-15.6-1.3-20.4-4c-1.3-0.9-1.9-1.8-1.9-2.7v-0.3
			c0-2.9,5.4-5,16.1-6.3c2.2-0.2,4.2-0.2,5.8-0.2h0.8c10.3,0,17.5,1.7,21.6,5.2C522.1,114.7,522.2,115.2,522.2,115.5z M500.6,111.5
			h-1.5c-8.6,0-14.5,1.1-17.7,3.2l-0.3,0.6v0.5c0,1.9,5.1,3.2,15.5,3.9c1.4,0.1,2.5,0.1,3.4,0.1c8.7,0,14.7-1.1,17.9-3.2
			c0.3-0.3,0.5-0.6,0.5-0.9v-0.1c0-1.8-4.6-3.1-13.7-3.9C503.5,111.5,502.1,111.5,500.6,111.5z"/>
		<path d="M530.5,125.2h-61c-0.3,0-0.4,0.1-0.4,0.2v2.2c0,0.1,0.1,0.2,0.4,0.2h18.2v1.7c0,2-3.3,3.4-8,4.9c2.7,1.5,4.1,2.2,4.3,2.2
			c5.3-2.3,8-4.6,8-6.8v-2.1h16.2v2.1c0,2.2,2.7,4.5,8,6.8c0.2,0,1.6-0.7,4.3-2.2c-4.7-1.6-8-3-8-4.9v-1.7h18.2
			c0.2,0,0.4-0.1,0.4-0.2v-2.2C530.9,125.3,530.8,125.2,530.5,125.2z"/>
	</g>
	<path d="M601.9,81.4v2.3c0,0.2-0.1,0.2-0.3,0.2h-28.8v47.8h17.9V96.9c0-0.2,0.1-0.2,0.3-0.2h3.2c0.2,0,0.3,0.1,0.3,0.2v37.4
		c0,0.2-0.1,0.2-0.3,0.2H548c-0.2,0-0.3-0.1-0.3-0.2V96.9c0-0.2,0.1-0.2,0.3-0.2h3.1c0.2,0,0.3,0.1,0.3,0.2v34.9h17.8V84h-28.9
		c-0.2,0-0.3-0.1-0.3-0.2v-2.3c0-0.2,0.1-0.2,0.3-0.2h61.3C601.8,81.2,601.9,81.3,601.9,81.4z"/>
	<g>
		<path d="M703.8,124.2h-36c-0.2,0-0.3,0.1-0.3,0.2v2.1c0,0.1,0.1,0.2,0.3,0.2h9.5v0.8c0,4.2-0.3,4.2-3.9,7c1.6,1.4,2.8,2.1,2.9,2.1
			c3.1-2.2,4.7-4.4,4.7-6.5v-3.5h9.6v3.5c0,2.1,1.6,4.3,4.7,6.5c0.1,0,1.3-0.7,2.9-2.1c-3.6-2.9-3.9-2.9-3.9-7v-0.8h9.5
			c0.1,0,0.2-0.1,0.3-0.2v-2.1C704.1,124.3,704,124.3,703.8,124.2z"/>
		<path d="M704.1,88.2v2.1c0,0.1-0.1,0.2-0.3,0.2h-16.2v6c0,0.1-0.1,0.2-0.3,0.2h-3.2c-0.2,0-0.2-0.1-0.2-0.2v-6h-16
			c-0.2,0-0.3-0.1-0.3-0.2v-2.1c0-0.1,0.1-0.2,0.3-0.2h35.9C704,88,704.1,88.1,704.1,88.2z M699.5,79.2v2.2c0,0.1-0.1,0.2-0.3,0.2
			h-26.9c-0.2,0-0.3-0.1-0.3-0.2v-2.2c0-0.1,0.1-0.2,0.3-0.2h26.9C699.4,79,699.5,79.1,699.5,79.2z"/>
		<path d="M697.8,97v22.5c0,0.1-0.1,0.2-0.2,0.2H674c-0.2,0-0.2-0.1-0.2-0.2V97c0-0.1,0.1-0.2,0.2-0.2h3.2c0.2,0,0.3,0.1,0.3,0.2
			v20.1h6.5V94.7c0-0.1,0.1-0.2,0.3-0.2h3.2c0.2,0,0.3,0.1,0.3,0.2v22.4h6.4V97c0-0.1,0.1-0.2,0.3-0.2h3.2
			C697.7,96.8,697.8,96.9,697.8,97z"/>
		<path d="M730.7,79.2v27.6c0,0.1-0.1,0.2-0.3,0.2h-19.3c-0.1,0-0.1,0-0.1-0.1c-0.1,0.1-0.4,0.1-0.6,0.1v23.1h20.1
			c0.2,0,0.3,0.1,0.3,0.2v2.1c0,0.1-0.1,0.2-0.3,0.2H707c-0.2,0-0.3-0.1-0.3-0.2v-27.8c0-0.1,0.1-0.2,0.3-0.2h20.1V81.5H707
			c-0.2,0-0.3-0.1-0.3-0.2v-2.1c0-0.1,0.1-0.2,0.3-0.2h23.4C730.6,79,730.7,79.1,730.7,79.2z"/>
	</g>
	<g>
		<path d="M796.7,91.9c0,0.3-0.7,1-2.2,2.3l-23.4-5.5l-23.3,5.5c-0.2-0.1-1-0.9-2.4-2.3c1.5-0.4,8-2,19.6-4.7v-0.1
			c-7.4-1.7-12.6-2.9-15.8-3.8c1.5-1.5,2.3-2.3,2.4-2.3l19.6,4.7l19.6-4.7c0.2,0.1,1.1,0.9,2.5,2.3c-3.3,0.9-8.5,2.1-15.9,3.8v0.1
			C789.4,90,795.8,91.6,796.7,91.9z"/>
		<path d="M791.7,94.2v2.2c0,0.1-0.2,0.2-0.4,0.2H754v2.7h36.9c0.3,0,0.4,0.1,0.4,0.2v2.2c-0.1,0.1-0.2,0.2-0.4,0.2H754v2.7h37.3
			c0.3,0,0.4,0.1,0.4,0.2v2.2c0,0.1-0.2,0.2-0.4,0.2h-40.6c-0.3,0-0.4-0.1-0.4-0.2V94.2c0-0.1,0.1-0.2,0.4-0.2h40.6
			C791.6,94,791.7,94.1,791.7,94.2z"/>
		<path d="M802.6,116.5v2.2c-0.1,0.1-0.2,0.2-0.4,0.2h-62c-0.3,0-0.4-0.1-0.4-0.2v-2.2c0-0.1,0.1-0.2,0.4-0.2h62
			C802.5,116.3,802.6,116.3,802.6,116.5z M794.7,111.2v2.2c-0.1,0.1-0.2,0.2-0.4,0.2h-46.4c-0.3,0-0.4-0.1-0.4-0.2v-2.2
			c0-0.1,0.1-0.2,0.4-0.2h21.5v-5.1c0-0.1,0.1-0.2,0.4-0.2h2.8c0.3,0,0.4,0.1,0.4,0.2v5.1h21.2C794.6,111,794.7,111,794.7,111.2z"/>
		<path d="M802.7,132.2v2.2c-0.1,0.1-0.2,0.2-0.4,0.2h-62.1c-0.3,0-0.4-0.1-0.4-0.2v-2.2c0-0.1,0.1-0.2,0.4-0.2h62.1
			C802.6,132,802.7,132.1,802.7,132.2z M795,121.7v2.2c-0.1,0.1-0.2,0.2-0.4,0.2h-46.8c-0.3,0-0.4-0.1-0.4-0.2v-2.2
			c0-0.1,0.1-0.2,0.4-0.2h46.8C794.9,121.5,795,121.5,795,121.7z M795,126.9v2.2c-0.1,0.1-0.2,0.2-0.4,0.2h-46.8
			c-0.3,0-0.4-0.1-0.4-0.2v-2.2c0-0.1,0.1-0.2,0.4-0.2h46.8C794.9,126.7,795,126.8,795,126.9z"/>
	</g>
	<path d="M858.4,81.4v2.3c-0.1,0.2-0.2,0.2-0.5,0.2h-42.5v22.5h42c0.3,0,0.5,0.1,0.5,0.2v2.3c-0.1,0.1-0.2,0.2-0.5,0.2h-42v22.5
		h42.5c0.3,0,0.5,0.1,0.5,0.2v2.3c-0.1,0.2-0.2,0.2-0.5,0.2h-45.7c-0.3,0-0.5-0.1-0.5-0.2V81.4c0-0.2,0.2-0.2,0.5-0.2h45.7
		C858.2,81.2,858.4,81.3,858.4,81.4z"/>
	<g>
		<path d="M936.7,93.1v2.2c-0.1,0.1-0.2,0.2-0.4,0.2h-62c-0.3,0-0.4-0.1-0.4-0.2v-2.2c0-0.1,0.1-0.2,0.4-0.2h62
			C936.5,93,936.7,93,936.7,93.1z"/>
		<path d="M928.8,81.4v2.2c-0.1,0.1-0.2,0.2-0.4,0.2h-46.4c-0.3,0-0.4-0.1-0.4-0.2v-2.2c0-0.1,0.1-0.2,0.4-0.2h46.4
			C928.6,81.2,928.8,81.3,928.8,81.4z"/>
		<path d="M927.9,121.1v0.2c0,6-5.4,10.2-16.2,12.6c-1.6,0.3-3.7,0.5-6.3,0.6c-8.8,0-15.7-2.6-20.5-7.8c-1.3-1.7-1.9-3.5-1.9-5.2
			v-0.7c0-5.6,5.4-9.8,16.2-12.4c2.3-0.3,4.2-0.4,5.9-0.4h0.8c10.4,0,17.6,3.4,21.7,10.2C927.8,119.5,927.9,120.5,927.9,121.1z
			 M906.2,110.6h-1.5c-8.7,0-14.6,2.8-17.8,8.4l-0.3,1.5v1.2c0,5,5.2,8.4,15.5,10.1c1.4,0.2,2.5,0.2,3.5,0.2c8.8,0,14.8-2.8,18-8.4
			c0.3-0.7,0.5-1.5,0.5-2.3V121c0-4.7-4.6-8.1-13.8-10.1C909.2,110.7,907.7,110.6,906.2,110.6z"/>
		<rect x="903.2" y="94.2" width="3.7" height="14.7"/>
	</g>
	<path d="M866.2,104.2h0.2c1.7,0,2.8,0.9,3.2,2.6l0.1,0.8c0,1.5-0.7,2.6-2.1,3.2c-0.4,0.1-0.7,0.2-1.1,0.2H866c-1.1,0-2-0.6-2.6-1.7
		c-0.3-0.5-0.4-1.1-0.4-1.7c0-1.6,0.7-2.7,2.1-3.2C865.4,104.3,865.8,104.2,866.2,104.2z"/>
	<path d="M334.8,104.2h0.2c1.7,0,2.8,0.9,3.2,2.6l0.1,0.8c0,1.5-0.7,2.6-2.1,3.2c-0.4,0.1-0.7,0.2-1.1,0.2h-0.5
		c-1.1,0-2-0.6-2.6-1.7c-0.3-0.5-0.4-1.1-0.4-1.7c0-1.6,0.7-2.7,2.1-3.2C334.1,104.3,334.4,104.2,334.8,104.2z"/>
	<path d="M658.7,106.8v2.2c-0.1,0.1-0.2,0.2-0.4,0.2h-46.8c-0.3,0-0.4-0.1-0.4-0.2v-2.2c0-0.1,0.1-0.2,0.4-0.2h46.8
		C658.5,106.6,658.7,106.7,658.7,106.8z"/>
</g>
<g>
	<g>
		<path d="M431.6,188.4v52.4c0,0.1-0.1,0.2-0.3,0.2h-23.4c-0.2,0-0.3-0.1-0.3-0.2v-52.4c0-0.1,0.1-0.2,0.3-0.2h3.2
			c0.2,0,0.3,0.1,0.3,0.2v50.3h6.5v-50.3c0-0.1,0.1-0.2,0.2-0.2h3.2c0.2,0,0.3,0.1,0.3,0.2v50.3h6.4v-50.3c0-0.1,0.1-0.2,0.3-0.2
			h3.2C431.5,188.2,431.6,188.3,431.6,188.4z"/>
		<path d="M405,198.5v2.1c0,0.1-0.1,0.2-0.3,0.2h-35.9c-0.2,0-0.3-0.1-0.3-0.2v-2.1c0-0.1,0.1-0.2,0.3-0.2h35.9
			C404.9,198.3,405,198.4,405,198.5z M400.6,188.3v2.1c0,0.1-0.1,0.2-0.3,0.2h-27.1c-0.2,0-0.2-0.1-0.2-0.2v-2.1
			c0-0.1,0.1-0.2,0.2-0.2h27.1C400.5,188.1,400.6,188.2,400.6,188.3z M400.6,193.4v2.1c0,0.1-0.1,0.2-0.3,0.2h-27.1
			c-0.2,0-0.2-0.1-0.2-0.2v-2.1c0-0.1,0.1-0.2,0.2-0.2h27.1C400.5,193.2,400.6,193.3,400.6,193.4z"/>
		<path d="M398.6,203.3v9.9c0,0.1-0.1,0.2-0.2,0.2h-23.5c-0.2,0-0.2-0.1-0.2-0.2v-9.9c0-0.1,0.1-0.2,0.2-0.2h23.5
			C398.6,203.1,398.6,203.2,398.6,203.3z M395,205.6h-16.6v5.3H395V205.6z"/>
		<path d="M399.8,222.4v0.1c0,2.9-3.2,4.9-9.5,6c-0.9,0.1-2.2,0.2-3.7,0.3c-5.2,0-9.2-1.2-12.1-3.7c-0.8-0.8-1.1-1.7-1.1-2.5v-0.3
			c0-2.7,3.2-4.7,9.5-5.9c1.3-0.1,2.5-0.2,3.4-0.2h0.5c6.1,0,10.3,1.6,12.7,4.9C399.7,221.7,399.8,222.1,399.8,222.4z M387,218.7
			h-0.8c-4.4,0-7.4,1-9,3l-0.1,0.5v0.4c0,1.8,2.6,3,7.9,3.6c0.7,0.1,1.3,0.1,1.8,0.1c4.5,0,7.5-1,9.2-3c0.2-0.3,0.3-0.5,0.3-0.8
			v-0.1c0-1.7-2.3-2.9-7-3.6C388.5,218.7,387.8,218.7,387,218.7z"/>
		<path d="M404.9,239.1v2.1c0,0.1-0.1,0.2-0.3,0.2h-35.8c-0.2,0-0.3-0.1-0.3-0.2v-2.1c0-0.1,0.1-0.2,0.3-0.2h16v-5H373
			c-0.2,0-0.3-0.1-0.3-0.2v-2.1c0-0.1,0.1-0.2,0.3-0.2h27c0.2,0,0.3,0.1,0.3,0.2v2.1c0,0.1-0.1,0.2-0.3,0.2h-11.6v5h16.1
			C404.8,239,404.9,239,404.9,239.1z"/>
	</g>
	<g>
		<path d="M658.9,218.8V242c0,0.3-0.2,0.5-0.4,0.5h-41.7c-0.3,0-0.4-0.2-0.4-0.5v-23.3c0-0.3,0.1-0.5,0.4-0.5h2.8
			c0.3,0,0.5,0.2,0.5,0.5v21.1h15.8v-31.6c0-0.3,0.2-0.5,0.5-0.5h2.8c0.3,0.1,0.5,0.2,0.5,0.5v31.6h15.7v-21.1
			c0-0.3,0.2-0.5,0.5-0.5h2.8C658.8,218.3,658.9,218.5,658.9,218.8z"/>
		<path d="M669.7,206.6h-17.4v-0.1c0-2.4,1.4-12.2,8.3-17.3V189c0-0.1-1.4-0.8-4.3-2c-7.1,5.3-8.6,15.5-8.6,18.4v1.2h-20.1v-1.2
			c0-2.9-1.4-13.1-8.6-18.4c-2.8,1.3-4.3,1.9-4.3,2v0.1c6.9,5.2,8.3,15,8.3,17.3v0.1h-17.4c-0.3,0-0.5,0.1-0.5,0.2v2.2
			c0,0.1,0.2,0.2,0.5,0.2h63.9c0.2,0,0.4-0.1,0.5-0.2v-2.2C670.1,206.6,670,206.6,669.7,206.6z"/>
	</g>
	<g>
		<path d="M831,195.5h-17.4v-0.1c0-2.4,4.1-4.5,8.3-6.4v-0.1c0-0.1-1.4-0.8-4.3-2c-5.7,2.1-9.2,5.8-9.2,8.6h-18.8
			c0-2.9-3.5-6.5-9.2-8.6c-2.8,1.3-4.3,1.9-4.3,2v0.1c4.2,1.9,8.3,4,8.3,6.4v0.1H767c-0.3,0-0.5,0.1-0.5,0.2v2.2
			c0,0.1,0.2,0.2,0.5,0.2H831c0.2,0,0.4-0.1,0.5-0.2v-2.2C831.4,195.6,831.3,195.5,831,195.5z"/>
		<path d="M820.1,200.8v7.4c-0.1,0.1-0.2,0.2-0.5,0.2h-38.3v2.7h38.3c0.3,0,0.5,0.1,0.5,0.2v2.2c-0.1,0.1-0.2,0.2-0.5,0.2h-41.6
			c-0.3,0-0.5-0.1-0.5-0.2v-7.4c0-0.1,0.2-0.2,0.5-0.2h38.3v-2.8h-38.3c-0.3,0-0.5-0.1-0.5-0.2v-2.1c0-0.1,0.2-0.2,0.5-0.2h41.6
			C820,200.6,820.1,200.7,820.1,200.8z"/>
		<path d="M831.4,221.8v2.1c-0.1,0.1-0.2,0.2-0.5,0.2h-29.8v6.4c0,0.1-0.2,0.2-0.5,0.2h-3.1c-0.3,0-0.4-0.1-0.4-0.2v-6.4h-30
			c-0.3,0-0.5-0.1-0.5-0.2v-2.1c0-0.1,0.2-0.2,0.5-0.2H831C831.3,221.6,831.4,221.7,831.4,221.8z M823.3,216.6v2.2
			c-0.1,0.1-0.2,0.2-0.5,0.2h-47.7c-0.3,0-0.5-0.1-0.5-0.2v-2.2c0-0.1,0.2-0.2,0.5-0.2h47.7C823.2,216.4,823.3,216.4,823.3,216.6z"
			/>
		<path d="M820.2,229.7v2.1c0,0.1-0.2,0.2-0.4,0.2h-38.4v2.7h38c0.3,0,0.5,0.1,0.5,0.2v2.2c-0.1,0.1-0.2,0.2-0.5,0.2h-38v2.7h38.4
			c0.3,0,0.4,0.1,0.4,0.2v2.1c0,0.1-0.2,0.2-0.4,0.2h-41.7c-0.3,0-0.4-0.1-0.4-0.2v-12.7c0-0.1,0.1-0.2,0.4-0.2h41.7
			C820.1,229.5,820.2,229.6,820.2,229.7z"/>
	</g>
	<g>
		<g>
			<path d="M483.9,193.4v2.1c0,0.1-0.1,0.2-0.3,0.2h-16.2v5c0,0.1-0.1,0.2-0.3,0.2H464c-0.2,0-0.2-0.1-0.2-0.2v-5h-16
				c-0.2,0-0.3-0.1-0.3-0.2v-2.1c0-0.1,0.1-0.2,0.3-0.2h35.9C483.8,193.3,483.9,193.3,483.9,193.4z M479.3,188.3v2.2
				c0,0.1-0.1,0.2-0.3,0.2h-26.9c-0.2,0-0.3-0.1-0.3-0.2v-2.2c0-0.1,0.1-0.2,0.3-0.2H479C479.2,188.1,479.3,188.1,479.3,188.3z"/>
			<path d="M477.5,201.2v2.1c0,0.1-0.1,0.2-0.2,0.2h-20v2.6h19.8c0.2,0,0.3,0.1,0.3,0.2v2.1c0,0.1-0.1,0.2-0.3,0.2h-19.8v2.6h20
				c0.2,0,0.2,0.1,0.2,0.2v2.1c0,0.1-0.1,0.2-0.2,0.2h-23.5c-0.2,0-0.2-0.1-0.2-0.2v-12.5c0-0.1,0.1-0.2,0.2-0.2h23.5
				C477.5,201,477.5,201.1,477.5,201.2z"/>
			<path d="M483.9,223.7v2.1c0,0.1-0.1,0.2-0.3,0.2h-35.9c-0.2,0-0.3-0.1-0.3-0.2v-2.1c0-0.1,0.1-0.2,0.3-0.2h35.9
				C483.8,223.5,483.9,223.6,483.9,223.7z M479.3,218.5v2.1c0,0.1-0.1,0.2-0.3,0.2h-26.9c-0.2,0-0.3-0.1-0.3-0.2v-2.1
				c0-0.1,0.1-0.2,0.3-0.2h11.7v-5c0-0.1,0.1-0.2,0.3-0.2h3.2c0.2,0,0.3,0.1,0.3,0.2v5H479C479.2,218.3,479.3,218.4,479.3,218.5z"/>
			<path d="M483.9,239.1v2.1c0,0.1-0.1,0.2-0.3,0.2h-35.9c-0.2,0-0.3-0.1-0.3-0.2v-2.1c0-0.1,0.1-0.2,0.3-0.2h35.9
				C483.8,239,483.9,239,483.9,239.1z M479.5,228.8v2.1c0,0.1-0.1,0.2-0.3,0.2h-27.1c-0.2,0-0.2-0.1-0.2-0.2v-2.1
				c0-0.1,0.1-0.2,0.2-0.2h27.1C479.4,228.6,479.5,228.7,479.5,228.8z M479.5,234v2.1c0,0.1-0.1,0.2-0.3,0.2h-27.1
				c-0.2,0-0.2-0.1-0.2-0.2V234c0-0.1,0.1-0.2,0.2-0.2h27.1C479.4,233.8,479.5,233.9,479.5,234z"/>
		</g>
		<path d="M510.5,218.5v2.1c0,0.1-0.1,0.2-0.3,0.2h-20v7.8H510c0.2,0,0.3,0.1,0.3,0.2v2.1c0,0.1-0.1,0.2-0.3,0.2h-19.7v7.8h20
			c0.2,0,0.3,0.1,0.3,0.2v2.1c0,0.1-0.1,0.2-0.3,0.2h-23.4c-0.2,0-0.3-0.1-0.3-0.2v-22.7c0-0.1,0.1-0.2,0.3-0.2h23.4
			C510.4,218.3,510.5,218.4,510.5,218.5z"/>
		<path d="M510.5,193.3V204c0,0.1-0.1,0.2-0.3,0.2h-19.3c-0.1,0-0.1,0-0.1-0.1c-0.1,0.1-0.4,0.1-0.6,0.1v7.1h20.1
			c0.2,0,0.3,0.1,0.3,0.2v2.1c0,0.1-0.1,0.2-0.3,0.2h-23.4c-0.2,0-0.3-0.1-0.3-0.2v-11.7c0-0.1,0.1-0.2,0.3-0.2h20.1v-6.1h-20.1
			c-0.2,0-0.3-0.1-0.3-0.2v-2.1c0-0.1,0.1-0.2,0.3-0.2h23.4C510.4,193.1,510.5,193.1,510.5,193.3z"/>
		<path d="M496.1,182.5l7.5,6.4l-2,1.7h0c-5.3-3.7-8-5.7-8.2-5.8v0C494.7,183.7,495.6,182.9,496.1,182.5z"/>
	</g>
	<g>
		<path d="M562.7,198v2c0,0.1-0.1,0.2-0.3,0.2h-35.9c-0.2,0-0.3-0.1-0.3-0.2v-2c0-0.1,0.1-0.2,0.3-0.2h35.9
			C562.7,197.9,562.7,197.9,562.7,198z M558.2,193.2v2c0,0.1-0.1,0.2-0.3,0.2H531c-0.2,0-0.3-0.1-0.3-0.2v-2c0-0.1,0.1-0.2,0.3-0.2
			h11.7v-4.7c0-0.1,0.1-0.2,0.3-0.2h3.2c0.2,0,0.3,0.1,0.3,0.2v4.7h11.5C558.1,193,558.2,193,558.2,193.2z"/>
		<path d="M557.6,208.7v0.1c0,2.7-3.2,4.6-9.5,5.8c-0.9,0.1-2.2,0.2-3.7,0.3c-5.2,0-9.2-1.2-12.1-3.6c-0.8-0.8-1.1-1.6-1.1-2.4v-0.3
			c0-2.6,3.2-4.5,9.5-5.7c1.3-0.1,2.5-0.2,3.4-0.2h0.5c6.1,0,10.3,1.6,12.7,4.7C557.5,208,557.6,208.5,557.6,208.7z M544.8,205.2
			H544c-4.4,0-7.4,1-9,2.9l-0.1,0.5v0.4c0,1.7,2.6,2.9,7.9,3.5c0.7,0.1,1.3,0.1,1.8,0.1c4.5,0,7.5-1,9.2-2.9
			c0.2-0.2,0.3-0.5,0.3-0.8v-0.1c0-1.6-2.3-2.8-7-3.5C546.3,205.2,545.5,205.2,544.8,205.2z"/>
		<path d="M562.7,224.7v2c0,0.1-0.1,0.2-0.3,0.2h-35.8c-0.2,0-0.3-0.1-0.3-0.2v-2c0-0.1,0.1-0.2,0.3-0.2h16v-4.8h-11.8
			c-0.2,0-0.3-0.1-0.3-0.2v-2c0-0.1,0.1-0.2,0.3-0.2h27c0.2,0,0.3,0.1,0.3,0.2v2c0,0.1-0.1,0.2-0.3,0.2h-11.6v4.8h16.1
			C562.6,224.6,562.7,224.6,562.7,224.7z"/>
		<path d="M562.8,239.3v2c0,0.1-0.1,0.2-0.3,0.2h-35.9c-0.2,0-0.3-0.1-0.3-0.2v-2c0-0.1,0.1-0.2,0.3-0.2h35.9
			C562.7,239.1,562.8,239.1,562.8,239.3z M558.3,229.5v2c0,0.1-0.1,0.2-0.3,0.2H531c-0.2,0-0.2-0.1-0.2-0.2v-2
			c0-0.1,0.1-0.2,0.2-0.2h27.1C558.3,229.3,558.3,229.4,558.3,229.5z M558.3,234.4v2c0,0.1-0.1,0.2-0.3,0.2H531
			c-0.2,0-0.2-0.1-0.2-0.2v-2c0-0.1,0.1-0.2,0.2-0.2h27.1C558.3,234.2,558.3,234.3,558.3,234.4z"/>
		<path d="M591.1,239.1v2.1c0,0.1-0.1,0.2-0.3,0.2H564c-0.2,0-0.3-0.1-0.3-0.2v-2.1c0-0.1,0.1-0.2,0.3-0.2h11.7v-9.7h-9.9
			c-0.2,0-0.2-0.1-0.2-0.2v-38.5c0-0.1,0.1-0.2,0.2-0.2h3.1c0.2,0,0.3,0.1,0.3,0.2v36.2h6.6v-38.4c0-0.1,0.1-0.2,0.3-0.2h3.2
			c0.2,0,0.3,0.1,0.3,0.2v38.4h6.3v-36.2c0-0.1,0.1-0.2,0.3-0.2h3.2c0.2,0,0.3,0.1,0.3,0.2V229c0,0.1-0.1,0.2-0.3,0.2h-9.8v9.7h11.4
			C591,238.9,591.1,239,591.1,239.1z"/>
	</g>
	<g>
		<path d="M722.4,197.2v1.8c0,0.1-0.1,0.2-0.3,0.2h-35.9c-0.2,0-0.3-0.1-0.3-0.2v-1.8c0-0.1,0.1-0.2,0.3-0.2h35.9
			C722.3,197.1,722.4,197.1,722.4,197.2z M717.8,192.7v1.8c0,0.1-0.1,0.2-0.3,0.2h-26.9c-0.2,0-0.3-0.1-0.3-0.2v-1.8
			c0-0.1,0.1-0.2,0.3-0.2h11.7v-4.3c0-0.1,0.1-0.2,0.3-0.2h3.2c0.2,0,0.3,0.1,0.3,0.2v4.3h11.5C717.7,192.6,717.8,192.6,717.8,192.7
			z"/>
		<path d="M716.1,201.8v1.8c0,0.1-0.1,0.2-0.2,0.2h-20v2.3h19.8c0.2,0,0.3,0.1,0.3,0.2v1.9c0,0.1-0.1,0.2-0.3,0.2h-19.8v2.3h20
			c0.2,0,0.2,0.1,0.2,0.2v1.8c0,0.1-0.1,0.2-0.2,0.2h-23.5c-0.2,0-0.2-0.1-0.2-0.2v-10.9c0-0.1,0.1-0.2,0.2-0.2h23.5
			C716,201.6,716.1,201.6,716.1,201.8z"/>
		<path d="M695.8,214.2c0,2.8-1.6,5.1-4.9,6.8c-0.1,0-0.9-0.6-2.5-1.9c2.5-1.6,3.7-3.4,3.7-5.3h3.4
			C695.7,213.9,695.8,214,695.8,214.2z M706,214.1v7.1c0,0.1-0.1,0.2-0.3,0.2h-3.2c-0.2,0-0.3-0.1-0.3-0.2v-7.1
			c0-0.1,0.1-0.2,0.3-0.2h3.2C705.9,213.9,706,214,706,214.1z M719.9,219.1c0,0.1-0.8,0.7-2.5,1.9c-3.2-1.9-4.7-3.8-4.7-5.6v-1.3
			c0-0.1,0.1-0.2,0.3-0.2h3.2c0.2,0,0.3,0.6,0.5,1.9C717,216.7,718.1,217.8,719.9,219.1z"/>
		<path d="M722.3,225.9v1.8c0,0.1-0.1,0.2-0.3,0.2h-35.8c-0.2,0-0.3-0.1-0.3-0.2v-1.8c0-0.1,0.1-0.2,0.3-0.2h16v-2.2h-11.8
			c-0.2,0-0.3-0.1-0.3-0.2v-1.9c0-0.1,0.1-0.2,0.3-0.2h27c0.2,0,0.3,0.1,0.3,0.2v1.9c0,0.1-0.1,0.2-0.3,0.2h-11.6v2.2h16.1
			C722.2,225.8,722.3,225.8,722.3,225.9z"/>
		<path d="M722.4,239.4v1.8c0,0.1-0.1,0.2-0.3,0.2h-35.9c-0.2,0-0.3-0.1-0.3-0.2v-1.8c0-0.1,0.1-0.2,0.3-0.2h35.9
			C722.4,239.2,722.4,239.3,722.4,239.4z M718,230.4v1.8c0,0.1-0.1,0.2-0.3,0.2h-27.1c-0.2,0-0.2-0.1-0.2-0.2v-1.8
			c0-0.1,0.1-0.2,0.2-0.2h27.1C717.9,230.2,718,230.3,718,230.4z M718,234.9v1.8c0,0.1-0.1,0.2-0.3,0.2h-27.1
			c-0.2,0-0.2-0.1-0.2-0.2v-1.8c0-0.1,0.1-0.2,0.2-0.2h27.1C717.9,234.7,718,234.8,718,234.9z"/>
		<path d="M750.7,239.2v2.1c0,0.1-0.1,0.2-0.3,0.2h-26.8c-0.2,0-0.3-0.1-0.3-0.2v-2.1c0-0.1,0.1-0.2,0.3-0.2h11.7v-9.7h-9.9
			c-0.2,0-0.2-0.1-0.2-0.2v-38.6c0-0.1,0.1-0.2,0.2-0.2h3.1c0.2,0,0.3,0.1,0.3,0.2v36.3h6.6v-38.5c0-0.1,0.1-0.2,0.3-0.2h3.2
			c0.2,0,0.3,0.1,0.3,0.2v38.5h6.3v-36.3c0-0.1,0.1-0.2,0.3-0.2h3.2c0.2,0,0.3,0.1,0.3,0.2V229c0,0.1-0.1,0.2-0.3,0.2H739v9.7h11.4
			C750.6,239,750.7,239.1,750.7,239.2z"/>
	</g>
	<path d="M439.9,211h0.2c1.7,0,2.8,0.9,3.2,2.6l0.1,0.8c0,1.5-0.7,2.6-2.1,3.2c-0.4,0.1-0.7,0.2-1.1,0.2h-0.5c-1.1,0-2-0.6-2.6-1.7
		c-0.3-0.5-0.4-1.1-0.4-1.7c0-1.6,0.7-2.7,2.1-3.2C439.1,211,439.5,211,439.9,211z"/>
	<path d="M518.7,211h0.2c1.7,0,2.8,0.9,3.2,2.6l0.1,0.8c0,1.5-0.7,2.6-2.1,3.2c-0.4,0.1-0.7,0.2-1.1,0.2h-0.5c-1.1,0-2-0.6-2.6-1.7
		c-0.3-0.5-0.4-1.1-0.4-1.7c0-1.6,0.7-2.7,2.1-3.2C518,211,518.4,211,518.7,211z"/>
	<path d="M597.7,211h0.2c1.7,0,2.8,0.9,3.2,2.6l0.1,0.8c0,1.5-0.7,2.6-2.1,3.2c-0.4,0.1-0.7,0.2-1.1,0.2h-0.5c-1.1,0-2-0.6-2.6-1.7
		c-0.3-0.5-0.4-1.1-0.4-1.7c0-1.6,0.7-2.7,2.1-3.2C597,211,597.3,211,597.7,211z"/>
	<path d="M678.4,211h0.2c1.7,0,2.8,0.9,3.2,2.6l0.1,0.8c0,1.5-0.7,2.6-2.1,3.2c-0.4,0.1-0.7,0.2-1.1,0.2h-0.5c-1.1,0-2-0.6-2.6-1.7
		c-0.3-0.5-0.4-1.1-0.4-1.7c0-1.6,0.7-2.7,2.1-3.2C677.7,211,678,211,678.4,211z"/>
	<path d="M759,211h0.2c1.7,0,2.8,0.9,3.2,2.6l0.1,0.8c0,1.5-0.7,2.6-2.1,3.2c-0.4,0.1-0.7,0.2-1.1,0.2h-0.5c-1.1,0-2-0.6-2.6-1.7
		c-0.3-0.5-0.4-1.1-0.4-1.7c0-1.6,0.7-2.7,2.1-3.2C758.3,211,758.6,211,759,211z"/>
</g>
<g>
	<g>
		<g>
			<path d="M351.7,300.4v2.1c0,0.1-0.1,0.2-0.3,0.2h-16.2v5c0,0.1-0.1,0.2-0.3,0.2h-3.2c-0.2,0-0.2-0.1-0.2-0.2v-5h-16
				c-0.2,0-0.3-0.1-0.3-0.2v-2.1c0-0.1,0.1-0.2,0.3-0.2h35.9C351.6,300.2,351.7,300.2,351.7,300.4z M347.1,295.2v2.2
				c0,0.1-0.1,0.2-0.3,0.2H320c-0.2,0-0.3-0.1-0.3-0.2v-2.2c0-0.1,0.1-0.2,0.3-0.2h26.9C347,295,347.1,295.1,347.1,295.2z"/>
			<path d="M345.4,308.1v2.1c0,0.1-0.1,0.2-0.2,0.2h-20v2.6h19.8c0.2,0,0.3,0.1,0.3,0.2v2.1c0,0.1-0.1,0.2-0.3,0.2h-19.8v2.6h20
				c0.2,0,0.2,0.1,0.2,0.2v2.1c0,0.1-0.1,0.2-0.2,0.2h-23.5c-0.2,0-0.2-0.1-0.2-0.2v-12.5c0-0.1,0.1-0.2,0.2-0.2h23.5
				C345.3,307.9,345.4,308,345.4,308.1z"/>
			<path d="M351.7,330.6v2.1c0,0.1-0.1,0.2-0.3,0.2h-35.9c-0.2,0-0.3-0.1-0.3-0.2v-2.1c0-0.1,0.1-0.2,0.3-0.2h35.9
				C351.6,330.5,351.7,330.5,351.7,330.6z M347.1,325.5v2.1c0,0.1-0.1,0.2-0.3,0.2H320c-0.2,0-0.3-0.1-0.3-0.2v-2.1
				c0-0.1,0.1-0.2,0.3-0.2h11.7v-5c0-0.1,0.1-0.2,0.3-0.2h3.2c0.2,0,0.3,0.1,0.3,0.2v5h11.5C347,325.3,347.1,325.3,347.1,325.5z"/>
			<path d="M351.7,346.1v2.1c0,0.1-0.1,0.2-0.3,0.2h-35.9c-0.2,0-0.3-0.1-0.3-0.2v-2.1c0-0.1,0.1-0.2,0.3-0.2h35.9
				C351.6,345.9,351.7,346,351.7,346.1z M347.3,335.7v2.1c0,0.1-0.1,0.2-0.3,0.2H320c-0.2,0-0.2-0.1-0.2-0.2v-2.1
				c0-0.1,0.1-0.2,0.2-0.2H347C347.2,335.5,347.3,335.6,347.3,335.7z M347.3,340.9v2.1c0,0.1-0.1,0.2-0.3,0.2H320
				c-0.2,0-0.2-0.1-0.2-0.2v-2.1c0-0.1,0.1-0.2,0.2-0.2H347C347.2,340.7,347.3,340.8,347.3,340.9z"/>
		</g>
		<path d="M378.3,325.4v2.1c0,0.1-0.1,0.2-0.3,0.2h-20v7.8h19.7c0.2,0,0.3,0.1,0.3,0.2v2.1c0,0.1-0.1,0.2-0.3,0.2h-19.7v7.8h20
			c0.2,0,0.3,0.1,0.3,0.2v2.1c0,0.1-0.1,0.2-0.3,0.2h-23.4c-0.2,0-0.3-0.1-0.3-0.2v-22.7c0-0.1,0.1-0.2,0.3-0.2h23.4
			C378.2,325.2,378.3,325.3,378.3,325.4z"/>
		<path d="M378.3,300.2V311c0,0.1-0.1,0.2-0.3,0.2h-19.3c-0.1,0-0.1,0-0.1-0.1c-0.1,0.1-0.4,0.1-0.6,0.1v7.1H378
			c0.2,0,0.3,0.1,0.3,0.2v2.1c0,0.1-0.1,0.2-0.3,0.2h-23.4c-0.2,0-0.3-0.1-0.3-0.2v-11.7c0-0.1,0.1-0.2,0.3-0.2h20.1v-6.1h-20.1
			c-0.2,0-0.3-0.1-0.3-0.2v-2.1c0-0.1,0.1-0.2,0.3-0.2H378C378.2,300,378.3,300.1,378.3,300.2z"/>
		<path d="M364,289.4l7.5,6.4l-2,1.7h0c-5.3-3.7-8-5.7-8.2-5.8v0C362.6,290.6,363.5,289.9,364,289.4z"/>
	</g>
	<g>
		<path d="M806.2,294.4v2.1c0,0.1-0.1,0.2-0.3,0.2h-20v23h19.7c0.2,0,0.3,0.1,0.3,0.2v2.1c0,0.1-0.1,0.2-0.3,0.2H786v23h20
			c0.2,0,0.3,0.1,0.3,0.2v2.1c0,0.1-0.1,0.2-0.3,0.2h-23.4c-0.2,0-0.3-0.1-0.3-0.2v-53.1c0-0.1,0.1-0.2,0.3-0.2h23.4
			C806.1,294.2,806.2,294.3,806.2,294.4z"/>
		<path d="M779.6,304.7v2.1c0,0.1-0.1,0.2-0.3,0.2h-35.9c-0.2,0-0.3-0.1-0.3-0.2v-2.1c0-0.1,0.1-0.2,0.3-0.2h35.9
			C779.5,304.5,779.6,304.6,779.6,304.7z M775.2,294.4v2.1c0,0.1-0.1,0.2-0.3,0.2h-27.1c-0.2,0-0.2-0.1-0.2-0.2v-2.1
			c0-0.1,0.1-0.2,0.2-0.2h27.1C775.1,294.2,775.2,294.3,775.2,294.4z M775.2,299.6v2.1c0,0.1-0.1,0.2-0.3,0.2h-27.1
			c-0.2,0-0.2-0.1-0.2-0.2v-2.1c0-0.1,0.1-0.2,0.2-0.2h27.1C775.1,299.4,775.2,299.4,775.2,299.6z"/>
		<path d="M773.2,309.6v10c0,0.1-0.1,0.2-0.2,0.2h-23.5c-0.2,0-0.2-0.1-0.2-0.2v-10c0-0.1,0.1-0.2,0.2-0.2H773
			C773.2,309.4,773.2,309.5,773.2,309.6z M769.5,311.9H753v5.4h16.6V311.9z"/>
		<path d="M774.4,328.9v0.1c0,2.9-3.2,4.9-9.5,6.1c-0.9,0.1-2.2,0.2-3.7,0.3c-5.2,0-9.2-1.3-12.1-3.8c-0.8-0.8-1.1-1.7-1.1-2.5v-0.3
			c0-2.7,3.2-4.7,9.5-6c1.3-0.1,2.5-0.2,3.4-0.2h0.5c6.1,0,10.3,1.7,12.7,5C774.3,328.2,774.4,328.6,774.4,328.9z M761.6,325.1h-0.8
			c-4.4,0-7.4,1-9,3l-0.1,0.5v0.4c0,1.8,2.6,3.1,7.9,3.7c0.7,0.1,1.3,0.1,1.8,0.1c4.5,0,7.5-1,9.2-3c0.2-0.3,0.3-0.5,0.3-0.8v-0.1
			c0-1.7-2.3-3-7-3.7C763.1,325.2,762.4,325.1,761.6,325.1z"/>
		<path d="M779.6,338.4v2.1c0,0.1-0.1,0.2-0.3,0.2h-9.7v0.9c0,1.7,1.2,3.5,3.6,5.4c0,0.1-0.9,0.8-2.6,2.1c-3.2-2-4.8-4.6-4.8-7.8
			v-0.6h-9.3v2c0,2.1-1.6,4.2-4.7,6.4c-0.1,0-0.9-0.7-2.5-2.1c2.4-1.8,3.6-3.7,3.6-5.6v-0.8h-9.5c-0.2,0-0.3-0.1-0.3-0.2v-2.1
			c0-0.1,0.1-0.2,0.3-0.2h36C779.5,338.2,779.6,338.2,779.6,338.4z"/>
	</g>
	<g>
		<path d="M571.3,304.1v1.8c0,0.1-0.1,0.2-0.3,0.2h-35.9c-0.2,0-0.3-0.1-0.3-0.2v-1.8c0-0.1,0.1-0.2,0.3-0.2h35.9
			C571.3,304,571.3,304,571.3,304.1z M566.8,299.6v1.8c0,0.1-0.1,0.2-0.3,0.2h-26.9c-0.2,0-0.3-0.1-0.3-0.2v-1.8
			c0-0.1,0.1-0.2,0.3-0.2h11.7v-4.3c0-0.1,0.1-0.2,0.3-0.2h3.2c0.2,0,0.3,0.1,0.3,0.2v4.3h11.5C566.7,299.5,566.8,299.5,566.8,299.6
			z"/>
		<path d="M565,308.7v1.8c0,0.1-0.1,0.2-0.2,0.2h-20v2.3h19.8c0.2,0,0.3,0.1,0.3,0.2v1.9c0,0.1-0.1,0.2-0.3,0.2h-19.8v2.3h20
			c0.2,0,0.2,0.1,0.2,0.2v1.8c0,0.1-0.1,0.2-0.2,0.2h-23.5c-0.2,0-0.2-0.1-0.2-0.2v-10.9c0-0.1,0.1-0.2,0.2-0.2h23.5
			C565,308.5,565,308.5,565,308.7z"/>
		<path d="M544.8,321.1c0,2.8-1.6,5.1-4.9,6.8c-0.1,0-0.9-0.6-2.5-1.9c2.5-1.6,3.7-3.4,3.7-5.3h3.4
			C544.7,320.8,544.8,320.9,544.8,321.1z M555,321v7.1c0,0.1-0.1,0.2-0.3,0.2h-3.2c-0.2,0-0.3-0.1-0.3-0.2V321
			c0-0.1,0.1-0.2,0.3-0.2h3.2C554.9,320.8,555,320.9,555,321z M568.9,326.1c0,0.1-0.8,0.7-2.5,1.9c-3.2-1.9-4.7-3.8-4.7-5.6V321
			c0-0.1,0.1-0.2,0.3-0.2h3.2c0.2,0,0.3,0.6,0.5,1.9C566,323.6,567.1,324.7,568.9,326.1z"/>
		<path d="M571.3,332.8v1.8c0,0.1-0.1,0.2-0.3,0.2h-35.8c-0.2,0-0.3-0.1-0.3-0.2v-1.8c0-0.1,0.1-0.2,0.3-0.2h16v-2.2h-11.8
			c-0.2,0-0.3-0.1-0.3-0.2v-1.9c0-0.1,0.1-0.2,0.3-0.2h27c0.2,0,0.3,0.1,0.3,0.2v1.9c0,0.1-0.1,0.2-0.3,0.2h-11.6v2.2H571
			C571.2,332.7,571.3,332.7,571.3,332.8z"/>
		<path d="M571.4,346.3v1.8c0,0.1-0.1,0.2-0.3,0.2h-35.9c-0.2,0-0.3-0.1-0.3-0.2v-1.8c0-0.1,0.1-0.2,0.3-0.2h35.9
			C571.3,346.1,571.4,346.2,571.4,346.3z M566.9,337.3v1.8c0,0.1-0.1,0.2-0.3,0.2h-27.1c-0.2,0-0.2-0.1-0.2-0.2v-1.8
			c0-0.1,0.1-0.2,0.2-0.2h27.1C566.9,337.1,566.9,337.2,566.9,337.3z M566.9,341.8v1.8c0,0.1-0.1,0.2-0.3,0.2h-27.1
			c-0.2,0-0.2-0.1-0.2-0.2v-1.8c0-0.1,0.1-0.2,0.2-0.2h27.1C566.9,341.6,566.9,341.7,566.9,341.8z"/>
		<path d="M599.7,346.1v2.1c0,0.1-0.1,0.2-0.3,0.2h-26.8c-0.2,0-0.3-0.1-0.3-0.2v-2.1c0-0.1,0.1-0.2,0.3-0.2h11.7v-9.7h-9.9
			c-0.2,0-0.2-0.1-0.2-0.2v-38.6c0-0.1,0.1-0.2,0.2-0.2h3.1c0.2,0,0.3,0.1,0.3,0.2v36.3h6.6v-38.5c0-0.1,0.1-0.2,0.3-0.2h3.2
			c0.2,0,0.3,0.1,0.3,0.2v38.5h6.3v-36.3c0-0.1,0.1-0.2,0.3-0.2h3.2c0.2,0,0.3,0.1,0.3,0.2v38.6c0,0.1-0.1,0.2-0.3,0.2H588v9.7h11.4
			C599.6,345.9,599.7,346,599.7,346.1z"/>
	</g>
	<g>
		<path d="M423.7,304.9v2c0,0.1-0.1,0.2-0.3,0.2h-35.9c-0.2,0-0.3-0.1-0.3-0.2v-2c0-0.1,0.1-0.2,0.3-0.2h35.9
			C423.6,304.8,423.7,304.8,423.7,304.9z M419.2,300.1v2c0,0.1-0.1,0.2-0.3,0.2H392c-0.2,0-0.3-0.1-0.3-0.2v-2
			c0-0.1,0.1-0.2,0.3-0.2h11.7v-4.7c0-0.1,0.1-0.2,0.3-0.2h3.2c0.2,0,0.3,0.1,0.3,0.2v4.7h11.5C419.1,299.9,419.2,300,419.2,300.1z"
			/>
		<path d="M418.6,315.6v0.1c0,2.7-3.2,4.6-9.5,5.8c-0.9,0.1-2.2,0.2-3.7,0.3c-5.2,0-9.2-1.2-12.1-3.6c-0.8-0.8-1.1-1.6-1.1-2.4v-0.3
			c0-2.6,3.2-4.5,9.5-5.7c1.3-0.1,2.5-0.2,3.4-0.2h0.5c6.1,0,10.3,1.6,12.7,4.7C418.5,314.9,418.6,315.4,418.6,315.6z M405.7,312.1
			H405c-4.4,0-7.4,1-9,2.9l-0.1,0.5v0.4c0,1.7,2.6,2.9,7.9,3.5c0.7,0.1,1.3,0.1,1.8,0.1c4.5,0,7.5-1,9.2-2.9
			c0.2-0.2,0.3-0.5,0.3-0.8v-0.1c0-1.6-2.3-2.8-7-3.5C407.3,312.1,406.5,312.1,405.7,312.1z"/>
		<path d="M423.7,331.6v2c0,0.1-0.1,0.2-0.3,0.2h-35.8c-0.2,0-0.3-0.1-0.3-0.2v-2c0-0.1,0.1-0.2,0.3-0.2h16v-4.8h-11.8
			c-0.2,0-0.3-0.1-0.3-0.2v-2c0-0.1,0.1-0.2,0.3-0.2h27c0.2,0,0.3,0.1,0.3,0.2v2c0,0.1-0.1,0.2-0.3,0.2h-11.6v4.8h16.1
			C423.6,331.5,423.7,331.5,423.7,331.6z"/>
		<path d="M423.8,346.2v2c0,0.1-0.1,0.2-0.3,0.2h-35.9c-0.2,0-0.3-0.1-0.3-0.2v-2c0-0.1,0.1-0.2,0.3-0.2h35.9
			C423.7,346,423.8,346,423.8,346.2z M419.3,336.4v2c0,0.1-0.1,0.2-0.3,0.2H392c-0.2,0-0.2-0.1-0.2-0.2v-2c0-0.1,0.1-0.2,0.2-0.2
			h27.1C419.2,336.2,419.3,336.3,419.3,336.4z M419.3,341.3v2c0,0.1-0.1,0.2-0.3,0.2H392c-0.2,0-0.2-0.1-0.2-0.2v-2
			c0-0.1,0.1-0.2,0.2-0.2h27.1C419.2,341.1,419.3,341.2,419.3,341.3z"/>
		<path d="M452.1,346v2.1c0,0.1-0.1,0.2-0.3,0.2H425c-0.2,0-0.3-0.1-0.3-0.2V346c0-0.1,0.1-0.2,0.3-0.2h11.7v-9.7h-9.9
			c-0.2,0-0.2-0.1-0.2-0.2v-38.5c0-0.1,0.1-0.2,0.2-0.2h3.1c0.2,0,0.3,0.1,0.3,0.2v36.2h6.6v-38.4c0-0.1,0.1-0.2,0.3-0.2h3.2
			c0.2,0,0.3,0.1,0.3,0.2v38.4h6.3v-36.2c0-0.1,0.1-0.2,0.3-0.2h3.2c0.2,0,0.3,0.1,0.3,0.2v38.5c0,0.1-0.1,0.2-0.3,0.2h-9.8v9.7
			h11.4C452,345.8,452.1,345.9,452.1,346z"/>
	</g>
	<g>
		<path d="M514.7,325.7v23.3c0,0.3-0.2,0.5-0.4,0.5h-41.7c-0.3,0-0.4-0.2-0.4-0.5v-23.3c0-0.3,0.1-0.5,0.4-0.5h2.8
			c0.3,0,0.5,0.2,0.5,0.5v21.1h15.8v-31.6c0-0.3,0.2-0.5,0.5-0.5h2.8c0.3,0.1,0.5,0.2,0.5,0.5v31.6H511v-21.1c0-0.3,0.2-0.5,0.5-0.5
			h2.8C514.6,325.2,514.7,325.4,514.7,325.7z"/>
		<path d="M525.5,313.5h-17.4v-0.1c0-2.4,1.4-12.2,8.3-17.3v-0.1c0-0.1-1.4-0.8-4.3-2c-7.1,5.3-8.6,15.5-8.6,18.4v1.2h-20.1v-1.2
			c0-2.9-1.4-13.1-8.6-18.4c-2.8,1.3-4.3,1.9-4.3,2v0.1c6.9,5.2,8.3,15,8.3,17.3v0.1h-17.4c-0.3,0-0.5,0.1-0.5,0.2v2.2
			c0,0.1,0.2,0.2,0.5,0.2h63.9c0.2,0,0.4-0.1,0.5-0.2v-2.2C525.9,313.6,525.8,313.5,525.5,313.5z"/>
	</g>
	<g>
		<path d="M641.8,295.2v8.8c0,0.1-0.1,0.2-0.3,0.2h-3.2c-0.2,0-0.3-0.1-0.3-0.2v-8.8c0-0.2,0.1-0.2,0.3-0.2h3.2
			C641.8,295,641.8,295.1,641.8,295.2z"/>
		<path d="M671.6,313.9v2.2c-0.1,0.1-0.2,0.2-0.4,0.2h-62c-0.3,0-0.4-0.1-0.4-0.2v-2.2c0-0.1,0.1-0.2,0.4-0.2h62
			C671.5,313.7,671.6,313.8,671.6,313.9z"/>
		<path d="M663.7,303.1v2.2c-0.1,0.1-0.2,0.2-0.4,0.2h-46.4c-0.3,0-0.4-0.1-0.4-0.2v-2.2c0-0.1,0.1-0.2,0.4-0.2h46.4
			C663.6,302.9,663.7,303,663.7,303.1z"/>
		<path d="M662.9,334.9v0.2c0,6-5.4,10.2-16.2,12.6c-1.6,0.3-3.7,0.5-6.3,0.6c-8.8,0-15.7-2.6-20.5-7.8c-1.3-1.7-1.9-3.5-1.9-5.2
			v-0.7c0-5.6,5.4-9.8,16.2-12.4c2.3-0.3,4.2-0.4,5.9-0.4h0.8c10.4,0,17.6,3.4,21.7,10.2C662.7,333.3,662.9,334.3,662.9,334.9z
			 M641.1,324.4h-1.5c-8.7,0-14.6,2.8-17.8,8.4l-0.3,1.5v1.2c0,5,5.2,8.4,15.5,10.1c1.4,0.2,2.5,0.2,3.5,0.2c8.8,0,14.8-2.8,18-8.4
			c0.3-0.7,0.5-1.5,0.5-2.3v-0.3c0-4.7-4.6-8.1-13.8-10.1C644.1,324.5,642.7,324.4,641.1,324.4z"/>
	</g>
	<g>
		<path d="M854.9,293.2v8.8c0,0.1-0.1,0.2-0.3,0.2h-3.2c-0.2,0-0.3-0.1-0.3-0.2v-8.8c0-0.2,0.1-0.2,0.3-0.2h3.2
			C854.9,293,854.9,293.1,854.9,293.2z"/>
		<path d="M884.7,311.9v2.2c-0.1,0.1-0.2,0.2-0.4,0.2h-62c-0.3,0-0.4-0.1-0.4-0.2v-2.2c0-0.1,0.1-0.2,0.4-0.2h62
			C884.6,311.7,884.7,311.8,884.7,311.9z"/>
		<path d="M876.8,301.1v2.2c-0.1,0.1-0.2,0.2-0.4,0.2h-46.4c-0.3,0-0.4-0.1-0.4-0.2v-2.2c0-0.1,0.1-0.2,0.4-0.2h46.4
			C876.7,300.9,876.8,301,876.8,301.1z"/>
		<path d="M876,334.9v0.2c0,6-5.4,10.2-16.2,12.6c-1.6,0.3-3.7,0.5-6.3,0.6c-8.8,0-15.7-2.6-20.5-7.8c-1.3-1.7-1.9-3.5-1.9-5.2v-0.7
			c0-5.6,5.4-9.8,16.2-12.4c2.3-0.3,4.2-0.4,5.9-0.4h0.8c10.4,0,17.6,3.4,21.7,10.2C875.8,333.3,876,334.3,876,334.9z M854.2,324.4
			h-1.5c-8.7,0-14.6,2.8-17.8,8.4l-0.3,1.5v1.2c0,5,5.2,8.4,15.5,10.1c1.4,0.2,2.5,0.2,3.5,0.2c8.8,0,14.8-2.8,18-8.4
			c0.3-0.7,0.5-1.5,0.5-2.3v-0.3c0-4.7-4.6-8.1-13.8-10.1C857.2,324.5,855.8,324.4,854.2,324.4z"/>
	</g>
	<g>
		<path d="M680.9,301H727c0.2,0,0.3,0.1,0.3,0.2v13.1c0,0.2-0.1,0.2-0.3,0.2h-42.8v8.1H727c0.2,0,0.3,0.1,0.3,0.2v2.2
			c0,0.2-0.1,0.2-0.3,0.2h-46.1c-0.1,0-0.2-0.1-0.3-0.2V312c0-0.1,0.1-0.2,0.3-0.2h42.9v-7.9h-42.9c-0.1,0-0.2-0.1-0.3-0.2v-2.4
			C680.6,301.1,680.7,301,680.9,301z"/>
		<path d="M727.3,330.6v17.3c0,0.3-0.2,0.5-0.4,0.5H681c-0.3,0-0.4-0.2-0.4-0.5v-17.3c0-0.3,0.1-0.5,0.4-0.5h2.8
			c0.3,0,0.5,0.2,0.5,0.5v15.2h17.8v-15.2c0-0.3,0.2-0.5,0.5-0.5h2.8c0.3,0.1,0.5,0.2,0.5,0.5v15.2h17.7v-15.2
			c0-0.3,0.2-0.5,0.5-0.5h2.8C727.2,330.1,727.3,330.3,727.3,330.6z"/>
		<g>
			<path d="M701.5,289.4l7.5,6.4l-2,1.7h0c-5.3-3.7-8-5.7-8.2-5.8v0C700.1,290.6,701,289.9,701.5,289.4z"/>
		</g>
	</g>
	<path d="M735.6,317.6h0.2c1.7,0,2.8,0.9,3.2,2.6l0.1,0.8c0,1.5-0.7,2.6-2.1,3.2c-0.4,0.1-0.7,0.2-1.1,0.2h-0.5
		c-1.1,0-2-0.6-2.6-1.7c-0.3-0.5-0.4-1.1-0.4-1.7c0-1.6,0.7-2.7,2.1-3.2C734.8,317.6,735.2,317.6,735.6,317.6z"/>
	<path d="M814.2,317.6h0.2c1.7,0,2.8,0.9,3.2,2.6l0.1,0.8c0,1.5-0.7,2.6-2.1,3.2c-0.4,0.1-0.7,0.2-1.1,0.2H814c-1.1,0-2-0.6-2.6-1.7
		c-0.3-0.5-0.4-1.1-0.4-1.7c0-1.6,0.7-2.7,2.1-3.2C813.5,317.6,813.8,317.6,814.2,317.6z"/>
</g>
<g>
	<g>
		<path d="M863.4,409.3H846v-0.1c0-2.4,4.1-4.5,8.3-6.4v-0.1c0-0.1-1.4-0.8-4.3-2c-5.7,2.1-9.2,5.8-9.2,8.6H822
			c0-2.9-3.5-6.5-9.2-8.6c-2.8,1.3-4.3,1.9-4.3,2v0.1c4.2,1.9,8.3,4,8.3,6.4v0.1h-17.4c-0.3,0-0.5,0.1-0.5,0.2v2.2
			c0,0.1,0.2,0.2,0.5,0.2h63.9c0.2,0,0.4-0.1,0.5-0.2v-2.2C863.8,409.4,863.7,409.3,863.4,409.3z"/>
		<path d="M852.5,414.6v7.4c-0.1,0.1-0.2,0.2-0.5,0.2h-38.3v2.7h38.3c0.3,0,0.5,0.1,0.5,0.2v2.2c-0.1,0.1-0.2,0.2-0.5,0.2h-41.6
			c-0.3,0-0.5-0.1-0.5-0.2V420c0-0.1,0.2-0.2,0.5-0.2h38.3V417h-38.3c-0.3,0-0.5-0.1-0.5-0.2v-2.1c0-0.1,0.2-0.2,0.5-0.2h41.6
			C852.4,414.4,852.5,414.5,852.5,414.6z"/>
		<path d="M863.8,435.6v2.1c-0.1,0.1-0.2,0.2-0.5,0.2h-29.8v6.4c0,0.1-0.2,0.2-0.5,0.2h-3.1c-0.3,0-0.4-0.1-0.4-0.2V438h-30
			c-0.3,0-0.5-0.1-0.5-0.2v-2.1c0-0.1,0.2-0.2,0.5-0.2h63.7C863.7,435.4,863.8,435.5,863.8,435.6z M855.7,430.4v2.2
			c-0.1,0.1-0.2,0.2-0.5,0.2h-47.7c-0.3,0-0.5-0.1-0.5-0.2v-2.2c0-0.1,0.2-0.2,0.5-0.2h47.7C855.6,430.2,855.7,430.3,855.7,430.4z"
			/>
		<path d="M852.6,443.5v2.1c0,0.1-0.2,0.2-0.4,0.2h-38.4v2.7h38c0.3,0,0.5,0.1,0.5,0.2v2.2c-0.1,0.1-0.2,0.2-0.5,0.2h-38v2.7h38.4
			c0.3,0,0.4,0.1,0.4,0.2v2.1c0,0.1-0.2,0.2-0.4,0.2h-41.7c-0.3,0-0.4-0.1-0.4-0.2v-12.7c0-0.1,0.1-0.2,0.4-0.2h41.7
			C852.5,443.3,852.6,443.4,852.6,443.5z"/>
	</g>
	<g>
		<path d="M628.8,442.5v13.6c0,0.1-0.1,0.2-0.3,0.2h-46.1c-0.2,0-0.3-0.1-0.3-0.2v-13.6c0-0.1,0.1-0.2,0.3-0.2h3.2
			c0.2,0,0.3,0.1,0.3,0.2v11.4h17.6v-11.4c0-0.1,0.1-0.2,0.2-0.2h3.4c0.2,0,0.3,0.1,0.3,0.2v11.4h17.8v-11.4c0-0.1,0.1-0.2,0.3-0.2
			h3.2C628.7,442.3,628.8,442.4,628.8,442.5z"/>
		<path d="M637.1,409.4h-17.4v-0.1c0-2.4,4.1-4.5,8.3-6.4v-0.1c0-0.1-1.4-0.8-4.3-2c-5.7,2.1-9.2,5.8-9.2,8.6h-18.8
			c0-2.9-3.5-6.5-9.2-8.6c-2.8,1.3-4.3,1.9-4.3,2v0.1c4.2,1.9,8.3,4,8.3,6.4v0.1h-17.4c-0.3,0-0.5,0.1-0.5,0.2v2.2
			c0,0.1,0.2,0.2,0.5,0.2h63.9c0.2,0,0.4-0.1,0.5-0.2v-2.2C637.6,409.5,637.4,409.4,637.1,409.4z"/>
		<path d="M626.3,414.7v7.4c-0.1,0.1-0.2,0.2-0.5,0.2h-38.3v2.7h38.3c0.3,0,0.5,0.1,0.5,0.2v2.2c-0.1,0.1-0.2,0.2-0.5,0.2h-41.6
			c-0.3,0-0.5-0.1-0.5-0.2v-7.4c0-0.1,0.2-0.2,0.5-0.2h38.3v-2.8h-38.3c-0.3,0-0.5-0.1-0.5-0.2v-2.1c0-0.1,0.2-0.2,0.5-0.2h41.6
			C626.1,414.5,626.3,414.6,626.3,414.7z"/>
		<path d="M637.6,435.7v2.1c-0.1,0.1-0.2,0.2-0.5,0.2h-29.8v6.4c0,0.1-0.2,0.2-0.5,0.2h-3.1c-0.3,0-0.4-0.1-0.4-0.2v-6.4h-30
			c-0.3,0-0.5-0.1-0.5-0.2v-2.1c0-0.1,0.2-0.2,0.5-0.2h63.7C637.4,435.5,637.6,435.6,637.6,435.7z M629.5,430.4v2.2
			c-0.1,0.1-0.2,0.2-0.5,0.2h-47.7c-0.3,0-0.5-0.1-0.5-0.2v-2.2c0-0.1,0.2-0.2,0.5-0.2H629C629.3,430.3,629.5,430.3,629.5,430.4z"/>
	</g>
	<g>
		<path d="M399.3,401.4v53c0,0.1-0.1,0.2-0.3,0.2h-23.4c-0.2,0-0.3-0.1-0.3-0.2v-53c0-0.1,0.1-0.2,0.3-0.2h3.2
			c0.2,0,0.3,0.1,0.3,0.2v50.8h6.5v-50.8c0-0.1,0.1-0.2,0.2-0.2h3.2c0.2,0,0.3,0.1,0.3,0.2v50.8h6.4v-50.8c0-0.1,0.1-0.2,0.3-0.2
			h3.2C399.2,401.3,399.3,401.3,399.3,401.4z"/>
		<path d="M372.7,411.7v2.1c0,0.1-0.1,0.2-0.3,0.2h-35.9c-0.2,0-0.3-0.1-0.3-0.2v-2.1c0-0.1,0.1-0.2,0.3-0.2h35.9
			C372.7,411.5,372.7,411.5,372.7,411.7z M368.3,401.4v2.1c0,0.1-0.1,0.2-0.3,0.2H341c-0.2,0-0.2-0.1-0.2-0.2v-2.1
			c0-0.1,0.1-0.2,0.2-0.2H368C368.2,401.2,368.3,401.2,368.3,401.4z M368.3,406.5v2.1c0,0.1-0.1,0.2-0.3,0.2H341
			c-0.2,0-0.2-0.1-0.2-0.2v-2.1c0-0.1,0.1-0.2,0.2-0.2H368C368.2,406.3,368.3,406.4,368.3,406.5z"/>
		<path d="M366.4,416.6v10c0,0.1-0.1,0.2-0.2,0.2h-23.5c-0.2,0-0.2-0.1-0.2-0.2v-10c0-0.1,0.1-0.2,0.2-0.2h23.5
			C366.3,416.4,366.4,416.4,366.4,416.6z M362.7,418.9h-16.6v5.4h16.6V418.9z"/>
		<path d="M367.5,435.8v0.1c0,2.9-3.2,4.9-9.5,6.1c-0.9,0.1-2.2,0.2-3.7,0.3c-5.2,0-9.2-1.3-12.1-3.8c-0.8-0.8-1.1-1.7-1.1-2.5v-0.3
			c0-2.7,3.2-4.7,9.5-6c1.3-0.1,2.5-0.2,3.4-0.2h0.5c6.1,0,10.3,1.6,12.7,4.9C367.5,435.1,367.5,435.5,367.5,435.8z M354.7,432H354
			c-4.4,0-7.4,1-9,3l-0.1,0.5v0.4c0,1.8,2.6,3.1,7.9,3.7c0.7,0.1,1.3,0.1,1.8,0.1c4.5,0,7.5-1,9.2-3c0.2-0.3,0.3-0.5,0.3-0.8v-0.1
			c0-1.7-2.3-3-7-3.7C356.2,432.1,355.5,432,354.7,432z"/>
		<path d="M372.7,445.2v2.1c0,0.1-0.1,0.2-0.3,0.2h-9.7v0.9c0,1.7,1.2,3.5,3.6,5.4c0,0.1-0.9,0.8-2.6,2.1c-3.2-2-4.8-4.6-4.8-7.8
			v-0.6h-9.3v2c0,2.1-1.6,4.2-4.7,6.4c-0.1,0-0.9-0.7-2.5-2.1c2.4-1.8,3.6-3.7,3.6-5.6v-0.7h-9.5c-0.2,0-0.3-0.1-0.3-0.2v-2.1
			c0-0.1,0.1-0.2,0.3-0.2h36C372.6,445.1,372.7,445.1,372.7,445.2z"/>
	</g>
	<g>
		<path d="M478.2,402.6v2.1c0,0.1-0.1,0.2-0.3,0.2h-20v22.7h19.7c0.2,0,0.3,0.1,0.3,0.2v2.1c0,0.1-0.1,0.2-0.3,0.2H458v22.7h20
			c0.2,0,0.3,0.1,0.3,0.2v2.1c0,0.1-0.1,0.2-0.3,0.2h-23.4c-0.2,0-0.3-0.1-0.3-0.2v-52.5c0-0.1,0.1-0.2,0.3-0.2H478
			C478.1,402.4,478.2,402.5,478.2,402.6z"/>
		<path d="M451.6,412.3v2.1c0,0.1-0.1,0.2-0.3,0.2h-35.9c-0.2,0-0.3-0.1-0.3-0.2v-2.1c0-0.1,0.1-0.2,0.3-0.2h35.9
			C451.6,412.1,451.6,412.2,451.6,412.3z M447.2,402.1v2.1c0,0.1-0.1,0.2-0.3,0.2h-27.1c-0.2,0-0.2-0.1-0.2-0.2v-2.1
			c0-0.1,0.1-0.2,0.2-0.2h27.1C447.1,401.9,447.2,402,447.2,402.1z M447.2,407.2v2.1c0,0.1-0.1,0.2-0.3,0.2h-27.1
			c-0.2,0-0.2-0.1-0.2-0.2v-2.1c0-0.1,0.1-0.2,0.2-0.2h27.1C447.1,407,447.2,407.1,447.2,407.2z"/>
		<path d="M445.3,417.1v9.9c0,0.1-0.1,0.2-0.2,0.2h-23.5c-0.2,0-0.2-0.1-0.2-0.2v-9.9c0-0.1,0.1-0.2,0.2-0.2H445
			C445.2,416.9,445.3,417,445.3,417.1z M441.6,419.4H425v5.3h16.6V419.4z"/>
		<path d="M446.4,436.2v0.1c0,2.9-3.2,4.9-9.5,6c-0.9,0.1-2.2,0.2-3.7,0.3c-5.2,0-9.2-1.2-12.1-3.7c-0.8-0.8-1.1-1.7-1.1-2.5v-0.3
			c0-2.7,3.2-4.7,9.5-5.9c1.3-0.1,2.5-0.2,3.4-0.2h0.5c6.1,0,10.3,1.6,12.7,4.9C446.4,435.5,446.4,435.9,446.4,436.2z M433.6,432.5
			h-0.8c-4.4,0-7.4,1-9,3l-0.1,0.5v0.4c0,1.8,2.6,3,7.9,3.6c0.7,0.1,1.3,0.1,1.8,0.1c4.5,0,7.5-1,9.2-3c0.2-0.3,0.3-0.5,0.3-0.8
			v-0.1c0-1.7-2.3-2.9-7-3.6C435.1,432.5,434.4,432.5,433.6,432.5z"/>
		<path d="M451.5,453v2.1c0,0.1-0.1,0.2-0.3,0.2h-35.8c-0.2,0-0.3-0.1-0.3-0.2V453c0-0.1,0.1-0.2,0.3-0.2h16v-5h-11.8
			c-0.2,0-0.3-0.1-0.3-0.2v-2.1c0-0.1,0.1-0.2,0.3-0.2h27c0.2,0,0.3,0.1,0.3,0.2v2.1c0,0.1-0.1,0.2-0.3,0.2h-11.6v5h16.1
			C451.4,452.8,451.5,452.8,451.5,453z"/>
	</g>
	<g>
		<path d="M530.4,409.8v2.1c0,0.1-0.1,0.2-0.3,0.2h-35.8c-0.2,0-0.3-0.1-0.3-0.2v-2.1c0-0.1,0.1-0.2,0.3-0.2h16v-4.9h-11.8
			c-0.2,0-0.3-0.1-0.3-0.2v-2.1c0-0.1,0.1-0.2,0.3-0.2h27c0.2,0,0.3,0.1,0.3,0.2v2.1c0,0.1-0.1,0.2-0.3,0.2H514v4.9h16.1
			C530.3,409.6,530.4,409.7,530.4,409.8z"/>
		<path d="M524.2,414.7v9.8c0,0.1-0.1,0.2-0.2,0.2h-23.5c-0.2,0-0.2-0.1-0.2-0.2v-9.8c0-0.1,0.1-0.2,0.2-0.2h23.5
			C524.1,414.5,524.2,414.6,524.2,414.7z M520.5,417h-16.6v5.3h16.6V417z"/>
		<path d="M525.3,433.5v0.1c0,2.8-3.2,4.8-9.5,6c-0.9,0.1-2.2,0.2-3.7,0.3c-5.2,0-9.2-1.2-12.1-3.7c-0.8-0.8-1.1-1.6-1.1-2.5v-0.3
			c0-2.7,3.2-4.6,9.5-5.9c1.3-0.1,2.5-0.2,3.4-0.2h0.5c6.1,0,10.3,1.6,12.7,4.8C525.3,432.8,525.3,433.3,525.3,433.5z M512.5,429.8
			h-0.8c-4.4,0-7.4,1-9,3l-0.1,0.5v0.4c0,1.8,2.6,3,7.9,3.6c0.7,0.1,1.3,0.1,1.8,0.1c4.5,0,7.5-1,9.2-3c0.2-0.3,0.3-0.5,0.3-0.8
			v-0.1c0-1.7-2.3-2.9-7-3.6C514,429.9,513.3,429.8,512.5,429.8z"/>
		<path d="M530.5,452.7v2.1c0,0.1-0.1,0.2-0.3,0.2h-35.9c-0.2,0-0.3-0.1-0.3-0.2v-2.1c0-0.1,0.1-0.2,0.3-0.2h35.9
			C530.5,452.5,530.5,452.6,530.5,452.7z M526.1,442.6v2.1c0,0.1-0.1,0.2-0.3,0.2h-27.1c-0.2,0-0.2-0.1-0.2-0.2v-2.1
			c0-0.1,0.1-0.2,0.2-0.2h27.1C526,442.5,526.1,442.5,526.1,442.6z M526.1,447.7v2.1c0,0.1-0.1,0.2-0.3,0.2h-27.1
			c-0.2,0-0.2-0.1-0.2-0.2v-2.1c0-0.1,0.1-0.2,0.2-0.2h27.1C526,447.5,526.1,447.5,526.1,447.7z"/>
		<path d="M557.1,402.4v2.1c0,0.1-0.1,0.2-0.3,0.2h-20.1v14.1h19.8c0.2,0,0.3,0.1,0.3,0.2v2.1c0,0.1-0.1,0.2-0.3,0.2h-19.8v14h20.1
			c0.2,0,0.3,0.1,0.3,0.2v19.3c0,0.1-0.1,0.2-0.3,0.2h-25.3c-0.2,0-0.3-0.1-0.3-0.2v-2.1c0-0.1,0.1-0.2,0.3-0.2H554v-14.7h-20.7
			c-0.2,0-0.3-0.1-0.3-0.2v-35.2c0-0.1,0.1-0.2,0.3-0.2h23.5C557,402.2,557.1,402.2,557.1,402.4z"/>
	</g>
	<g>
		<path d="M754.8,411.5v2.2c0,0.1-0.1,0.2-0.3,0.2h-25.6c-2.1,0-3.6-0.9-4.3-2.8v-6.9c0-1.3,1-2.3,2.9-3c0.3-0.1,0.8-0.2,1.4-0.2
			h21.2c0.2,0,0.2,0.1,0.2,0.2v7.3c0,0.1-0.1,0.2-0.2,0.2h-17.4c-0.2,0-0.3-0.1-0.3-0.2v-2.1c0-0.1,0.1-0.2,0.3-0.2h14v-2.6h-18.1
			c-0.1,0-0.3,0.1-0.5,0.4v6.6c0,0.4,0.3,0.6,0.8,0.6h25.6C754.7,411.3,754.8,411.4,754.8,411.5z"/>
		<path d="M750.1,416.7v7.3c0,0.1-0.1,0.2-0.3,0.2h-20.1v2.6h20.1c0.2,0,0.3,0.1,0.3,0.2v2.2c0,0.1-0.1,0.2-0.3,0.2h-23.4
			c-0.2,0-0.3-0.1-0.3-0.2V422c0-0.1,0.1-0.2,0.3-0.2h20.1v-2.7h-20.1c-0.2,0-0.3-0.1-0.3-0.2v-2.1c0-0.1,0.1-0.2,0.3-0.2h23.4
			C750,416.6,750.1,416.6,750.1,416.7z"/>
		<path d="M750.2,432.2v10c0,0.1-0.1,0.2-0.2,0.2h-23.5c-0.2,0-0.2-0.1-0.2-0.2v-10c0-0.1,0.1-0.2,0.2-0.2h3.2
			c0.2,0,0.3,0.1,0.3,0.2v7.7h6.5v-9.9c0-0.1,0.1-0.2,0.3-0.2h3.2c0.2,0,0.3,0.1,0.3,0.2v9.9h6.4v-7.7c0-0.1,0.1-0.2,0.3-0.2h3.2
			C750.1,432,750.2,432,750.2,432.2z"/>
		<path d="M756.5,445.3v2.1c0,0.1-0.1,0.2-0.3,0.2h-9.7v0.9c0,1.7,1.2,3.5,3.6,5.4c0,0.1-0.9,0.8-2.6,2.1c-3.2-2-4.8-4.6-4.8-7.8
			v-0.6h-9.3v2c0,2.1-1.6,4.2-4.7,6.4c-0.1,0-0.9-0.7-2.5-2.1c2.4-1.8,3.6-3.7,3.6-5.6v-0.7h-9.5c-0.2,0-0.3-0.1-0.3-0.2v-2.1
			c0-0.1,0.1-0.2,0.3-0.2h36C756.4,445.1,756.5,445.2,756.5,445.3z"/>
		<path d="M783.1,401.4v2.1c0,0.1-0.1,0.2-0.3,0.2h-20.1v14.2h19.8c0.2,0,0.3,0.1,0.3,0.2v2.1c0,0.1-0.1,0.2-0.3,0.2h-19.8v14.2
			h20.1c0.2,0,0.3,0.1,0.3,0.2v19.5c0,0.1-0.1,0.2-0.3,0.2h-25.3c-0.2,0-0.3-0.1-0.3-0.2v-2.1c0-0.1,0.1-0.2,0.3-0.2H780v-14.8
			h-20.7c-0.2,0-0.3-0.1-0.3-0.2v-35.6c0-0.1,0.1-0.2,0.3-0.2h23.5C783,401.2,783.1,401.3,783.1,401.4z"/>
	</g>
	<g>
		<polygon points="699,403 700.9,405.9 655.3,429.8 653.4,426.9 		"/>
		<polygon points="658.5,403 656.7,405.9 702.2,429.8 704.1,426.9 		"/>
		<path d="M701.6,440.7v0.2c0,6-5.4,10.2-16.2,12.6c-1.6,0.3-3.7,0.5-6.3,0.6c-8.8,0-15.7-2.6-20.5-7.8c-1.3-1.7-1.9-3.5-1.9-5.2
			v-0.7c0-5.6,5.4-9.8,16.2-12.4c2.3-0.3,4.2-0.4,5.9-0.4h0.8c10.4,0,17.6,3.4,21.7,10.2C701.4,439.2,701.6,440.1,701.6,440.7z
			 M679.8,430.2h-1.5c-8.7,0-14.6,2.8-17.8,8.4l-0.3,1.5v1.2c0,5,5.2,8.4,15.5,10.1c1.4,0.2,2.5,0.2,3.5,0.2c8.8,0,14.8-2.8,18-8.4
			c0.3-0.7,0.5-1.5,0.5-2.3v-0.3c0-4.7-4.6-8.1-13.8-10.1C682.8,430.3,681.4,430.2,679.8,430.2z"/>
	</g>
	<path d="M407.6,424.9h0.2c1.7,0,2.8,0.9,3.2,2.6l0.1,0.8c0,1.5-0.7,2.6-2.1,3.2c-0.4,0.1-0.7,0.2-1.1,0.2h-0.5
		c-1.1,0-2-0.6-2.6-1.7c-0.3-0.5-0.4-1.1-0.4-1.7c0-1.6,0.7-2.7,2.1-3.2C406.9,425,407.2,424.9,407.6,424.9z"/>
	<path d="M486.5,424.9h0.2c1.7,0,2.8,0.9,3.2,2.6l0.1,0.8c0,1.5-0.7,2.6-2.1,3.2c-0.4,0.1-0.7,0.2-1.1,0.2h-0.5
		c-1.1,0-2-0.6-2.6-1.7c-0.3-0.5-0.4-1.1-0.4-1.7c0-1.6,0.7-2.7,2.1-3.2C485.8,425,486.1,424.9,486.5,424.9z"/>
	<path d="M565.1,424.9h0.2c1.7,0,2.8,0.9,3.2,2.6l0.1,0.8c0,1.5-0.7,2.6-2.1,3.2c-0.4,0.1-0.7,0.2-1.1,0.2H565c-1.1,0-2-0.6-2.6-1.7
		c-0.3-0.5-0.4-1.1-0.4-1.7c0-1.6,0.7-2.7,2.1-3.2C564.4,425,564.8,424.9,565.1,424.9z"/>
	<path d="M645.9,424.9h0.2c1.7,0,2.8,0.9,3.2,2.6l0.1,0.8c0,1.5-0.7,2.6-2.1,3.2c-0.4,0.1-0.7,0.2-1.1,0.2h-0.5
		c-1.1,0-2-0.6-2.6-1.7c-0.3-0.5-0.4-1.1-0.4-1.7c0-1.6,0.7-2.7,2.1-3.2C645.1,425,645.5,424.9,645.9,424.9z"/>
	<path d="M712.4,424.9h0.2c1.7,0,2.8,0.9,3.2,2.6l0.1,0.8c0,1.5-0.7,2.6-2.1,3.2c-0.4,0.1-0.7,0.2-1.1,0.2h-0.5
		c-1.1,0-2-0.6-2.6-1.7c-0.3-0.5-0.4-1.1-0.4-1.7c0-1.6,0.7-2.7,2.1-3.2C711.6,425,712,424.9,712.4,424.9z"/>
	<path d="M791.4,424.9h0.2c1.7,0,2.8,0.9,3.2,2.6l0.1,0.8c0,1.5-0.7,2.6-2.1,3.2c-0.4,0.1-0.7,0.2-1.1,0.2h-0.5
		c-1.1,0-2-0.6-2.6-1.7c-0.3-0.5-0.4-1.1-0.4-1.7c0-1.6,0.7-2.7,2.1-3.2C790.7,425,791,424.9,791.4,424.9z"/>
</g>
<g>
	<path d="M562.2,509v2.3c0,0.2-0.1,0.2-0.3,0.2h-28.8v47.8h17.9v-34.9c0-0.2,0.1-0.2,0.3-0.2h3.2c0.2,0,0.3,0.1,0.3,0.2v37.4
		c0,0.2-0.1,0.2-0.3,0.2h-46.2c-0.2,0-0.3-0.1-0.3-0.2v-37.4c0-0.2,0.1-0.2,0.3-0.2h3.1c0.2,0,0.3,0.1,0.3,0.2v34.9h17.8v-47.8
		h-28.9c-0.2,0-0.3-0.1-0.3-0.2V509c0-0.2,0.1-0.2,0.3-0.2H562C562.1,508.8,562.2,508.9,562.2,509z"/>
	<path d="M691.8,509v2.3c-0.1,0.2-0.2,0.2-0.5,0.2h-42.5v22.5h42c0.3,0,0.5,0.1,0.5,0.2v2.3c-0.1,0.1-0.2,0.2-0.5,0.2h-42v22.5h42.5
		c0.3,0,0.5,0.1,0.5,0.2v2.3c-0.1,0.2-0.2,0.2-0.5,0.2h-45.7c-0.3,0-0.5-0.1-0.5-0.2V509c0-0.2,0.2-0.2,0.5-0.2h45.7
		C691.6,508.8,691.8,508.9,691.8,509z"/>
	<g>
		<path d="M626.1,541.4v0.1c0,3-5.4,5.2-16.1,6.4c-1.6,0.1-3.7,0.2-6.3,0.3c-8.8,0-15.6-1.3-20.4-4c-1.3-0.9-1.9-1.8-1.9-2.7v-0.3
			c0-2.9,5.4-5,16.1-6.3c2.2-0.2,4.2-0.2,5.8-0.2h0.8c10.3,0,17.5,1.7,21.6,5.2C626,540.7,626.1,541.1,626.1,541.4z M604.5,537.4
			H603c-8.6,0-14.5,1.1-17.7,3.2l-0.3,0.6v0.5c0,1.9,5.1,3.2,15.5,3.9c1.4,0.1,2.5,0.1,3.4,0.1c8.7,0,14.7-1.1,17.9-3.2
			c0.3-0.3,0.5-0.6,0.5-0.9v-0.1c0-1.8-4.6-3.1-13.7-3.9C607.5,537.5,606.1,537.4,604.5,537.4z"/>
		<path d="M635.6,514.9h-17.4v-0.1c0-2.4,4.1-4.5,8.3-6.4v-0.1c0-0.1-1.4-0.8-4.3-2c-5.7,2.1-9.2,5.8-9.2,8.6h-18.8
			c0-2.9-3.5-6.5-9.2-8.6c-2.8,1.3-4.3,1.9-4.3,2v0.1c4.2,1.9,8.3,4,8.3,6.4v0.1h-17.4c-0.3,0-0.5,0.1-0.5,0.2v2.2
			c0,0.1,0.2,0.2,0.5,0.2h63.9c0.2,0,0.4-0.1,0.5-0.2v-2.2C636.1,515,635.9,514.9,635.6,514.9z"/>
		<path d="M624.8,520.2v7.4c-0.1,0.1-0.2,0.2-0.5,0.2H586v2.7h38.3c0.3,0,0.5,0.1,0.5,0.2v2.2c-0.1,0.1-0.2,0.2-0.5,0.2h-41.6
			c-0.3,0-0.5-0.1-0.5-0.2v-7.4c0-0.1,0.2-0.2,0.5-0.2h38.3v-2.8h-38.3c-0.3,0-0.5-0.1-0.5-0.2v-2.1c0-0.1,0.2-0.2,0.5-0.2h41.6
			C624.6,520,624.8,520.1,624.8,520.2z"/>
		<path d="M636.1,555.7v2.1c-0.1,0.1-0.2,0.2-0.5,0.2h-29.8v6.4c0,0.1-0.2,0.2-0.5,0.2h-3.1c-0.3,0-0.4-0.1-0.4-0.2V558h-30
			c-0.3,0-0.5-0.1-0.5-0.2v-2.1c0-0.1,0.2-0.2,0.5-0.2h63.7C635.9,555.5,636.1,555.6,636.1,555.7z M628,550.4v2.2
			c-0.1,0.1-0.2,0.2-0.5,0.2h-47.7c-0.3,0-0.5-0.1-0.5-0.2v-2.2c0-0.1,0.2-0.2,0.5-0.2h47.7C627.8,550.2,628,550.3,628,550.4z"/>
	</g>
	<g>
		<path d="M410.4,552.2v9.7c0,0.1-0.1,0.2-0.3,0.2h-23.4c-0.2,0-0.3-0.1-0.3-0.2v-9.7c0-0.1,0.1-0.2,0.3-0.2h3.2
			c0.2,0,0.3,0.1,0.3,0.2v7.5h6.5v-7.5c0-0.1,0.1-0.2,0.2-0.2h3.2c0.2,0,0.3,0.1,0.3,0.2v7.5h6.4v-7.5c0-0.1,0.1-0.2,0.3-0.2h3.2
			C410.3,552.1,410.4,552.1,410.4,552.2z"/>
		<path d="M383.4,516.5v2.1c0,0.1-0.1,0.2-0.3,0.2h-35.8c-0.2,0-0.3-0.1-0.3-0.2v-2.1c0-0.1,0.1-0.2,0.3-0.2h16v-5h-11.8
			c-0.2,0-0.3-0.1-0.3-0.2V509c0-0.1,0.1-0.2,0.3-0.2h27c0.2,0,0.3,0.1,0.3,0.2v2.1c0,0.1-0.1,0.2-0.3,0.2H367v5h16.1
			C383.3,516.3,383.4,516.3,383.4,516.5z"/>
		<path d="M377.2,521.5v9.9c0,0.1-0.1,0.2-0.2,0.2h-23.5c-0.2,0-0.2-0.1-0.2-0.2v-9.9c0-0.1,0.1-0.2,0.2-0.2H377
			C377.1,521.3,377.2,521.3,377.2,521.5z M373.5,523.7h-16.6v5.3h16.6V523.7z"/>
		<path d="M378.4,540.5v0.1c0,2.9-3.2,4.9-9.5,6c-0.9,0.1-2.2,0.2-3.7,0.3c-5.2,0-9.2-1.2-12.1-3.7c-0.8-0.8-1.1-1.7-1.1-2.5v-0.3
			c0-2.7,3.2-4.7,9.5-5.9c1.3-0.1,2.5-0.2,3.4-0.2h0.5c6.1,0,10.3,1.6,12.7,4.9C378.3,539.8,378.4,540.2,378.4,540.5z M365.5,536.8
			h-0.8c-4.4,0-7.4,1-9,3l-0.1,0.5v0.4c0,1.8,2.6,3,7.9,3.6c0.7,0.1,1.3,0.1,1.8,0.1c4.5,0,7.5-1,9.2-3c0.2-0.3,0.3-0.5,0.3-0.8
			v-0.1c0-1.7-2.3-2.9-7-3.6C367,536.8,366.3,536.8,365.5,536.8z"/>
		<path d="M383.6,559.9v2.1c0,0.1-0.1,0.2-0.3,0.2h-35.9c-0.2,0-0.3-0.1-0.3-0.2v-2.1c0-0.1,0.1-0.2,0.3-0.2h35.9
			C383.5,559.7,383.6,559.8,383.6,559.9z M379.1,549.7v2.1c0,0.1-0.1,0.2-0.3,0.2h-27.1c-0.2,0-0.2-0.1-0.2-0.2v-2.1
			c0-0.1,0.1-0.2,0.2-0.2h27.1C379,549.5,379.1,549.6,379.1,549.7z M379.1,554.8v2.1c0,0.1-0.1,0.2-0.3,0.2h-27.1
			c-0.2,0-0.2-0.1-0.2-0.2v-2.1c0-0.1,0.1-0.2,0.2-0.2h27.1C379,554.6,379.1,554.7,379.1,554.8z"/>
		<path d="M410.5,509v2.1c0,0.1-0.1,0.2-0.3,0.2h-20.1v2.6H410c0.2,0,0.3,0.1,0.3,0.2v2.1c0,0.1-0.1,0.2-0.3,0.2h-19.8v2.6h20.1
			c0.2,0,0.3,0.1,0.3,0.2v8.5c0,0.1-0.1,0.2-0.3,0.2H385c-0.2,0-0.3-0.1-0.3-0.2v-2.1c0-0.1,0.1-0.2,0.3-0.2h22.5v-3.9h-20.7
			c-0.2,0-0.3-0.1-0.3-0.2V509c0-0.1,0.1-0.2,0.3-0.2h23.5C410.4,508.8,410.5,508.9,410.5,509z"/>
		<path d="M410.4,534v8.8c0,0.1-0.1,0.2-0.3,0.2h-19.3c-0.1,0-0.1,0-0.1-0.1c-0.1,0.1-0.4,0.1-0.6,0.1v4.1h20.1
			c0.2,0,0.3,0.1,0.3,0.2v2.1c0,0.1-0.1,0.2-0.3,0.2h-23.4c-0.2,0-0.3-0.1-0.3-0.2v-8.6c0-0.1,0.1-0.2,0.3-0.2h20.1v-4.2h-20.1
			c-0.2,0-0.3-0.1-0.3-0.2V534c0-0.1,0.1-0.2,0.3-0.2h23.4C410.3,533.8,410.4,533.9,410.4,534z"/>
		<path d="M397.7,527.3l4.4,5.6l-2.3,1.3l0,0c-4.6-4.5-5-4.9-5.1-5.1l0,0C396.2,528.2,397.2,527.6,397.7,527.3z"/>
	</g>
	<g>
		<path d="M489.6,540v12c0,0.1-0.1,0.2-0.3,0.2H470c-0.1,0-0.1,0-0.1-0.1c-0.1,0.1-0.4,0.1-0.6,0.1v7.4h20.1c0.2,0,0.3,0.1,0.3,0.2
			v2.1c0,0.1-0.1,0.2-0.3,0.2H466c-0.2,0-0.3-0.1-0.3-0.2v-12c0-0.1,0.1-0.2,0.3-0.2h20.1v-7.4H466c-0.2,0-0.3-0.1-0.3-0.2V540
			c0-0.1,0.1-0.2,0.3-0.2h23.4C489.5,539.8,489.6,539.9,489.6,540z"/>
		<path d="M462.7,516.3v2c0,0.1-0.1,0.2-0.3,0.2h-35.8c-0.2,0-0.3-0.1-0.3-0.2v-2c0-0.1,0.1-0.2,0.3-0.2h16v-4.8h-11.8
			c-0.2,0-0.3-0.1-0.3-0.2v-2c0-0.1,0.1-0.2,0.3-0.2h27c0.2,0,0.3,0.1,0.3,0.2v2c0,0.1-0.1,0.2-0.3,0.2h-11.6v4.8h16.1
			C462.6,516.2,462.7,516.2,462.7,516.3z"/>
		<path d="M456.5,521.1v11.6c0,0.1-0.1,0.2-0.2,0.2h-23.5c-0.2,0-0.2-0.1-0.2-0.2v-11.6c0-0.1,0.1-0.2,0.2-0.2h23.5
			C456.4,520.9,456.5,521,456.5,521.1z M452.8,523.3h-16.6v7.2h16.6V523.3z"/>
		<path d="M457.6,541.4v0.1c0,2.7-3.2,4.6-9.5,5.8c-0.9,0.1-2.2,0.2-3.7,0.3c-5.2,0-9.2-1.2-12.1-3.6c-0.8-0.8-1.1-1.6-1.1-2.4v-0.3
			c0-2.6,3.2-4.5,9.5-5.7c1.3-0.1,2.5-0.2,3.4-0.2h0.5c6.1,0,10.3,1.6,12.7,4.7C457.6,540.7,457.6,541.1,457.6,541.4z M444.8,537.8
			h-0.8c-4.4,0-7.4,1-9,2.9l-0.1,0.5v0.4c0,1.7,2.6,2.9,7.9,3.5c0.7,0.1,1.3,0.1,1.8,0.1c4.5,0,7.5-1,9.2-2.9
			c0.2-0.2,0.3-0.5,0.3-0.8v-0.1c0-1.6-2.3-2.8-7-3.5C446.3,537.8,445.6,537.8,444.8,537.8z"/>
		<path d="M462.8,559.9v2c0,0.1-0.1,0.2-0.3,0.2h-35.9c-0.2,0-0.3-0.1-0.3-0.2v-2c0-0.1,0.1-0.2,0.3-0.2h35.9
			C462.8,559.7,462.8,559.8,462.8,559.9z M458.4,550.2v2c0,0.1-0.1,0.2-0.3,0.2h-27.1c-0.2,0-0.2-0.1-0.2-0.2v-2
			c0-0.1,0.1-0.2,0.2-0.2h27.1C458.3,550,458.4,550,458.4,550.2z M458.4,555v2c0,0.1-0.1,0.2-0.3,0.2h-27.1c-0.2,0-0.2-0.1-0.2-0.2
			v-2c0-0.1,0.1-0.2,0.2-0.2h27.1C458.3,554.8,458.4,554.9,458.4,555z"/>
		<path d="M491.3,530.5v2.1c0,0.1-0.1,0.2-0.3,0.2h-26.8c-0.2,0-0.3-0.1-0.3-0.2v-2.1c0-0.1,0.1-0.2,0.3-0.2h11.7v-8.6H466
			c-0.2,0-0.2-0.1-0.2-0.2v-12.3c0-0.1,0.1-0.2,0.2-0.2h3.1c0.2,0,0.3,0.1,0.3,0.2v10h6.6V507c0-0.1,0.1-0.2,0.3-0.2h3.2
			c0.2,0,0.3,0.1,0.3,0.2v12.2h6.3v-10c0-0.1,0.1-0.2,0.3-0.2h3.2c0.2,0,0.3,0.1,0.3,0.2v12.3c0,0.1-0.1,0.2-0.3,0.2h-9.8v8.6h11.4
			C491.3,530.4,491.3,530.4,491.3,530.5z"/>
		<path d="M477,532.5l4.6,6.6l-2.4,1.2l0,0c-4.2-4.9-5.3-6-5.4-6.2l0,0C475.3,533.3,476.4,532.7,477,532.5z"/>
	</g>
	<g>
		<path d="M742.4,518.4v2.2c0,0.1-0.1,0.2-0.3,0.2h-25.6c-2.1,0-3.6-1-4.3-2.9v-6.9c0-1.3,1-2.3,2.9-3c0.3-0.1,0.8-0.2,1.4-0.2h21.2
			c0.2,0,0.2,0.1,0.2,0.2v7.3c0,0.1-0.1,0.2-0.2,0.2h-17.4c-0.2,0-0.3-0.1-0.3-0.2v-2.1c0-0.1,0.1-0.2,0.3-0.2h14v-2.6h-18.1
			c-0.1,0-0.3,0.1-0.5,0.4v6.6c0,0.4,0.3,0.6,0.8,0.6h25.6C742.4,518.2,742.4,518.3,742.4,518.4z"/>
		<path d="M737.8,523.6v7.3c0,0.1-0.1,0.2-0.3,0.2h-20.1v2.6h20.1c0.2,0,0.3,0.1,0.3,0.2v2.2c0,0.1-0.1,0.2-0.3,0.2h-23.4
			c-0.2,0-0.3-0.1-0.3-0.2v-7.3c0-0.1,0.1-0.2,0.3-0.2h20.1v-2.7h-20.1c-0.2,0-0.3-0.1-0.3-0.2v-2.1c0-0.1,0.1-0.2,0.3-0.2h23.4
			C737.7,523.4,737.8,523.5,737.8,523.6z"/>
		<path d="M737.8,539.1v10c0,0.1-0.1,0.2-0.2,0.2h-23.5c-0.2,0-0.2-0.1-0.2-0.2v-10c0-0.1,0.1-0.2,0.2-0.2h3.2
			c0.2,0,0.3,0.1,0.3,0.2v7.7h6.5v-10.8c0-0.1,0.1-0.2,0.3-0.2h3.2c0.2,0,0.3,0.1,0.3,0.2v10.8h6.4v-7.7c0-0.1,0.1-0.2,0.3-0.2h3.2
			C737.8,538.9,737.8,538.9,737.8,539.1z"/>
		<path d="M744.2,552.2v2.1c0,0.1-0.1,0.2-0.3,0.2h-9.7v0.9c0,1.7,1.2,3.5,3.6,5.4c0,0.1-0.9,0.8-2.6,2.1c-3.2-2-4.8-4.6-4.8-7.8
			v-0.6h-9.3v2c0,2.1-1.6,4.2-4.7,6.4c-0.1,0-0.9-0.7-2.5-2.1c2.4-1.8,3.6-3.7,3.6-5.6v-0.8h-9.5c-0.2,0-0.3-0.1-0.3-0.2v-2.1
			c0-0.1,0.1-0.2,0.3-0.2h36C744.1,552,744.2,552.1,744.2,552.2z"/>
		<path d="M772.4,559.2v2.1c0,0.1-0.1,0.2-0.3,0.2h-26.8c-0.2,0-0.3-0.1-0.3-0.2v-2.1c0-0.1,0.1-0.2,0.3-0.2H757v-9.7h-9.9
			c-0.2,0-0.2-0.1-0.2-0.2v-38.6c0-0.1,0.1-0.2,0.2-0.2h3.1c0.2,0,0.3,0.1,0.3,0.2v36.3h6.6v-38.5c0-0.1,0.1-0.2,0.3-0.2h3.2
			c0.2,0,0.3,0.1,0.3,0.2v38.5h6.3v-36.3c0-0.1,0.1-0.2,0.3-0.2h3.2c0.2,0,0.3,0.1,0.3,0.2V549c0,0.1-0.1,0.2-0.3,0.2h-9.8v9.7h11.4
			C772.3,559,772.4,559,772.4,559.2z"/>
	</g>
	<g>
		<path d="M852.7,515.9v2.3c-0.1,0.2-0.2,0.2-0.5,0.2h-63.5c-0.3,0-0.5-0.1-0.5-0.2v-2.3c0-0.2,0.2-0.2,0.5-0.2h29.8v-5.6h-22.4
			c-0.3,0-0.5-0.1-0.5-0.2v-2.3c0-0.1,0.2-0.2,0.5-0.2h47.9c0.3,0,0.5,0.1,0.5,0.2v2.3c-0.1,0.1-0.2,0.2-0.5,0.2H822v5.6h30.2
			C852.5,515.7,852.7,515.7,852.7,515.9z"/>
		<path d="M841.6,521.5v11c0,0.2-0.2,0.2-0.4,0.2h-41.7c-0.3,0-0.4-0.1-0.4-0.2v-11c0-0.2,0.1-0.2,0.4-0.2h2.8
			c0.3,0,0.5,0.1,0.5,0.2v8.5h15.8v-12.7c0-0.2,0.2-0.2,0.5-0.2h2.6c0.3,0,0.5,0.1,0.5,0.2V530h15.7v-8.5c0-0.2,0.2-0.2,0.5-0.2h2.8
			C841.5,521.3,841.6,521.4,841.6,521.5z"/>
		<path d="M852.7,544.2v2.3c-0.1,0.2-0.2,0.2-0.5,0.2h-63.5c-0.3,0-0.5-0.1-0.5-0.2v-2.3c0-0.2,0.2-0.2,0.5-0.2h29.8v-5.6h-22.4
			c-0.3,0-0.5-0.1-0.5-0.2v-2.3c0-0.1,0.2-0.2,0.5-0.2h47.9c0.3,0,0.5,0.1,0.5,0.2v2.3c-0.1,0.1-0.2,0.2-0.5,0.2h-21.9v5.6h30
			C852.5,544,852.7,544.1,852.7,544.2z"/>
		<path d="M852.9,561.1v2.3c-0.1,0.2-0.2,0.2-0.5,0.2h-63.7c-0.3,0-0.5-0.1-0.5-0.2v-2.3c0-0.2,0.2-0.2,0.5-0.2h63.7
			C852.7,560.9,852.9,561,852.9,561.1z M845,549.8v2.3c-0.1,0.2-0.2,0.2-0.5,0.2h-48c-0.3,0-0.4-0.1-0.4-0.2v-2.3
			c0-0.2,0.1-0.2,0.4-0.2h48C844.8,549.6,845,549.6,845,549.8z M845,555.4v2.3c-0.1,0.2-0.2,0.2-0.5,0.2h-48c-0.3,0-0.4-0.1-0.4-0.2
			v-2.3c0-0.1,0.1-0.2,0.4-0.2h48C844.8,555.2,845,555.3,845,555.4z"/>
	</g>
	<path d="M418.8,531.8h0.2c1.7,0,2.8,0.9,3.2,2.6l0.1,0.8c0,1.5-0.7,2.6-2.1,3.2c-0.4,0.1-0.7,0.2-1.1,0.2h-0.5
		c-1.1,0-2-0.6-2.6-1.7c-0.3-0.5-0.4-1.1-0.4-1.7c0-1.6,0.7-2.7,2.1-3.2C418.1,531.9,418.4,531.8,418.8,531.8z"/>
	<path d="M700,531.8h0.2c1.7,0,2.8,0.9,3.2,2.6l0.1,0.8c0,1.5-0.7,2.6-2.1,3.2c-0.4,0.1-0.7,0.2-1.1,0.2h-0.5c-1.1,0-2-0.6-2.6-1.7
		c-0.3-0.5-0.4-1.1-0.4-1.7c0-1.6,0.7-2.7,2.1-3.2C699.3,531.9,699.7,531.8,700,531.8z"/>
	<path d="M780.7,531.8h0.2c1.7,0,2.8,0.9,3.2,2.6l0.1,0.8c0,1.5-0.7,2.6-2.1,3.2c-0.4,0.1-0.7,0.2-1.1,0.2h-0.5
		c-1.1,0-2-0.6-2.6-1.7c-0.3-0.5-0.4-1.1-0.4-1.7c0-1.6,0.7-2.7,2.1-3.2C779.9,531.9,780.3,531.8,780.7,531.8z"/>
</g>
<g>
	<g>
		<path d="M810.9,622.8v2.3c-0.1,0.2-0.2,0.2-0.5,0.2H747c-0.3,0-0.5-0.1-0.5-0.2v-2.3c0-0.2,0.2-0.2,0.5-0.2h29.8V617h-22.4
			c-0.3,0-0.5-0.1-0.5-0.2v-2.3c0-0.1,0.2-0.2,0.5-0.2h47.9c0.3,0,0.5,0.1,0.5,0.2v2.3c-0.1,0.1-0.2,0.2-0.5,0.2h-22.1v5.6h30.2
			C810.8,622.6,810.9,622.6,810.9,622.8z"/>
		<path d="M799.9,628.4v11c0,0.2-0.2,0.2-0.4,0.2h-41.7c-0.3,0-0.4-0.1-0.4-0.2v-11c0-0.2,0.1-0.2,0.4-0.2h2.8
			c0.3,0,0.5,0.1,0.5,0.2v8.5h15.8v-12.7c0-0.2,0.2-0.2,0.5-0.2h2.6c0.3,0,0.5,0.1,0.5,0.2v12.7h15.7v-8.5c0-0.2,0.2-0.2,0.5-0.2
			h2.8C799.7,628.2,799.9,628.3,799.9,628.4z"/>
		<path d="M810.9,651.1v2.3c-0.1,0.2-0.2,0.2-0.5,0.2H747c-0.3,0-0.5-0.1-0.5-0.2v-2.3c0-0.2,0.2-0.2,0.5-0.2h29.8v-5.6h-22.4
			c-0.3,0-0.5-0.1-0.5-0.2v-2.3c0-0.1,0.2-0.2,0.5-0.2h47.9c0.3,0,0.5,0.1,0.5,0.2v2.3c-0.1,0.1-0.2,0.2-0.5,0.2h-21.9v5.6h30
			C810.8,650.9,810.9,651,810.9,651.1z"/>
		<path d="M811.2,668v2.3c-0.1,0.2-0.2,0.2-0.5,0.2H747c-0.3,0-0.5-0.1-0.5-0.2V668c0-0.2,0.2-0.2,0.5-0.2h63.7
			C811,667.8,811.2,667.9,811.2,668z M803.3,656.7v2.3c-0.1,0.2-0.2,0.2-0.5,0.2h-48c-0.3,0-0.4-0.1-0.4-0.2v-2.3
			c0-0.2,0.1-0.2,0.4-0.2h48C803.1,656.5,803.3,656.5,803.3,656.7z M803.3,662.3v2.3c-0.1,0.2-0.2,0.2-0.5,0.2h-48
			c-0.3,0-0.4-0.1-0.4-0.2v-2.3c0-0.1,0.1-0.2,0.4-0.2h48C803.1,662.1,803.3,662.2,803.3,662.3z"/>
	</g>
	<g>
		<path d="M371.7,616.8v53c0,0.1-0.1,0.2-0.3,0.2H348c-0.2,0-0.3-0.1-0.3-0.2v-53c0-0.1,0.1-0.2,0.3-0.2h3.2c0.2,0,0.3,0.1,0.3,0.2
			v50.8h6.5v-50.8c0-0.1,0.1-0.2,0.2-0.2h3.2c0.2,0,0.3,0.1,0.3,0.2v50.8h6.4v-50.8c0-0.1,0.1-0.2,0.3-0.2h3.2
			C371.6,616.6,371.7,616.7,371.7,616.8z"/>
		<path d="M345.2,622.4v2.1c0,0.1-0.1,0.2-0.3,0.2h-36c-0.2,0-0.3-0.1-0.3-0.2v-2.1c0-0.1,0.1-0.2,0.3-0.2h9.8v-0.1
			c0-2.3-1.2-4.4-3.6-6.2v-0.1c0-0.1,0.8-0.7,2.4-2c3.2,2,4.8,4.5,4.8,7.3v1.2h9.3v-1.6c0-2.5,1.6-4.7,4.7-6.9c0.1,0,1,0.7,2.6,2.1
			c-2.4,1.8-3.6,3.8-3.6,6v0.3h9.5C345.1,622.2,345.2,622.3,345.2,622.4z"/>
		<path d="M338.8,627.4v7.3c0,0.1-0.1,0.2-0.3,0.2h-20.1v2.6h20.1c0.2,0,0.3,0.1,0.3,0.2v2.2c0,0.1-0.1,0.2-0.3,0.2h-23.4
			c-0.2,0-0.3-0.1-0.3-0.2v-7.3c0-0.1,0.1-0.2,0.3-0.2h20.1v-2.7h-20.1c-0.2,0-0.3-0.1-0.3-0.2v-2.1c0-0.1,0.1-0.2,0.3-0.2h23.4
			C338.7,627.2,338.8,627.3,338.8,627.4z"/>
		<path d="M340,649v0.1c0,2.9-3.2,4.9-9.5,6.1c-0.9,0.1-2.2,0.2-3.7,0.3c-5.2,0-9.2-1.3-12.1-3.8c-0.8-0.8-1.1-1.7-1.1-2.5v-0.3
			c0-2.7,3.2-4.7,9.5-6c1.3-0.1,2.5-0.2,3.4-0.2h0.5c6.1,0,10.3,1.6,12.7,4.9C340,648.2,340,648.7,340,649z M327.2,645.2h-0.8
			c-4.4,0-7.4,1-9,3l-0.1,0.5v0.4c0,1.8,2.6,3.1,7.9,3.7c0.7,0.1,1.3,0.1,1.8,0.1c4.5,0,7.5-1,9.2-3c0.2-0.3,0.3-0.5,0.3-0.8V649
			c0-1.7-2.3-3-7-3.7C328.7,645.2,328,645.2,327.2,645.2z"/>
		<path d="M345.2,663.5v2.1c0,0.1-0.1,0.2-0.3,0.2h-16.2v4.9c0,0.1-0.1,0.2-0.3,0.2h-3.2c-0.2,0-0.2-0.1-0.2-0.2v-4.9h-16
			c-0.2,0-0.3-0.1-0.3-0.2v-2.1c0-0.1,0.1-0.2,0.3-0.2h35.9C345.1,663.4,345.2,663.4,345.2,663.5z M340.6,658.4v2.2
			c0,0.1-0.1,0.2-0.3,0.2h-26.9c-0.2,0-0.3-0.1-0.3-0.2v-2.2c0-0.1,0.1-0.2,0.3-0.2h26.9C340.5,658.2,340.6,658.3,340.6,658.4z"/>
	</g>
	<g>
		<path d="M417.3,659.6v2c0,0.1-0.1,0.2-0.3,0.2h-9.7v0.9c0,1.6,1.2,3.4,3.6,5.2c0,0.1-0.9,0.8-2.6,2c-3.2-1.9-4.8-4.4-4.8-7.5v-0.6
			h-9.3v1.9c0,2-1.6,4.1-4.7,6.2c-0.1,0-0.9-0.7-2.5-2c2.4-1.8,3.6-3.5,3.6-5.3v-0.7H381c-0.2,0-0.3-0.1-0.3-0.2v-2
			c0-0.1,0.1-0.2,0.3-0.2h36C417.2,659.4,417.3,659.5,417.3,659.6z"/>
		<path d="M445.5,666.1v2.1c0,0.1-0.1,0.2-0.3,0.2h-26.8c-0.2,0-0.3-0.1-0.3-0.2v-2.1c0-0.1,0.1-0.2,0.3-0.2h11.7v-9.7h-9.9
			c-0.2,0-0.2-0.1-0.2-0.2v-38.6c0-0.1,0.1-0.2,0.2-0.2h3.1c0.2,0,0.3,0.1,0.3,0.2v36.3h6.6v-38.5c0-0.1,0.1-0.2,0.3-0.2h3.2
			c0.2,0,0.3,0.1,0.3,0.2v38.5h6.3v-36.3c0-0.1,0.1-0.2,0.3-0.2h3.2c0.2,0,0.3,0.1,0.3,0.2v38.6c0,0.1-0.1,0.2-0.3,0.2h-9.8v9.7
			h11.4C445.4,665.9,445.5,665.9,445.5,666.1z"/>
		<path d="M415.6,624.9v2.1c0,0.1-0.1,0.2-0.3,0.2h-25.6c-2.1,0-3.6-0.9-4.3-2.7v-6.6c0-1.2,1-2.2,2.9-2.8c0.3-0.1,0.8-0.2,1.4-0.2
			h21.2c0.2,0,0.2,0.1,0.2,0.2v7c0,0.1-0.1,0.2-0.2,0.2h-17.4c-0.2,0-0.3-0.1-0.3-0.2v-2c0-0.1,0.1-0.2,0.3-0.2h14v-2.5h-18.1
			c-0.1,0-0.3,0.1-0.5,0.4v6.4c0,0.4,0.3,0.6,0.8,0.6h25.6C415.5,624.7,415.6,624.8,415.6,624.9z"/>
		<path d="M410.9,629.9v7c0,0.1-0.1,0.2-0.3,0.2h-20.1v2.5h20.1c0.2,0,0.3,0.1,0.3,0.2v2.1c0,0.1-0.1,0.2-0.3,0.2h-23.4
			c-0.2,0-0.3-0.1-0.3-0.2v-7c0-0.1,0.1-0.2,0.3-0.2h20.1v-2.6h-20.1c-0.2,0-0.3-0.1-0.3-0.2v-2c0-0.1,0.1-0.2,0.3-0.2h23.4
			C410.8,629.7,410.9,629.8,410.9,629.9z"/>
		<path d="M411,644.6v2c0,0.1-0.1,0.2-0.2,0.2h-20v2.5h19.8c0.2,0,0.3,0.1,0.3,0.2v2c0,0.1-0.1,0.2-0.3,0.2h-19.8v2.5h20
			c0.2,0,0.2,0.1,0.2,0.2v2c0,0.1-0.1,0.2-0.2,0.2h-23.5c-0.2,0-0.2-0.1-0.2-0.2v-11.9c0-0.1,0.1-0.2,0.2-0.2h23.5
			C410.9,644.5,411,644.5,411,644.6z"/>
	</g>
	<g>
		<path d="M652.1,615.1v2.1c0,0.1-0.1,0.2-0.3,0.2h-20v23h19.7c0.2,0,0.3,0.1,0.3,0.2v2.1c0,0.1-0.1,0.2-0.3,0.2h-19.7v23h20
			c0.2,0,0.3,0.1,0.3,0.2v2.1c0,0.1-0.1,0.2-0.3,0.2h-23.4c-0.2,0-0.3-0.1-0.3-0.2v-53.1c0-0.1,0.1-0.2,0.3-0.2h23.4
			C652,614.9,652.1,615,652.1,615.1z"/>
		<path d="M625.4,659.6v2c0,0.1-0.1,0.2-0.3,0.2h-9.7v0.9c0,1.6,1.2,3.4,3.6,5.1c0,0.1-0.9,0.8-2.6,2c-3.2-1.9-4.8-4.4-4.8-7.5v-0.6
			h-9.3v1.9c0,2-1.6,4.1-4.7,6.1c-0.1,0-0.9-0.7-2.5-2c2.4-1.8,3.6-3.5,3.6-5.3v-0.7h-9.5c-0.2,0-0.3-0.1-0.3-0.2v-2
			c0-0.1,0.1-0.2,0.3-0.2h36C625.3,659.4,625.4,659.4,625.4,659.6z"/>
		<path d="M623.7,624.9v2.1c0,0.1-0.1,0.2-0.3,0.2h-25.6c-2.1,0-3.6-0.9-4.3-2.7v-6.6c0-1.2,1-2.2,2.9-2.8c0.3-0.1,0.8-0.2,1.4-0.2
			H619c0.2,0,0.2,0.1,0.2,0.2v7c0,0.1-0.1,0.2-0.2,0.2h-17.4c-0.2,0-0.3-0.1-0.3-0.2v-2c0-0.1,0.1-0.2,0.3-0.2h14v-2.5h-18.1
			c-0.1,0-0.3,0.1-0.5,0.4v6.4c0,0.4,0.3,0.6,0.8,0.6h25.6C623.6,624.7,623.7,624.8,623.7,624.9z"/>
		<path d="M619.1,629.9v6.9c0,0.1-0.1,0.2-0.3,0.2h-20.1v2.5h20.1c0.2,0,0.3,0.1,0.3,0.2v2.1c0,0.1-0.1,0.2-0.3,0.2h-23.4
			c-0.2,0-0.3-0.1-0.3-0.2v-6.9c0-0.1,0.1-0.2,0.3-0.2h20.1v-2.6h-20.1c-0.2,0-0.3-0.1-0.3-0.2v-2c0-0.1,0.1-0.2,0.3-0.2h23.4
			C619,629.7,619.1,629.8,619.1,629.9z"/>
		<path d="M619.1,644.6v2c0,0.1-0.1,0.2-0.2,0.2h-20v2.5h19.8c0.2,0,0.3,0.1,0.3,0.2v2c0,0.1-0.1,0.2-0.3,0.2h-19.8v2.5h20
			c0.2,0,0.2,0.1,0.2,0.2v2c0,0.1-0.1,0.2-0.2,0.2h-23.5c-0.2,0-0.2-0.1-0.2-0.2v-11.9c0-0.1,0.1-0.2,0.2-0.2h23.5
			C619,644.4,619.1,644.5,619.1,644.6z"/>
	</g>
	<g>
		<path d="M704.2,620.3v2.1c0,0.1-0.1,0.2-0.3,0.2h-16.2v5c0,0.1-0.1,0.2-0.3,0.2h-3.2c-0.2,0-0.2-0.1-0.2-0.2v-5h-16
			c-0.2,0-0.3-0.1-0.3-0.2v-2.1c0-0.1,0.1-0.2,0.3-0.2h35.9C704.1,620.1,704.2,620.2,704.2,620.3z M699.6,615.1v2.2
			c0,0.1-0.1,0.2-0.3,0.2h-26.9c-0.2,0-0.3-0.1-0.3-0.2v-2.2c0-0.1,0.1-0.2,0.3-0.2h26.9C699.5,614.9,699.6,615,699.6,615.1z"/>
		<path d="M697.9,627.9v12.5c0,0.1-0.1,0.2-0.2,0.2h-23.5c-0.2,0-0.2-0.1-0.2-0.2v-12.5c0-0.1,0.1-0.2,0.2-0.2h23.5
			C697.8,627.7,697.9,627.8,697.9,627.9z M694.2,630.3h-16.6v7.8h16.6V630.3z"/>
		<path d="M702.5,653.8v2.2c0,0.1-0.1,0.2-0.3,0.2h-25.6c-2.1,0-3.6-1-4.3-2.9v-6.9c0-1.3,1-2.3,2.9-3c0.3-0.1,0.8-0.2,1.4-0.2h21.2
			c0.2,0,0.2,0.1,0.2,0.2v7.3c0,0.1-0.1,0.2-0.2,0.2h-17.4c-0.2,0-0.3-0.1-0.3-0.2v-2.1c0-0.1,0.1-0.2,0.3-0.2h14v-2.6h-18.1
			c-0.1,0-0.3,0.1-0.5,0.4v6.6c0,0.4,0.3,0.6,0.8,0.6h25.6C702.4,653.6,702.5,653.6,702.5,653.8z"/>
		<path d="M704.2,659.1v2.1c0,0.1-0.1,0.2-0.3,0.2h-9.7v0.9c0,1.7,1.2,3.5,3.6,5.4c0,0.1-0.9,0.8-2.6,2.1c-3.2-2-4.8-4.6-4.8-7.8
			v-0.6h-9.3v2c0,2.1-1.6,4.2-4.7,6.4c-0.1,0-0.9-0.7-2.5-2.1c2.4-1.8,3.6-3.7,3.6-5.6v-0.8h-9.5c-0.2,0-0.3-0.1-0.3-0.2v-2.1
			c0-0.1,0.1-0.2,0.3-0.2h36C704.1,658.9,704.2,659,704.2,659.1z"/>
		<path d="M730.9,615.1v2.1c0,0.1-0.1,0.2-0.3,0.2h-20.1v14.3h19.8c0.2,0,0.3,0.1,0.3,0.2v2.1c0,0.1-0.1,0.2-0.3,0.2h-19.8v14.2
			h20.1c0.2,0,0.3,0.1,0.3,0.2v19.5c0,0.1-0.1,0.2-0.3,0.2h-25.3c-0.2,0-0.3-0.1-0.3-0.2v-2.1c0-0.1,0.1-0.2,0.3-0.2h22.5V651h-20.7
			c-0.2,0-0.3-0.1-0.3-0.2v-35.7c0-0.1,0.1-0.2,0.3-0.2h23.5C730.8,614.9,730.9,615,730.9,615.1z"/>
	</g>
	<g>
		<path d="M487.7,613.9v8.8c0,0.1-0.1,0.2-0.3,0.2h-3.2c-0.2,0-0.3-0.1-0.3-0.2v-8.8c0-0.2,0.1-0.2,0.3-0.2h3.2
			C487.6,613.7,487.7,613.8,487.7,613.9z"/>
		<path d="M517.4,632.6v2.2c-0.1,0.1-0.2,0.2-0.4,0.2h-62c-0.3,0-0.4-0.1-0.4-0.2v-2.2c0-0.1,0.1-0.2,0.4-0.2h62
			C517.3,632.4,517.4,632.5,517.4,632.6z"/>
		<path d="M509.5,621.8v2.2c-0.1,0.1-0.2,0.2-0.4,0.2h-46.4c-0.3,0-0.4-0.1-0.4-0.2v-2.2c0-0.1,0.1-0.2,0.4-0.2h46.4
			C509.4,621.6,509.5,621.7,509.5,621.8z"/>
		<path d="M508.7,655.6v0.2c0,6-5.4,10.2-16.2,12.6c-1.6,0.3-3.7,0.5-6.3,0.6c-8.8,0-15.7-2.6-20.5-7.8c-1.3-1.7-1.9-3.5-1.9-5.2
			v-0.7c0-5.6,5.4-9.8,16.2-12.4c2.3-0.3,4.2-0.4,5.9-0.4h0.8c10.4,0,17.6,3.4,21.7,10.2C508.5,654,508.7,655,508.7,655.6z
			 M486.9,645.1h-1.5c-8.7,0-14.6,2.8-17.8,8.4l-0.3,1.5v1.2c0,5,5.2,8.4,15.5,10.1c1.4,0.2,2.5,0.2,3.5,0.2c8.8,0,14.8-2.8,18-8.4
			c0.3-0.7,0.5-1.5,0.5-2.3v-0.3c0-4.7-4.6-8.1-13.8-10.1C489.9,645.2,488.5,645.1,486.9,645.1z"/>
	</g>
	<g>
		<path d="M860.9,616.2v22.1c-0.1,0.3-0.2,0.5-0.5,0.5h-2.6c-0.4,0-0.5-0.2-0.5-0.5v-22.1c0-0.4,0.2-0.5,0.5-0.5h2.6
			C860.7,615.8,860.9,615.9,860.9,616.2z"/>
		<path d="M883.5,637.6v1.7c0,0.4-0.2,0.5-0.5,0.5h-44.8v11.8h44.3c0.4,0.1,0.5,0.2,0.5,0.5v1.7c-0.1,0.4-0.2,0.5-0.5,0.5h-44.3
			v11.8H883c0.3,0,0.5,0.2,0.5,0.5v1.7c0,0.4-0.2,0.5-0.5,0.5H835c-0.3,0-0.5-0.2-0.5-0.5v-31c0-0.4,0.2-0.5,0.5-0.5H883
			C883.4,637.1,883.5,637.2,883.5,637.6z"/>
		<path d="M839.8,615.7v1.2c0,2.9-1.4,13.1-8.6,18.4c-2.8-1.3-4.3-1.9-4.3-2v-0.1c6.9-5.2,8.3-15,8.3-17.3v-0.1H839.8z"/>
		<path d="M878.5,615.7v1.2c0,2.9,1.4,13.1,8.6,18.4c2.8-1.3,4.3-1.9,4.3-2v-0.1c-6.9-5.2-8.3-15-8.3-17.3v-0.1H878.5z"/>
	</g>
	<g>
		<path d="M526.6,621.8h46.1c0.2,0,0.3,0.1,0.3,0.2V635c0,0.2-0.1,0.2-0.3,0.2h-42.8v8.1h42.8c0.2,0,0.3,0.1,0.3,0.2v2.2
			c0,0.2-0.1,0.2-0.3,0.2h-46.1c-0.1,0-0.2-0.1-0.3-0.2v-13.1c0-0.1,0.1-0.2,0.3-0.2h42.9v-7.9h-42.9c-0.1,0-0.2-0.1-0.3-0.2V622
			C526.4,621.9,526.5,621.8,526.6,621.8z"/>
		<path d="M573,651.4v17.3c0,0.3-0.2,0.5-0.4,0.5h-45.8c-0.3,0-0.4-0.2-0.4-0.5v-17.3c0-0.3,0.1-0.5,0.4-0.5h2.8
			c0.3,0,0.5,0.2,0.5,0.5v15.2h17.8v-15.2c0-0.3,0.2-0.5,0.5-0.5h2.8c0.3,0.1,0.5,0.2,0.5,0.5v15.2h17.7v-15.2
			c0-0.3,0.2-0.5,0.5-0.5h2.8C572.9,650.9,573,651.1,573,651.4z"/>
		<g>
			<path d="M547.3,610.2l7.5,6.4l-2,1.7h0c-5.3-3.7-8-5.7-8.2-5.8v0C545.9,611.4,546.8,610.6,547.3,610.2z"/>
		</g>
	</g>
	<path d="M581.3,638.7h0.2c1.7,0,2.8,0.9,3.2,2.6l0.1,0.8c0,1.5-0.7,2.6-2.1,3.2c-0.4,0.1-0.7,0.2-1.1,0.2h-0.5
		c-1.1,0-2-0.6-2.6-1.7c-0.3-0.5-0.4-1.1-0.4-1.7c0-1.6,0.7-2.7,2.1-3.2C580.6,638.8,580.9,638.7,581.3,638.7z"/>
	<path d="M660.1,638.7h0.2c1.7,0,2.8,0.9,3.2,2.6l0.1,0.8c0,1.5-0.7,2.6-2.1,3.2c-0.4,0.1-0.7,0.2-1.1,0.2h-0.5
		c-1.1,0-2-0.6-2.6-1.7c-0.3-0.5-0.4-1.1-0.4-1.7c0-1.6,0.7-2.7,2.1-3.2C659.3,638.8,659.7,638.7,660.1,638.7z"/>
	<path d="M738.9,638.7h0.2c1.7,0,2.8,0.9,3.2,2.6l0.1,0.8c0,1.5-0.7,2.6-2.1,3.2c-0.4,0.1-0.7,0.2-1.1,0.2h-0.5
		c-1.1,0-2-0.6-2.6-1.7c-0.3-0.5-0.4-1.1-0.4-1.7c0-1.6,0.7-2.7,2.1-3.2C738.2,638.8,738.6,638.7,738.9,638.7z"/>
	<path d="M819.2,638.7h0.2c1.7,0,2.8,0.9,3.2,2.6l0.1,0.8c0,1.5-0.7,2.6-2.1,3.2c-0.4,0.1-0.7,0.2-1.1,0.2H819c-1.1,0-2-0.6-2.6-1.7
		c-0.3-0.5-0.4-1.1-0.4-1.7c0-1.6,0.7-2.7,2.1-3.2C818.5,638.8,818.8,638.7,819.2,638.7z"/>
</g>
</svg>
